0
SECTION
2
HEADER
9
$INSUNITS
70
4
9
$ACADVER
1
AC1014
9
$HANDSEED
5
FFFF
0
ENDSEC
0
SECTION
2
TABLES
0
TABLE
2
VPORT
5
8
100
AcDbSymbolTable
0
ENDTAB
0
TABLE
2
LTYPE
5
5
100
AcDbSymbolTable
0
LTYPE
5
14
100
AcDbSymbolTableRecord
100
AcDbLinetypeTableRecord
2
BYBLOCK
70
0
0
LTYPE
5
15
100
AcDbSymbolTableRecord
100
AcDbLinetypeTableRecord
2
BYLAYER
70
0
0
ENDTAB
0
TABLE
2
LAYER
5
2
100
AcDbSymbolTable
70
2
0
LAYER
5
50
100
AcDbSymbolTableRecord
100
AcDbLayerTableRecord
2
0
70
0
6
CONTINUOUS
0
ENDTAB
0
TABLE
2
STYLE
5
3
100
AcDbSymbolTable
70
1
0
STYLE
5
11
100
AcDbSymbolTableRecord
100
AcDbTextStyleTableRecord
2
STANDARD
70
0
0
ENDTAB
0
TABLE
2
VIEW
5
6
100
AcDbSymbolTable
70
0
0
ENDTAB
0
TABLE
2
UCS
5
7
100
AcDbSymbolTable
70
0
0
ENDTAB
0
TABLE
2
APPID
5
9
100
AcDbSymbolTable
70
2
0
APPID
5
12
100
AcDbSymbolTableRecord
100
AcDbRegAppTableRecord
2
ACAD
70
0
0
ENDTAB
0
TABLE
2
DIMSTYLE
5
A
100
AcDbSymbolTable
70
1
0
ENDTAB
0
TABLE
2
BLOCK_RECORD
5
1
100
AcDbSymbolTable
70
1
0
BLOCK_RECORD
5
1F
100
AcDbSymbolTableRecord
100
AcDbBlockTableRecord
2
*MODEL_SPACE
0
BLOCK_RECORD
5
1B
100
AcDbSymbolTableRecord
100
AcDbBlockTableRecord
2
*PAPER_SPACE
0
ENDTAB
0
ENDSEC
0
SECTION
2
BLOCKS
0
BLOCK
5
20
100
AcDbEntity
100
AcDbBlockBegin
2
*MODEL_SPACE
0
ENDBLK
5
21
100
AcDbEntity
100
AcDbBlockEnd
0
BLOCK
5
1C
100
AcDbEntity
100
AcDbBlockBegin
2
*PAPER_SPACE
0
ENDBLK
5
1D
100
AcDbEntity
100
AcDbBlockEnd
0
ENDSEC
0
SECTION
2
ENTITIES
0
CIRCLE
5
100
100
AcDbEntity
8
0
100
AcDbCircle
10
2.5257573810222315e-15
20
-12.000000000000002
30
0
40
1.2
210
0
220
-0
230
1
0
CIRCLE
5
101
100
AcDbEntity
8
0
100
AcDbCircle
10
12.000000000000002
20
-1.3877787807814457e-16
30
0
40
1.2000000000000011
210
0
220
-0
230
1
0
CIRCLE
5
102
100
AcDbEntity
8
0
100
AcDbCircle
10
-12.000000000000002
20
-1.3307982808986796e-15
30
0
40
1.2000000000000011
210
0
220
-0
230
1
0
CIRCLE
5
103
100
AcDbEntity
8
0
100
AcDbCircle
10
0
20
0
30
0
40
5
210
0
220
-0
230
1
0
SPLINE
5
104
100
AcDbEntity
8
0
100
AcDbSpline
70
6
71
5
72
41
73
35
74
0
42
0.000000001
43
0.0000000001
44
0.0000000001
40
0
40
0
40
0
40
0
40
0
40
0
40
0.033333333333333333
40
0.066666666666666666
40
0.10000000000000001
40
0.13333333333333333
40
0.16666666666666666
40
0.19999999999999998
40
0.23333333333333331
40
0.26666666666666666
40
0.29999999999999999
40
0.33333333333333331
40
0.36666666666666664
40
0.39999999999999997
40
0.43333333333333329
40
0.46666666666666662
40
0.49999999999999994
40
0.53333333333333333
40
0.56666666666666665
40
0.59999999999999998
40
0.6333333333333333
40
0.66666666666666663
40
0.69999999999999996
40
0.73333333333333328
40
0.76666666666666661
40
0.79999999999999993
40
0.83333333333333326
40
0.86666666666666659
40
0.89999999999999991
40
0.93333333333333324
40
0.96666666666666656
40
1
40
1
40
1
40
1
40
1
40
1
41
1
41
1
41
1
41
1
41
1
41
1
41
1
41
1
41
1
41
1
41
1
41
1
41
1
41
1
41
1
41
1
41
1
41
1
41
1
41
1
41
1
41
1
41
1
41
1
41
1
41
1
41
1
41
1
41
1
41
1
41
1
41
1
41
1
41
1
41
1
10
0.20850234138948043
20
9.2982398549507632
30
0
10
1.1819704059558926
20
9.3157412880569517
30
0
10
3.0998915935589433
20
9.3709476419623492
30
0
10
5.8563243349442722
20
9.5086553407506873
30
0
10
9.1917472513684206
20
9.729896141075594
30
0
10
12.672345865673446
20
9.7440517406806997
30
0
10
15.417644773680319
20
9.1302051177764056
30
0
10
17.411933260125632
20
7.5788565912479537
30
0
10
18.616173422842664
20
4.9515024081180883
30
0
10
18.943753660542946
20
1.3414216423530188
30
0
10
18.310513167238064
20
-3.0028940727738442
30
0
10
16.672076158815784
20
-7.7273103039460516
30
0
10
14.063672814296268
20
-12.430064903082293
30
0
10
10.646655409368989
20
-16.71838390891191
30
0
10
6.73174940618207
20
-20.25707417206479
30
0
10
2.6950636466206976
20
-22.775529397879883
30
0
10
-1.0874291689952194
20
-24.081019361245851
30
0
10
-4.316921451876043
20
-24.071356571070982
30
0
10
-6.8340379358294614
20
-22.746255155833339
30
0
10
-8.714642292585097
20
-20.2266456495509
30
0
10
-10.21175172398749
20
-16.737078664325232
30
0
10
-11.634139227531266
20
-12.571948249207276
30
0
10
-13.23915111428958
20
-8.0677015848518554
30
0
10
-15.134383470966178
20
-3.5730106582431103
30
0
10
-17.137514472672663
20
0.57967292198117504
30
0
10
-18.821042756640416
20
4.1044812891968974
30
0
10
-19.683615254178722
20
6.7941715645781162
30
0
10
-19.280780265948987
20
8.5513477947908001
30
0
10
-17.377318185528054
20
9.4230983371229851
30
0
10
-14.079058989468475
20
9.6293713627653652
30
0
10
-9.7208771161272658
20
9.4750723980947207
30
0
10
-5.7584840089927738
20
9.3100627337736022
30
0
10
-2.7409167938395336
20
9.2659390433252309
30
0
10
-0.76496572317693479
20
9.2807384218445801
30
0
10
0.20850234138948043
20
9.2982398549507632
30
0
0
ENDSEC
0
SECTION
2
OBJECTS
0
DICTIONARY
5
C
100
AcDbDictionary
3
ACAD_GROUP
350
D
3
ACAD_MLINESTYLE
350
17
0
DICTIONARY
5
D
100
AcDbDictionary
0
DICTIONARY
5
1A
330
C
100
AcDbDictionary
0
DICTIONARY
5
17
100
AcDbDictionary
0
ENDSEC
0
EOF
