0
SECTION
2
HEADER
9
$INSUNITS
70
4
9
$ACADVER
1
AC1014
9
$HANDSEED
5
FFFF
0
ENDSEC
0
SECTION
2
TABLES
0
TABLE
2
VPORT
5
8
100
AcDbSymbolTable
0
ENDTAB
0
TABLE
2
LTYPE
5
5
100
AcDbSymbolTable
0
LTYPE
5
14
100
AcDbSymbolTableRecord
100
AcDbLinetypeTableRecord
2
BYBLOCK
70
0
0
LTYPE
5
15
100
AcDbSymbolTableRecord
100
AcDbLinetypeTableRecord
2
BYLAYER
70
0
0
ENDTAB
0
TABLE
2
LAYER
5
2
100
AcDbSymbolTable
70
2
0
LAYER
5
50
100
AcDbSymbolTableRecord
100
AcDbLayerTableRecord
2
0
70
0
6
CONTINUOUS
0
ENDTAB
0
TABLE
2
STYLE
5
3
100
AcDbSymbolTable
70
1
0
STYLE
5
11
100
AcDbSymbolTableRecord
100
AcDbTextStyleTableRecord
2
STANDARD
70
0
0
ENDTAB
0
TABLE
2
VIEW
5
6
100
AcDbSymbolTable
70
0
0
ENDTAB
0
TABLE
2
UCS
5
7
100
AcDbSymbolTable
70
0
0
ENDTAB
0
TABLE
2
APPID
5
9
100
AcDbSymbolTable
70
2
0
APPID
5
12
100
AcDbSymbolTableRecord
100
AcDbRegAppTableRecord
2
ACAD
70
0
0
ENDTAB
0
TABLE
2
DIMSTYLE
5
A
100
AcDbSymbolTable
70
1
0
ENDTAB
0
TABLE
2
BLOCK_RECORD
5
1
100
AcDbSymbolTable
70
1
0
BLOCK_RECORD
5
1F
100
AcDbSymbolTableRecord
100
AcDbBlockTableRecord
2
*MODEL_SPACE
0
BLOCK_RECORD
5
1B
100
AcDbSymbolTableRecord
100
AcDbBlockTableRecord
2
*PAPER_SPACE
0
ENDTAB
0
ENDSEC
0
SECTION
2
BLOCKS
0
BLOCK
5
20
100
AcDbEntity
100
AcDbBlockBegin
2
*MODEL_SPACE
0
ENDBLK
5
21
100
AcDbEntity
100
AcDbBlockEnd
0
BLOCK
5
1C
100
AcDbEntity
100
AcDbBlockBegin
2
*PAPER_SPACE
0
ENDBLK
5
1D
100
AcDbEntity
100
AcDbBlockEnd
0
ENDSEC
0
SECTION
2
ENTITIES
0
CIRCLE
5
100
100
AcDbEntity
8
0
100
AcDbCircle
10
2.5257573810222315e-15
20
-12.000000000000002
30
0
40
1.2
210
0
220
0
230
1
0
CIRCLE
5
101
100
AcDbEntity
8
0
100
AcDbCircle
10
-2.5257573810222315e-15
20
12.000000000000002
30
0
40
1.2000000000000011
210
0
220
0
230
1
0
CIRCLE
5
102
100
AcDbEntity
8
0
100
AcDbCircle
10
-12.000000000000002
20
-1.3307982808986796e-15
30
0
40
1.2000000000000011
210
0
220
0
230
1
0
CIRCLE
5
103
100
AcDbEntity
8
0
100
AcDbCircle
10
0
20
0
30
0
40
5
210
0
220
0
230
1
0
CIRCLE
5
104
100
AcDbEntity
8
0
100
AcDbCircle
10
12.000000000000002
20
-1.3877787807814457e-16
30
0
40
1.2000000000000011
210
0
220
0
230
1
0
ARC
5
105
100
AcDbEntity
8
0
100
AcDbCircle
10
-13.754891871040432
20
26.463130710067027
30
0
40
0.99999999999999967
210
0
220
0
230
1
100
AcDbArc
50
113.66407921308839
51
199.15574244409439
0
LINE
5
106
100
AcDbEntity
8
0
100
AcDbLine
10
-14.699521989290574
20
26.134993635516288
30
0
11
-10.702998461898733
21
14.629934362837558
31
0
0
ARC
5
107
100
AcDbEntity
8
0
100
AcDbCircle
10
-11.647628580148879
20
14.301797288286819
30
0
40
0.99999999999999956
210
0
220
0
230
1
100
AcDbArc
50
-53.819685773795946
51
19.155742444094358
0
SPLINE
5
108
100
AcDbEntity
8
0
100
AcDbSpline
70
4
71
5
72
36
73
30
74
0
42
0.000000001
43
0.0000000001
44
0.0000000001
40
0
40
0
40
0
40
0
40
0
40
0
40
0.040000000000000001
40
0.080000000000000002
40
0.12
40
0.16
40
0.20000000000000001
40
0.24000000000000002
40
0.28000000000000003
40
0.32000000000000001
40
0.35999999999999999
40
0.39999999999999997
40
0.43999999999999995
40
0.47999999999999993
40
0.51999999999999991
40
0.55999999999999994
40
0.59999999999999998
40
0.64000000000000001
40
0.68000000000000005
40
0.72000000000000008
40
0.76000000000000012
40
0.80000000000000016
40
0.84000000000000019
40
0.88000000000000023
40
0.92000000000000026
40
0.9600000000000003
40
1
40
1
40
1
40
1
40
1
40
1
41
1
41
1
41
1
41
1
41
1
41
1
41
1
41
1
41
1
41
1
41
1
41
1
41
1
41
1
41
1
41
1
41
1
41
1
41
1
41
1
41
1
41
1
41
1
41
1
41
1
41
1
41
1
41
1
41
1
41
1
10
-11.057300204073293
20
13.494634102555484
30
0
10
-12.094072210795961
20
12.736378590029002
30
0
10
-14.014082749964185
20
11.184534571124537
30
0
10
-16.43351053309722
20
8.7507506393219341
30
0
10
-18.752245334796317
20
5.2889126812050824
30
0
10
-20.217519065692329
20
0.6027368334394837
30
0
10
-20.34395354624489
20
-4.3825153319896115
30
0
10
-19.219036106373977
20
-9.5149600582825045
30
0
10
-16.88873671934968
20
-14.494069652658876
30
0
10
-13.380049033201377
20
-18.907157047187049
30
0
10
-8.7551378466775418
20
-22.316679006357887
30
0
10
-3.1562008728985091
20
-24.33130263081566
30
0
10
3.1440270391415619
20
-24.684971882062278
30
0
10
9.6940177284581033
20
-23.312601204210701
30
0
10
15.9470009588285
20
-20.31003759854093
30
0
10
21.339749782783247
20
-15.897465070511297
30
0
10
25.376866181908369
20
-10.383276226155777
30
0
10
27.70421831277033
20
-4.1305129670847167
30
0
10
28.212315942489784
20
2.4790546328571246
30
0
10
27.016243012858574
20
9.0667354463663585
30
0
10
24.367581631052431
20
15.27058910636659
30
0
10
20.588097905437337
20
20.762203693910102
30
0
10
15.999304860992867
20
25.261527456044767
30
0
10
10.846914583672856
20
28.555924997934618
30
0
10
5.2512140005860717
20
30.510349849476803
30
0
10
-0.74873611932051354
20
31.046498038789686
30
0
10
-5.8835284039630906
20
30.311782496806732
30
0
10
-9.9381574112576168
20
29.101591745208331
30
0
10
-12.734660568157734
20
28.002023355218576
30
0
10
-14.15626550689646
20
27.379045118971984
30
0
0
ENDSEC
0
SECTION
2
OBJECTS
0
DICTIONARY
5
C
100
AcDbDictionary
3
ACAD_GROUP
350
D
3
ACAD_MLINESTYLE
350
17
0
DICTIONARY
5
D
100
AcDbDictionary
0
DICTIONARY
5
1A
330
C
100
AcDbDictionary
0
DICTIONARY
5
17
100
AcDbDictionary
0
ENDSEC
0
EOF
