0
SECTION
2
HEADER
9
$INSUNITS
70
4
9
$ACADVER
1
AC1014
9
$HANDSEED
5
FFFF
0
ENDSEC
0
SECTION
2
TABLES
0
TABLE
2
VPORT
5
8
100
AcDbSymbolTable
0
ENDTAB
0
TABLE
2
LTYPE
5
5
100
AcDbSymbolTable
0
LTYPE
5
14
100
AcDbSymbolTableRecord
100
AcDbLinetypeTableRecord
2
BYBLOCK
70
0
0
LTYPE
5
15
100
AcDbSymbolTableRecord
100
AcDbLinetypeTableRecord
2
BYLAYER
70
0
0
ENDTAB
0
TABLE
2
LAYER
5
2
100
AcDbSymbolTable
70
2
0
LAYER
5
50
100
AcDbSymbolTableRecord
100
AcDbLayerTableRecord
2
0
70
0
6
CONTINUOUS
0
ENDTAB
0
TABLE
2
STYLE
5
3
100
AcDbSymbolTable
70
1
0
STYLE
5
11
100
AcDbSymbolTableRecord
100
AcDbTextStyleTableRecord
2
STANDARD
70
0
0
ENDTAB
0
TABLE
2
VIEW
5
6
100
AcDbSymbolTable
70
0
0
ENDTAB
0
TABLE
2
UCS
5
7
100
AcDbSymbolTable
70
0
0
ENDTAB
0
TABLE
2
APPID
5
9
100
AcDbSymbolTable
70
2
0
APPID
5
12
100
AcDbSymbolTableRecord
100
AcDbRegAppTableRecord
2
ACAD
70
0
0
ENDTAB
0
TABLE
2
DIMSTYLE
5
A
100
AcDbSymbolTable
70
1
0
ENDTAB
0
TABLE
2
BLOCK_RECORD
5
1
100
AcDbSymbolTable
70
1
0
BLOCK_RECORD
5
1F
100
AcDbSymbolTableRecord
100
AcDbBlockTableRecord
2
*MODEL_SPACE
0
BLOCK_RECORD
5
1B
100
AcDbSymbolTableRecord
100
AcDbBlockTableRecord
2
*PAPER_SPACE
0
ENDTAB
0
ENDSEC
0
SECTION
2
BLOCKS
0
BLOCK
5
20
100
AcDbEntity
100
AcDbBlockBegin
2
*MODEL_SPACE
0
ENDBLK
5
21
100
AcDbEntity
100
AcDbBlockEnd
0
BLOCK
5
1C
100
AcDbEntity
100
AcDbBlockBegin
2
*PAPER_SPACE
0
ENDBLK
5
1D
100
AcDbEntity
100
AcDbBlockEnd
0
ENDSEC
0
SECTION
2
ENTITIES
0
ARC
5
100
100
AcDbEntity
8
0
100
AcDbCircle
10
-80.454585861024583
20
61.319017951580946
30
0
40
0.50000000000001443
210
0
220
-0
230
1
100
AcDbArc
50
62.78809025492118
51
208.51948806013667
0
SPLINE
5
101
100
AcDbEntity
8
0
100
AcDbSpline
70
4
71
5
72
21
73
15
74
0
42
0.000000001
43
0.0000000001
44
0.0000000001
40
-1
40
-1
40
-1
40
-1
40
-1
40
-1
40
-0.89999999999999991
40
-0.79999999999999993
40
-0.69999999999999996
40
-0.59999999999999998
40
-0.5
40
-0.40000000000000002
40
-0.30000000000000004
40
-0.20000000000000001
40
-0.10000000000000001
40
0
40
0
40
0
40
0
40
0
40
0
41
1
41
1
41
1
41
1
41
1
41
1
41
1
41
1
41
1
41
1
41
1
41
1
41
1
41
1
41
1
10
-80.225944463493192
20
61.763678621457323
30
0
10
-80.008443303236604
20
61.654874973074683
30
0
10
-79.581197346909235
20
61.443010180807903
30
0
10
-78.963597224031332
20
61.142440297903306
30
0
10
-78.187435896262798
20
60.776703572563036
30
0
10
-77.302440434213992
20
60.382615956156314
30
0
10
-76.513190752900215
20
60.059414719422996
30
0
10
-75.833454559083776
20
59.81729292655055
30
0
10
-75.277786873925891
20
59.667026538090809
30
0
10
-74.858780681376444
20
59.61793890004212
30
0
10
-74.580166949070019
20
59.6727922729102
30
0
10
-74.4652933744525
20
59.796646779526263
30
0
10
-74.437127109316833
20
59.932470353476425
30
0
10
-74.443685301268061
20
60.041776951994834
30
0
10
-74.4532994854316
20
60.10112049935892
30
0
0
ARC
5
102
100
AcDbEntity
8
0
100
AcDbCircle
10
-74.944508409392995
20
60.194468204662464
30
0
40
0.50000000106476561
210
-7.5367888211726258e-48
220
-3.9659656495403506e-47
230
1
100
AcDbArc
50
-10.759994582007584
51
64.89696447498055
0
LINE
5
103
100
AcDbEntity
8
0
100
AcDbLine
10
-74.732384709391283
20
60.647241367473974
30
-1.5267347354538293e-33
11
-82.003954304005177
21
64.771246101879541
31
0
0
ARC
5
104
100
AcDbEntity
8
0
100
AcDbCircle
10
-81.34222787268142
20
65.454833224016483
30
8.4373836368190432e-45
40
0.9514059193971548
210
3.5424887065288323e-32
220
-3.4292021219605023e-32
230
1
100
AcDbArc
50
187.75756331280905
51
225.93094661341539
0
ARC
5
105
100
AcDbEntity
8
0
100
AcDbCircle
10
-69.999999999999616
20
67.000000000000341
30
0
40
12.398400000000318
210
0
220
0
230
1
100
AcDbArc
50
172.51948806013905
51
187.75771131651115
0
ARC
5
106
100
AcDbEntity
8
0
100
AcDbCircle
10
-81.797135097320123
20
68.549040366025764
30
0
40
0.50000000000000056
210
0
220
-0
230
1
100
AcDbArc
50
26.788090254918945
51
172.51948806014022
0
SPLINE
5
107
100
AcDbEntity
8
0
100
AcDbSpline
70
4
71
5
72
21
73
15
74
0
42
0.000000001
43
0.0000000001
44
0.0000000001
40
-1
40
-1
40
-1
40
-1
40
-1
40
-1
40
-0.89999999999999991
40
-0.79999999999999993
40
-0.69999999999999996
40
-0.59999999999999998
40
-0.5
40
-0.40000000000000002
40
-0.30000000000000004
40
-0.20000000000000001
40
-0.10000000000000001
40
0
40
0
40
0
40
0
40
0
40
0
41
1
41
1
41
1
41
1
41
1
41
1
41
1
41
1
41
1
41
1
41
1
41
1
41
1
41
1
41
1
10
-81.350795337071787
20
68.774386363153397
30
0
10
-81.238786382055892
20
68.558518388203865
30
0
10
-81.01766814300737
20
68.135987298514323
30
0
10
-80.694689692355027
20
67.529804911198383
30
0
10
-80.281736641216582
20
66.77770150306057
30
0
10
-79.797399161520957
20
65.938690643170247
30
0
10
-79.34885567699844
20
65.213306026996491
30
0
10
-78.941253163590545
20
64.617886471686219
30
0
10
-78.580032930082751
20
64.169705139241486
30
0
10
-78.269902789229704
20
63.883706745264803
30
0
10
-78.012257541281031
20
63.764319013193699
30
0
10
-77.846523014789057
20
63.796998420839444
30
0
10
-77.743900933965449
20
63.890326285134329
30
0
10
-77.684957816144021
20
63.982611989433103
30
0
10
-77.657854592575248
20
64.036273003414863
30
0
0
ARC
5
108
100
AcDbEntity
8
0
100
AcDbCircle
10
-78.000382555335904
20
64.400518244690304
30
0
40
0.50000000106476694
210
3.5917353767886722e-32
220
3.3775864773932607e-32
230
1
100
AcDbArc
50
-46.75999458200662
51
28.8969644749784
0
LINE
5
109
100
AcDbEntity
8
0
100
AcDbLine
10
-77.562637489390383
20
64.64213624547898
30
-2.3883501315298301e-32
11
-81.021431703945282
21
72.252647529228227
31
0
0
ARC
5
110
100
AcDbEntity
8
0
100
AcDbCircle
10
-80.084281346328055
20
72.416728090788624
30
0
40
0.95140591939723229
210
0
220
0
230
1
100
AcDbArc
50
151.75756331280903
51
189.93094661341345
0
ARC
5
111
100
AcDbEntity
8
0
100
AcDbCircle
10
-69.999999999999616
20
67.000000000000341
30
0
40
12.398400000000244
210
4.6661231573920372e-32
220
8.6868813964868091e-32
230
1
100
AcDbArc
50
136.51948806013988
51
151.7577113165122
0
ARC
5
112
100
AcDbEntity
8
0
100
AcDbCircle
10
-78.63357969631366
20
75.187382010594447
30
2.7369110631344083e-47
40
0.49999999999999128
210
3.5775259144779995e-32
220
-3.3926334550588071e-32
230
1
100
AcDbArc
50
-9.2119097450818579
51
136.51948806013996
0
SPLINE
5
113
100
AcDbEntity
8
0
100
AcDbSpline
70
4
71
5
72
21
73
15
74
0
42
0.000000001
43
0.0000000001
44
0.0000000001
40
-1
40
-1
40
-1
40
-1
40
-1
40
-1
40
-0.89999999999999991
40
-0.79999999999999993
40
-0.69999999999999996
40
-0.59999999999999998
40
-0.5
40
-0.40000000000000002
40
-0.30000000000000004
40
-0.20000000000000001
40
-0.10000000000000001
40
0
40
0
40
0
40
0
40
0
40
0
41
1
41
1
41
1
41
1
41
1
41
1
41
1
41
1
41
1
41
1
41
1
41
1
41
1
41
1
41
1
10
-78.140028191232759
20
75.107338823299315
30
0
10
-78.176295055253178
20
74.866860751121564
30
0
10
-78.245764185310748
20
74.395055878950288
30
0
10
-78.34077419745023
20
73.714802055776858
30
0
10
-78.448763452759053
20
72.863609903681976
30
0
10
-78.550084410644104
20
71.900149431855851
30
0
10
-78.613575488543745
20
71.049653704716107
30
0
10
-78.633796961717081
20
70.328366419549084
30
0
10
-78.604998031573118
20
69.75346017901002
30
0
10
-78.522203115225551
20
69.339792694892495
30
0
10
-78.38393807926964
20
69.091765913701636
30
0
10
-78.230647556913183
20
69.02078779938752
30
0
10
-78.092767807305108
20
69.035971881958375
30
0
10
-77.990837647344762
20
69.075986689665157
30
0
10
-77.93736952625963
20
69.103468486790817
30
0
0
ARC
5
114
100
AcDbEntity
8
0
100
AcDbCircle
10
-78.000382488142208
20
69.599481962111355
30
0
40
0.50000000106475651
210
1.2227676197184932e-32
220
1.5533894389218162e-33
230
1
100
AcDbArc
50
277.24000541799467
51
352.89696447497766
0
LINE
5
115
100
AcDbEntity
8
0
100
AcDbLine
10
-77.504219793036526
20
69.537654936869714
30
-5.9708753288245834e-33
11
-75.829096797663908
21
77.727716131335058
31
0
0
ARC
5
116
100
AcDbEntity
8
0
100
AcDbCircle
10
-74.974482097793853
20
77.309616934695896
30
-2.5812492464186389e-45
40
0.95140591939733965
210
-4.3333516221688839e-32
220
-8.8575774021584066e-32
230
1
100
AcDbArc
50
115.75756331281156
51
153.93094661341129
0
ARC
5
117
100
AcDbEntity
8
0
100
AcDbCircle
10
-69.999999999999616
20
67.000000000000341
30
0
40
12.398400000000072
210
8.7256531533046514e-32
220
-6.7384155551543913e-32
230
1
100
AcDbArc
50
100.51948806014032
51
115.7577113165128
0
ARC
5
118
100
AcDbEntity
8
0
100
AcDbCircle
10
-72.172290295896332
20
78.698422005995653
30
0
40
0.49999999999999845
210
-0
220
0
230
1
100
AcDbArc
50
-45.211909745084547
51
100.51948806013978
0
SPLINE
5
119
100
AcDbEntity
8
0
100
AcDbSpline
70
4
71
5
72
21
73
15
74
0
42
0.000000001
43
0.0000000001
44
0.0000000001
40
-1
40
-1
40
-1
40
-1
40
-1
40
-1
40
-0.89999999999999991
40
-0.79999999999999993
40
-0.69999999999999996
40
-0.59999999999999998
40
-0.5
40
-0.40000000000000002
40
-0.30000000000000004
40
-0.20000000000000001
40
-0.10000000000000001
40
0
40
0
40
0
40
0
40
0
40
0
41
1
41
1
41
1
41
1
41
1
41
1
41
1
41
1
41
1
41
1
41
1
41
1
41
1
41
1
41
1
10
-71.82004694572511
20
78.343563411256611
30
0
10
-71.990736919397193
20
78.170329691896853
30
0
10
-72.324258572058667
20
77.829464462398178
30
0
10
-72.800966451638374
20
77.334973042894603
30
0
10
-73.388649788300569
20
76.709818618030781
30
0
10
-74.036928021635703
20
75.989917687706338
30
0
10
-74.58820222818018
20
75.339171310061801
30
0
10
-75.028523772471928
20
74.767523522268689
30
0
10
-75.343146358143912
20
74.28548701710622
30
0
10
-75.519311510222323
20
73.902157361664564
30
0
10
-75.55323923051543
20
73.620229331593279
30
0
10
-75.470944481679027
20
73.472704922526717
30
0
10
-75.35047244128944
20
73.403945419951782
30
0
10
-75.244489095832293
20
73.376405034614322
30
0
10
-75.185079082180437
20
73.367210502477121
30
0
0
ARC
5
120
100
AcDbEntity
8
0
100
AcDbCircle
10
-74.944508233477606
20
73.805531923148266
30
0
40
0.50000000106476516
210
4.3221828994005602e-32
220
-2.3722117134170221e-32
230
1
100
AcDbArc
50
241.24000541799424
51
316.89696447497755
0
LINE
5
121
100
AcDbEntity
8
0
100
AcDbLine
10
-74.579445194792385
20
73.463875694095321
30
-1.1669623431665626e-32
11
-68.410245038388084
21
79.105161792932535
31
0
0
ARC
5
122
100
AcDbEntity
8
0
100
AcDbCircle
10
-67.964599764330401
20
78.264582520541083
30
0
40
0.95140591939723473
210
0
220
-0
230
1
100
AcDbArc
50
79.757563312809822
51
117.93094661341429
0
ARC
5
123
100
AcDbEntity
8
0
100
AcDbCircle
10
-69.999999999999616
20
67.000000000000341
30
0
40
12.398399999999871
210
-1.212953313986589e-32
220
2.1916910687991751e-33
230
1
100
AcDbArc
50
64.519488060140276
51
79.757711316512996
0
ARC
5
124
100
AcDbEntity
8
0
100
AcDbCircle
10
-64.881259835878183
20
77.741062409846336
30
0
40
0.49999999999998701
210
0
220
0
230
1
100
AcDbArc
50
-81.211909745080021
51
64.519488060137846
0
SPLINE
5
125
100
AcDbEntity
8
0
100
AcDbSpline
70
4
71
5
72
21
73
15
74
0
42
0.000000001
43
0.0000000001
44
0.0000000001
40
-1
40
-1
40
-1
40
-1
40
-1
40
-1
40
-0.89999999999999991
40
-0.79999999999999993
40
-0.69999999999999996
40
-0.59999999999999998
40
-0.5
40
-0.40000000000000002
40
-0.30000000000000004
40
-0.20000000000000001
40
-0.10000000000000001
40
0
40
0
40
0
40
0
40
0
40
0
41
1
41
1
41
1
41
1
41
1
41
1
41
1
41
1
41
1
41
1
41
1
41
1
41
1
41
1
41
1
10
-64.804869628070904
20
77.246932329653731
30
0
10
-65.066205378777141
20
77.206531040389706
30
0
10
-65.575464935233697
20
77.125675475251271
30
0
10
-66.299118947368569
20
77.004233218244039
30
0
10
-67.182792620749993
20
76.842060038065668
30
0
10
-68.14566815426393
20
76.639257171451163
30
0
10
-68.956614373201887
20
76.436688614168901
30
0
10
-69.60354324430871
20
76.234507901204438
30
0
10
-70.077146764570813
20
76.03250408561955
30
0
10
-70.375685387845792
20
75.829949803919845
30
0
10
-70.517304507596407
20
75.62525940502357
30
0
10
-70.533796815535595
20
75.45800218783117
30
0
10
-70.506534149593477
20
75.329683479615952
30
0
10
-70.472927614062911
20
75.242726082425307
30
0
10
-70.452264663064426
20
75.198894519742595
30
0
0
ARC
5
126
100
AcDbEntity
8
0
100
AcDbCircle
10
-69.999999891278236
20
75.412100001065113
30
0
40
0.50000000106477582
210
0
220
0
230
1
100
AcDbArc
50
205.24000541799364
51
280.8969644749767
0
SPLINE
5
127
100
AcDbEntity
8
0
100
AcDbSpline
70
4
71
5
72
16
73
10
74
0
42
0.000000001
43
0.0000000001
44
0.0000000001
40
0
40
0
40
0
40
0
40
0
40
0
40
0.20000000000000001
40
0.40000000000000002
40
0.60000000000000009
40
0.80000000000000004
40
1
40
1
40
1
40
1
40
1
40
1
41
1
41
1
41
1
41
1
41
1
41
1
41
1
41
1
41
1
41
1
10
-69.90547818175493
20
74.921115635230976
30
0
10
-69.574810696648854
20
74.984774054470478
30
0
10
-68.913348618966722
20
75.11438657336555
30
0
10
-67.920774197798991
20
75.315676750017047
30
0
10
-66.596402707601101
20
75.587733866082175
30
0
10
-64.937904423775151
20
75.874011586938735
30
0
10
-63.606686852463369
20
75.991531335256951
30
0
10
-62.604409088841386
20
75.973786858896361
30
0
10
-61.934220925418956
20
75.906424451732235
30
0
10
-61.598625640664622
20
75.858847088943548
30
0
0
ARC
5
128
100
AcDbEntity
8
0
100
AcDbCircle
10
-61.732171140183127
20
74.91686045261757
30
-1.1467657354533171e-44
40
0.95140591939727304
210
-1.3841203514037715e-32
220
-9.7631360007645108e-32
230
1
100
AcDbArc
50
43.757563312809395
51
81.930946613411805
0
ARC
5
129
100
AcDbEntity
8
0
100
AcDbCircle
10
-69.999999999999616
20
67.000000000000341
30
0
40
12.398399999999718
210
0
220
-0
230
1
100
AcDbArc
50
28.519488060139604
51
43.757711316512548
0
ARC
5
130
100
AcDbEntity
8
0
100
AcDbCircle
10
-59.545414138975289
20
72.680982048419736
30
0
40
0.49999999999999067
210
0
220
0
230
1
100
AcDbArc
50
-117.21190974508069
51
28.519488060139714
0
SPLINE
5
131
100
AcDbEntity
8
0
100
AcDbSpline
70
4
71
5
72
21
73
15
74
0
42
0.000000001
43
0.0000000001
44
0.0000000001
40
-1
40
-1
40
-1
40
-1
40
-1
40
-1
40
-0.89999999999999991
40
-0.79999999999999993
40
-0.69999999999999996
40
-0.59999999999999998
40
-0.5
40
-0.40000000000000002
40
-0.30000000000000004
40
-0.20000000000000001
40
-0.10000000000000001
40
0
40
0
40
0
40
0
40
0
40
0
41
1
41
1
41
1
41
1
41
1
41
1
41
1
41
1
41
1
41
1
41
1
41
1
41
1
41
1
41
1
10
-59.774055536506687
20
72.236321378543394
30
0
10
-59.991556696833598
20
72.345125026992264
30
0
10
-60.418802653288409
20
72.55698981937914
30
0
10
-61.036402776317345
20
72.857559702426073
30
0
10
-61.812564104208462
20
73.223296427882062
30
0
10
-62.697559566291254
20
73.61738404432127
30
0
10
-63.486809247537508
20
73.940585280991371
30
0
10
-64.16654544120874
20
74.182707073727073
30
0
10
-64.722213126175774
20
74.332973462006393
30
0
10
-65.141219318531228
20
74.382061099871237
30
0
10
-65.4198330507012
20
74.327207726873638
30
0
10
-65.534706625314143
20
74.203353220253291
30
0
10
-65.562872890531153
20
74.067529646380294
30
0
10
-65.556314698674655
20
73.958223047951691
30
0
10
-65.5467005145683
20
73.898879500641797
30
0
0
ARC
5
132
100
AcDbEntity
8
0
100
AcDbCircle
10
-65.055491590606877
20
73.805531795338254
30
0
40
0.50000000106478304
210
0
220
0
230
1
100
AcDbArc
50
169.24000541799273
51
244.89696447497755
0
LINE
5
133
100
AcDbEntity
8
0
100
AcDbLine
10
-65.267615290608617
20
73.352758632526744
30
0
11
-57.996045695994702
21
69.228753898121184
31
0
0
ARC
5
134
100
AcDbEntity
8
0
100
AcDbCircle
10
-58.65777212731853
20
68.545166775984228
30
0
40
0.95140591939722396
210
0
220
-0
230
1
100
AcDbArc
50
7.7575633128085073
51
45.930946613412893
0
ARC
5
135
100
AcDbEntity
8
0
100
AcDbCircle
10
-69.999999999999616
20
67.000000000000341
30
0
40
12.398399999999674
210
-0
220
0
230
1
100
AcDbArc
50
-7.4805119398611888
51
7.7577113165117355
0
ARC
5
136
100
AcDbEntity
8
0
100
AcDbCircle
10
-58.20286490267975
20
65.450959633974946
30
2.2237402387967068e-47
40
0.50000000000000444
210
1.2221047934867535e-32
220
-1.6047028715080609e-33
230
1
100
AcDbArc
50
206.78809025492038
51
352.51948806014002
0
SPLINE
5
137
100
AcDbEntity
8
0
100
AcDbSpline
70
4
71
5
72
21
73
15
74
0
42
0.000000001
43
0.0000000001
44
0.0000000001
40
-1
40
-1
40
-1
40
-1
40
-1
40
-1
40
-0.89999999999999991
40
-0.79999999999999993
40
-0.69999999999999996
40
-0.59999999999999998
40
-0.5
40
-0.40000000000000002
40
-0.30000000000000004
40
-0.20000000000000001
40
-0.10000000000000001
40
0
40
0
40
0
40
0
40
0
40
0
41
1
41
1
41
1
41
1
41
1
41
1
41
1
41
1
41
1
41
1
41
1
41
1
41
1
41
1
41
1
10
-58.649204662928099
20
65.225613636847314
30
0
10
-58.761213617998045
20
65.441481611865072
30
0
10
-58.982331857145091
20
65.86401270167849
30
0
10
-59.305310307916216
20
66.470195089142223
30
0
10
-59.718263359155429
20
67.222298497401852
30
0
10
-60.202600838886951
20
68.061309357329549
30
0
10
-60.651144323363553
20
68.786693973440322
30
0
10
-61.058746836658045
20
69.382113528608912
30
0
10
-61.419967070006869
20
69.830294860862949
30
0
10
-61.730097210690424
20
70.1162932546425
30
0
10
-61.987742458514596
20
70.235680986572987
30
0
10
-62.153476984999614
20
70.203001578921317
30
0
10
-62.256099065896095
20
70.109673714709729
30
0
10
-62.315042183803719
20
70.017388010508597
30
0
10
-62.342145407424645
20
69.963726996585848
30
0
0
ARC
5
138
100
AcDbEntity
8
0
100
AcDbCircle
10
-61.999617444663997
20
69.599481755310393
30
0
40
0.50000000106477982
210
3.5917353767887554e-32
220
3.3775864773931742e-32
230
1
100
AcDbArc
50
133.24000541799171
51
208.89696447497801
0
LINE
5
139
100
AcDbEntity
8
0
100
AcDbLine
10
-62.437362510609525
20
69.357863754521716
30
2.3883501315298876e-32
11
-58.978568296054625
21
61.747352470772483
31
0
0
ARC
5
140
100
AcDbEntity
8
0
100
AcDbCircle
10
-59.915718653671931
20
61.583271909212094
30
-1.6814897344132021e-45
40
0.95140591939730323
210
-1.2141263529808483e-32
220
-2.1257478288636852e-33
230
1
100
AcDbArc
50
-28.242436687189311
51
9.9309466134122424
0
ARC
5
141
100
AcDbEntity
8
0
100
AcDbCircle
10
-69.999999999999616
20
67.000000000000341
30
0
40
12.398399999999762
210
4.6661231573923071e-32
220
8.6868813964867478e-32
230
1
100
AcDbArc
50
316.51948806013786
51
331.75771131651078
0
ARC
5
142
100
AcDbEntity
8
0
100
AcDbCircle
10
-61.366420303686226
20
58.812617989406284
30
-4.5672203366055439e-46
40
0.49999999999999717
210
3.3926334550587797e-32
220
3.5775259144779311e-32
230
1
100
AcDbArc
50
170.78809025492086
51
316.5194880601382
0
SPLINE
5
143
100
AcDbEntity
8
0
100
AcDbSpline
70
4
71
5
72
21
73
15
74
0
42
0.000000001
43
0.0000000001
44
0.0000000001
40
-1
40
-1
40
-1
40
-1
40
-1
40
-1
40
-0.89999999999999991
40
-0.79999999999999993
40
-0.69999999999999996
40
-0.59999999999999998
40
-0.5
40
-0.40000000000000002
40
-0.30000000000000004
40
-0.20000000000000001
40
-0.10000000000000001
40
0
40
0
40
0
40
0
40
0
40
0
41
1
41
1
41
1
41
1
41
1
41
1
41
1
41
1
41
1
41
1
41
1
41
1
41
1
41
1
41
1
10
-61.859971808767142
20
58.892661176701395
30
0
10
-61.823704944812761
20
59.133139248946009
30
0
10
-61.754235814875038
20
59.604944121238468
30
0
10
-61.659225802878325
20
60.285197944555762
30
0
10
-61.551236547686841
20
61.136390096767983
30
0
10
-61.449915589837232
20
62.099850568628113
30
0
10
-61.386424511876363
20
62.95034629570484
30
0
10
-61.366203038566134
20
63.67163358073374
30
0
10
-61.395001968526451
20
64.246539821089328
30
0
10
-61.477796884684572
20
64.660207305018986
30
0
10
-61.616061920505139
20
64.908234086076803
30
0
10
-61.76935244285562
20
64.97921220038566
30
0
10
-61.90723219254383
20
64.964028117893932
30
0
10
-62.009162352598253
20
64.924013310279648
30
0
10
-62.062630473740263
20
64.896531513209894
30
0
0
ARC
5
144
100
AcDbEntity
8
0
100
AcDbCircle
10
-61.999617511857679
20
64.400518037889356
30
0
40
0.50000000106476639
210
-1.9440041037342743e-45
220
-2.4696396889026909e-46
230
1
100
AcDbArc
50
97.240005417994681
51
172.89696447497775
0
LINE
5
145
100
AcDbEntity
8
0
100
AcDbLine
10
-62.495780206963367
20
64.462345063130996
30
1.2213877883632876e-32
11
-64.170903202335978
21
56.27228386866566
31
0
0
ARC
5
146
100
AcDbEntity
8
0
100
AcDbCircle
10
-65.025517902206047
20
56.690383065304815
30
2.5812492464186389e-45
40
0.95140591939733965
210
-4.3333516221688839e-32
220
-8.8575774021584066e-32
230
1
100
AcDbArc
50
295.75756331281252
51
333.93094661341206
0
ARC
5
147
100
AcDbEntity
8
0
100
AcDbCircle
10
-69.999999999999616
20
67.000000000000341
30
0
40
12.398399999999937
210
8.7256531533047367e-32
220
-6.7384155551548555e-32
230
1
100
AcDbArc
50
280.51948806013741
51
295.7577113165101
0
ARC
5
148
100
AcDbEntity
8
0
100
AcDbCircle
10
-67.827709704103555
20
55.301577994005093
30
-5.0034155372925902e-47
40
0.49999999999999201
210
-1.2118787732629441e-32
220
-2.2503483782794741e-33
230
1
100
AcDbArc
50
134.78809025491947
51
280.51948806013917
0
SPLINE
5
149
100
AcDbEntity
8
0
100
AcDbSpline
70
4
71
5
72
21
73
15
74
0
42
0.000000001
43
0.0000000001
44
0.0000000001
40
-1
40
-1
40
-1
40
-1
40
-1
40
-1
40
-0.89999999999999991
40
-0.79999999999999993
40
-0.69999999999999996
40
-0.59999999999999998
40
-0.5
40
-0.40000000000000002
40
-0.30000000000000004
40
-0.20000000000000001
40
-0.10000000000000001
40
0
40
0
40
0
40
0
40
0
40
0
41
1
41
1
41
1
41
1
41
1
41
1
41
1
41
1
41
1
41
1
41
1
41
1
41
1
41
1
41
1
10
-68.17995305427479
20
55.6564365887441
30
0
10
-68.009263080665548
20
55.829670308157411
30
0
10
-67.675741428118727
20
56.170535537753359
30
0
10
-67.199033548677448
20
56.665026957373321
30
0
10
-66.611350212133019
20
57.29018138233387
30
0
10
-65.963071978839821
20
58.01008231268932
30
0
10
-65.411797772241954
20
58.660828690285683
30
0
10
-64.97147622781776
20
59.232476477967339
30
0
10
-64.656853641960524
20
59.714512982978135
30
0
10
-64.480688489684525
20
60.09784263826117
30
0
10
-64.446760769246339
20
60.379770668218029
30
0
10
-64.52905551807433
20
60.527295077278737
30
0
10
-64.649527558548797
20
60.596054579921102
30
0
10
-64.755510904106629
20
60.623594965338185
30
0
10
-64.814920917819464
20
60.632789497523589
30
0
0
ARC
5
150
100
AcDbEntity
8
0
100
AcDbCircle
10
-65.05549176652228
20
60.194468076852445
30
0
40
0.50000000106477294
210
0
220
-0
230
1
100
AcDbArc
50
61.240005417994269
51
136.89696447497758
0
LINE
5
151
100
AcDbEntity
8
0
100
AcDbLine
10
-65.420554805207502
20
60.536124305905389
30
0
11
-71.589754961611817
21
54.894838207068176
31
0
0
ARC
5
152
100
AcDbEntity
8
0
100
AcDbCircle
10
-72.035400235669499
20
55.735417479459635
30
0
40
0.95140591939723473
210
0
220
0
230
1
100
AcDbArc
50
259.7575633128107
51
297.93094661341405
0
ARC
5
153
100
AcDbEntity
8
0
100
AcDbCircle
10
-69.999999999999616
20
67.000000000000341
30
0
40
12.398400000000137
210
-1.2129533139865613e-32
220
2.1916910687997587e-33
230
1
100
AcDbArc
50
244.51948806013746
51
259.75771131650998
0
ARC
5
154
100
AcDbEntity
8
0
100
AcDbCircle
10
-75.118740164121732
20
56.25893759015436
30
0
40
0.50000000000000178
210
0
220
0
230
1
100
AcDbArc
50
98.788090254918103
51
244.51948806014008
0
SPLINE
5
155
100
AcDbEntity
8
0
100
AcDbSpline
70
4
71
5
72
21
73
15
74
0
42
0.000000001
43
0.0000000001
44
0.0000000001
40
-1
40
-1
40
-1
40
-1
40
-1
40
-1
40
-0.89999999999999991
40
-0.79999999999999993
40
-0.69999999999999996
40
-0.59999999999999998
40
-0.5
40
-0.40000000000000002
40
-0.30000000000000004
40
-0.20000000000000001
40
-0.10000000000000001
40
0
40
0
40
0
40
0
40
0
40
0
41
1
41
1
41
1
41
1
41
1
41
1
41
1
41
1
41
1
41
1
41
1
41
1
41
1
41
1
41
1
10
-75.195130371928997
20
56.753067670346979
30
0
10
-74.955215057056833
20
56.792887644136357
30
0
10
-74.48503481721113
20
56.872614298959896
30
0
10
-73.808715277590778
20
56.992464399788801
30
0
10
-72.965812919647618
20
57.152793355426581
30
0
10
-72.018197661861706
20
57.354157057428878
30
0
10
-71.189708336410803
20
57.556591087335192
30
0
10
-70.497474584840958
20
57.760249352315178
30
0
10
-69.9596056173107
20
57.965294560812772
30
0
10
-69.591769497116346
20
58.171867487951879
30
0
10
-69.398608256454494
20
58.380009841691923
30
0
10
-69.378473434804306
20
58.54773123541144
30
0
10
-69.435521541305434
20
58.674170530259843
30
0
10
-69.50507603661319
20
58.75874661757932
30
0
10
-69.54773533693546
20
58.801105480258116
30
0
0
ARC
5
156
100
AcDbEntity
8
0
100
AcDbCircle
10
-70.00000010872165
20
58.58789999893559
30
0
40
0.50000000106478337
210
0
220
-0
230
1
100
AcDbArc
50
25.240005417994393
51
100.89696447497703
0
LINE
5
157
100
AcDbEntity
8
0
100
AcDbLine
10
-70.094521818244971
20
59.078884364769742
30
0
11
-78.401374359335691
21
58.141152911054149
31
0
0
ARC
5
158
100
AcDbEntity
8
0
100
AcDbCircle
10
-78.267828859816831
20
59.083139547383006
30
-1.2630844556365294e-44
40
0.95140591939713592
210
-1.3841203514033287e-32
220
-9.7631360007634686e-32
230
1
100
AcDbArc
50
223.75756331280616
51
261.93094661341507
0
ARC
5
159
100
AcDbEntity
8
0
100
AcDbCircle
10
-69.999999999999616
20
67.000000000000341
30
0
40
12.398400000000311
210
6.1872125541502512e-33
220
-1.1386190686128388e-32
230
1
100
AcDbArc
50
208.51948806013806
51
223.7577113165103
0
CIRCLE
5
160
100
AcDbEntity
8
0
100
AcDbCircle
10
26.321778264910538
20
96.900000000000134
30
0
40
1.0000000000000009
210
1.9446922743316068e-62
220
-3.3558256110433678e-93
230
1
0
LWPOLYLINE
5
161
100
AcDbEntity
8
0
100
AcDbPolyline
90
16
70
1
43
0.0
10
-17.378221735089465
20
112.40000000000015
42
0.41421356237309859
10
-19.378221735089465
20
110.40000000000013
10
-19.378221735089465
20
103.00000000000013
10
-22.628215550675463
20
102.99999999999328
42
1.0000065737267543
10
-22.628214772085464
20
101.00000000001214
10
-19.378221735089461
20
101.00000000000014
10
-19.378221735089475
20
93.600000000000136
42
0.41421356237309243
10
-17.378221735089461
20
91.600000000000136
10
19.721778264910547
20
91.600000000000051
42
0.41421356237311163
10
21.72177826491054
20
93.600000000000136
10
21.72177826491054
20
101.00000000000014
10
24.971771080090541
20
101.00000000001683
42
1.0000066853150162
10
24.971772079140536
20
102.99999999999014
10
21.72177826491054
20
103.00000000000013
10
21.721778264910551
20
110.40000000000013
42
0.41421356237307683
10
19.721778264910533
20
112.40000000000006
0
CIRCLE
5
162
100
AcDbEntity
8
0
100
AcDbCircle
10
26.321778264910538
20
107.10000000000014
30
0
40
1.0000000000000009
210
1.9446922743316068e-62
220
-3.3558256110433678e-93
230
1
0
CIRCLE
5
163
100
AcDbEntity
8
0
100
AcDbCircle
10
-23.978221735089463
20
107.10000000000014
30
0
40
1.0000000000000009
210
1.9446922743316068e-62
220
-3.3558256110433678e-93
230
1
0
CIRCLE
5
164
100
AcDbEntity
8
0
100
AcDbCircle
10
-23.978221735089463
20
96.900000000000134
30
0
40
1.0000000000000009
210
1.9446922743316068e-62
220
-3.3558256110433678e-93
230
1
0
SPLINE
5
165
100
AcDbEntity
8
0
100
AcDbSpline
70
0
71
3
72
14
73
10
74
0
42
0.000000001
43
0.0000000001
44
0.0000000001
40
0
40
0
40
0
40
0
40
0.39064447338692754
40
0.39064447338692754
40
0.78128894677385619
40
0.78128894677385619
40
1.1466469454269057
40
1.1466469454269057
40
1.5120049440799577
40
1.5120049440799577
40
1.5120049440799577
40
1.5120049440799577
10
-147.49200099597172
20
74.6183629629964
30
0
10
-147.49200099597172
20
75.920511207619498
30
0
10
-147.2376624883255
20
77.210210205298353
30
0
10
-146.24894036162652
20
79.619523128120122
30
0
10
-145.52400946500026
20
80.716102708543815
30
0
10
-143.75382482102191
20
82.50967117853952
30
0
10
-142.74714478712187
20
83.212933731976079
30
0
10
-140.53073462614267
20
84.223011883885292
30
0
10
-139.33953452621031
20
84.521382847017037
30
0
10
-138.12411001770749
20
84.598364876054347
30
0
0
LINE
5
166
100
AcDbEntity
8
0
100
AcDbLine
10
-147.49200099597172
20
74.6183629629964
30
0
11
-147.49200099597169
21
65.000000000000028
31
0
0
LINE
5
167
100
AcDbEntity
8
0
100
AcDbLine
10
-147.49200099597169
20
65.000000000000028
30
0
11
-144.31700099597168
21
65.000000000000028
31
-4.861730685829017e-62
0
LINE
5
168
100
AcDbEntity
8
0
100
AcDbLine
10
-144.31700099597168
20
65.000000000000028
30
-4.861730685829017e-62
11
-144.31700099597168
21
50.000000000000036
31
0
0
LINE
5
169
100
AcDbEntity
8
0
100
AcDbLine
10
-144.31700099597168
20
50.000000000000036
30
0
11
-147.49200099597169
21
50.000000000000036
31
-4.9520984548575735e-48
0
LINE
5
170
100
AcDbEntity
8
0
100
AcDbLine
10
-147.49200099597169
20
50.000000000000036
30
-4.9520984548575735e-48
11
-147.49200099597169
21
30.000000000000036
31
0
0
LINE
5
171
100
AcDbEntity
8
0
100
AcDbLine
10
-147.49200099597169
20
30.000000000000036
30
0
11
-144.31700099597168
21
30.000000000000036
31
-4.861730685829017e-62
0
LINE
5
172
100
AcDbEntity
8
0
100
AcDbLine
10
-144.31700099597168
20
30.000000000000036
30
-4.861730685829017e-62
11
-144.31700099597168
21
16.350000000000037
31
0
0
LINE
5
173
100
AcDbEntity
8
0
100
AcDbLine
10
-144.31700099597168
20
16.350000000000037
30
0
11
-137.31700099597168
21
16.350000000000037
31
-9.7234613716580339e-62
0
LINE
5
174
100
AcDbEntity
8
0
100
AcDbLine
10
-137.31700099597168
20
16.350000000000037
30
-9.7234613716580339e-62
11
-137.31700099597168
21
17.500000000000032
31
0
0
ARC
5
175
100
AcDbEntity
8
0
100
AcDbCircle
10
-137.31700099597168
20
17.750000000000028
30
0
40
0.25000000000002132
210
0
220
-0
230
1
100
AcDbArc
50
0
51
270
0
LINE
5
176
100
AcDbEntity
8
0
100
AcDbLine
10
-137.06700099597168
20
17.750000000000036
30
0
11
-134.86700099597169
21
17.750000000000036
31
2.4308653429145085e-62
0
LINE
5
177
100
AcDbEntity
8
0
100
AcDbLine
10
-134.86700099597169
20
17.750000000000036
30
2.4308653429145085e-62
11
-134.86700099597169
21
16.350000000000037
31
0
0
LINE
5
178
100
AcDbEntity
8
0
100
AcDbLine
10
-134.86700099597169
20
16.350000000000037
30
0
11
-131.86700099597169
21
16.350000000000037
31
0
0
LINE
5
179
100
AcDbEntity
8
0
100
AcDbLine
10
-131.86700099597169
20
16.350000000000037
30
0
11
-131.86700099597169
21
13.650000000000036
31
0
0
LINE
5
180
100
AcDbEntity
8
0
100
AcDbLine
10
-131.86700099597169
20
13.650000000000036
30
0
11
-134.86700099597169
21
13.650000000000036
31
0
0
LINE
5
181
100
AcDbEntity
8
0
100
AcDbLine
10
-134.86700099597169
20
13.650000000000036
30
0
11
-134.86700099597169
21
12.250000000000036
31
0
0
LINE
5
182
100
AcDbEntity
8
0
100
AcDbLine
10
-134.86700099597169
20
12.250000000000036
30
0
11
-137.06700099597168
21
12.250000000000036
31
-2.4308653429145085e-62
0
ARC
5
183
100
AcDbEntity
8
0
100
AcDbCircle
10
-137.31700099597168
20
12.250000000000041
30
0
40
0.24999999999999911
210
0
220
-0
230
1
100
AcDbArc
50
90
51
360
0
LINE
5
184
100
AcDbEntity
8
0
100
AcDbLine
10
-137.31700099597168
20
12.500000000000039
30
0
11
-137.31700099597168
21
13.650000000000036
31
0
0
LINE
5
185
100
AcDbEntity
8
0
100
AcDbLine
10
-137.31700099597168
20
13.650000000000036
30
0
11
-144.31700099597168
21
13.650000000000036
31
9.7234613716580339e-62
0
LINE
5
186
100
AcDbEntity
8
0
100
AcDbLine
10
-144.31700099597168
20
13.650000000000036
30
9.7234613716580339e-62
11
-144.31700099597168
21
3.5527136788005009e-14
31
0
0
LINE
5
187
100
AcDbEntity
8
0
100
AcDbLine
10
-144.31700099597168
20
3.5527136788005009e-14
30
0
11
-137.49200099597169
21
3.4788838476629251e-14
31
-9.7234613716580339e-62
0
LINE
5
188
100
AcDbEntity
8
0
100
AcDbLine
10
-137.49200099597169
20
3.4788838476629251e-14
30
-9.7234613716580339e-62
11
-137.49200099597169
21
-5.6999999999999664
31
0
0
LINE
5
189
100
AcDbEntity
8
0
100
AcDbLine
10
-137.49200099597169
20
-5.6999999999999664
30
0
11
-117.49200099597168
21
-5.6999999999999664
31
0
0
LINE
5
190
100
AcDbEntity
8
0
100
AcDbLine
10
-117.49200099597168
20
-5.6999999999999664
30
0
11
-117.49200099597168
21
3.4416913763379853e-14
31
0
0
LINE
5
191
100
AcDbEntity
8
0
100
AcDbLine
10
-117.49200099597168
20
3.4416913763379853e-14
30
0
11
-97.492000995971679
21
3.4788838476629245e-14
31
0
0
LINE
5
192
100
AcDbEntity
8
0
100
AcDbLine
10
-97.492000995971679
20
3.4788838476629245e-14
30
0
11
-97.492000995971679
21
-5.6999999999999664
31
0
0
LINE
5
193
100
AcDbEntity
8
0
100
AcDbLine
10
-97.492000995971679
20
-5.6999999999999664
30
0
11
-77.492000995971679
21
-5.6999999999999664
31
0
0
LINE
5
194
100
AcDbEntity
8
0
100
AcDbLine
10
-77.492000995971679
20
-5.6999999999999664
30
0
11
-77.492000995971679
21
3.4416913763379853e-14
31
0
0
LINE
5
195
100
AcDbEntity
8
0
100
AcDbLine
10
-77.492000995971679
20
3.4416913763379853e-14
30
0
11
-57.492000995971679
21
3.4788838476629239e-14
31
0
0
LINE
5
196
100
AcDbEntity
8
0
100
AcDbLine
10
-57.492000995971679
20
3.4788838476629239e-14
30
0
11
-57.492000995971679
21
-5.6999999999999664
31
0
0
LINE
5
197
100
AcDbEntity
8
0
100
AcDbLine
10
-57.492000995971679
20
-5.6999999999999664
30
0
11
-37.492000995971679
21
-5.6999999999999664
31
0
0
LINE
5
198
100
AcDbEntity
8
0
100
AcDbLine
10
-37.492000995971679
20
-5.6999999999999664
30
0
11
-37.492000995971679
21
3.4416913763379853e-14
31
0
0
LINE
5
199
100
AcDbEntity
8
0
100
AcDbLine
10
-37.492000995971679
20
3.4416913763379853e-14
30
0
11
-17.492000995971679
21
3.4788838476629232e-14
31
0
0
LINE
5
200
100
AcDbEntity
8
0
100
AcDbLine
10
-17.492000995971679
20
3.4788838476629232e-14
30
0
11
-17.492000995971679
21
-5.6999999999999664
31
0
0
LINE
5
201
100
AcDbEntity
8
0
100
AcDbLine
10
-17.492000995971679
20
-5.6999999999999664
30
0
11
2.5079990040283207
21
-5.6999999999999664
31
0
0
LINE
5
202
100
AcDbEntity
8
0
100
AcDbLine
10
2.5079990040283207
20
-5.6999999999999664
30
0
11
2.5079990040283215
21
3.4416913763379853e-14
31
0
0
LINE
5
203
100
AcDbEntity
8
0
100
AcDbLine
10
2.5079990040283215
20
3.4416913763379853e-14
30
0
11
22.507999004028321
21
3.478883847662922e-14
31
0
0
LINE
5
204
100
AcDbEntity
8
0
100
AcDbLine
10
22.507999004028321
20
3.478883847662922e-14
30
0
11
22.507999004028321
21
-5.6999999999999664
31
0
0
LINE
5
205
100
AcDbEntity
8
0
100
AcDbLine
10
22.507999004028321
20
-5.6999999999999664
30
0
11
42.507999004028321
21
-5.6999999999999664
31
0
0
LINE
5
206
100
AcDbEntity
8
0
100
AcDbLine
10
42.507999004028321
20
-5.6999999999999664
30
0
11
42.507999004028321
21
3.4416913763379853e-14
31
0
0
LINE
5
207
100
AcDbEntity
8
0
100
AcDbLine
10
42.507999004028321
20
3.4416913763379853e-14
30
0
11
62.507999004028321
21
3.4788838476629213e-14
31
0
0
LINE
5
208
100
AcDbEntity
8
0
100
AcDbLine
10
62.507999004028321
20
3.4788838476629213e-14
30
0
11
62.507999004028321
21
-5.6999999999999664
31
0
0
LINE
5
209
100
AcDbEntity
8
0
100
AcDbLine
10
62.507999004028321
20
-5.6999999999999664
30
0
11
97.16286670362912
21
-5.6999999999999664
31
-3.8893845486632136e-61
0
LINE
5
210
100
AcDbEntity
8
0
100
AcDbLine
10
97.16286670362912
20
-5.6999999999999664
30
-3.8893845486632136e-61
11
97.16286670362912
21
3.4416913763379853e-14
31
0
0
LINE
5
211
100
AcDbEntity
8
0
100
AcDbLine
10
97.16286670362912
20
3.4416913763379853e-14
30
0
11
107.16286670362912
21
3.4788838476629207e-14
31
0
0
LINE
5
212
100
AcDbEntity
8
0
100
AcDbLine
10
107.16286670362912
20
3.4788838476629207e-14
30
0
11
107.16286670362912
21
184.30000000000004
31
0
0
ARC
5
213
100
AcDbEntity
8
0
100
AcDbCircle
10
97.162866703629106
20
184.30000000000001
30
0
40
10.000000000000018
210
0
220
-0
230
1
100
AcDbArc
50
0
51
89.999999999999929
0
LINE
5
214
100
AcDbEntity
8
0
100
AcDbLine
10
97.16286670362912
20
194.30000000000001
30
0
11
81.81773440322992
21
194.30000000000004
31
1.9446922743316068e-61
0
SPLINE
5
215
100
AcDbEntity
8
0
100
AcDbSpline
70
4
71
5
72
21
73
15
74
0
42
0.000000001
43
0.0000000001
44
0.0000000001
40
0
40
0
40
0
40
0
40
0
40
0
40
0.10000000000000001
40
0.20000000000000001
40
0.30000000000000004
40
0.40000000000000002
40
0.5
40
0.59999999999999998
40
0.69999999999999996
40
0.79999999999999993
40
0.89999999999999991
40
0.95696766793632904
40
0.95696766793632904
40
0.95696766793632904
40
0.95696766793632904
40
0.95696766793632904
40
0.95696766793632904
41
1
41
1
41
1
41
1
41
1
41
1
41
1
41
1
41
1
41
1
41
1
41
1
41
1
41
1
41
1
10
81.81773440322992
20
194.30000000000004
30
0
10
79.95023897134331
20
194.30000000000004
30
0
10
76.15494445429394
20
194.23853648928895
30
0
10
70.281101004848068
20
193.9619176619575
30
0
10
62.099504403671197
20
193.18124165164977
30
0
10
51.351487598433359
20
191.27713604368392
30
0
10
40.157195598829958
20
188.15900196507516
30
0
10
28.591881930569603
20
183.58303660678888
30
0
10
16.725263654473448
20
177.48470403195373
30
0
10
4.6159891238085491
20
169.92841586506717
30
0
10
-6.6324487617174732
20
161.79021698792045
30
0
10
-15.52715476822411
20
154.64495198815519
30
0
10
-21.981685893270825
20
149.11520985792373
30
0
10
-25.943249300587787
20
145.59584136637008
30
0
10
-27.383474459548466
20
144.30000000002198
30
0
0
SPLINE
5
216
100
AcDbEntity
8
0
100
AcDbSpline
70
4
71
5
72
12
73
6
74
0
42
0.000000001
43
0.0000000001
44
0.0000000001
40
0.95696766793652543
40
0.95696766793652543
40
0.95696766793652543
40
0.95696766793652543
40
0.95696766793652543
40
0.95696766793652543
40
1
40
1
40
1
40
1
40
1
40
1
41
1
41
1
41
1
41
1
41
1
41
1
10
-27.3834744595733
20
144.29999999999964
30
0
10
-28.471394143346132
20
143.32114518641282
30
0
10
-29.560723378751099
20
142.3316939687266
30
0
10
-30.651457384057579
20
141.33167799427983
30
0
10
-31.743594016444746
20
140.32111341993181
30
0
10
-32.83713329637088
20
139.30000000000004
30
0
0
SPLINE
5
217
100
AcDbEntity
8
0
100
AcDbSpline
70
4
71
5
72
21
73
15
74
0
42
0.000000001
43
0.0000000001
44
0.0000000001
40
-1
40
-1
40
-1
40
-1
40
-1
40
-1
40
-0.89999999999999991
40
-0.79999999999999993
40
-0.69999999999999996
40
-0.59999999999999998
40
-0.5
40
-0.40000000000000002
40
-0.30000000000000004
40
-0.20000000000000001
40
-0.10000000000000001
40
-0.097291076913551072
40
-0.097291076913551072
40
-0.097291076913551072
40
-0.097291076913551072
40
-0.097291076913551072
40
-0.097291076913551072
41
1
41
1
41
1
41
1
41
1
41
1
41
1
41
1
41
1
41
1
41
1
41
1
41
1
41
1
41
1
10
-32.83713329637088
20
139.30000000000004
30
0
10
-35.378337148193545
20
136.92710183025744
30
0
10
-40.445595683742241
20
132.29523734502158
30
0
10
-48.00103752318347
20
125.68921768123573
30
0
10
-57.982560145522172
20
117.57615162205838
30
0
10
-70.290255716550291
20
108.67158413493293
30
0
10
-82.39953024721521
20
101.11529596804635
30
0
10
-94.266148523311358
20
95.016963393211213
30
0
10
-105.83146219157172
20
90.440998034924931
30
0
10
-117.02575419117511
20
87.322863956316155
30
0
10
-125.68239873707988
20
85.789263318662563
30
0
10
-131.95072711290786
20
85.061778889165339
30
0
10
-136.0326593940573
20
84.731760802263949
30
0
10
-138.0703866924479
20
84.601767580670042
30
0
10
-138.12411001770747
20
84.598364876054347
30
0
0
ARC
5
218
100
AcDbEntity
8
0
100
AcDbCircle
10
8.2068688007095574
20
135.10899141434345
30
0
40
15.008991414343271
210
0
220
0
230
1
100
AcDbArc
50
142.23916191634277
51
306.81264502309983
0
LINE
5
219
100
AcDbEntity
8
0
100
AcDbLine
10
-3.6588458618894206
20
144.30000000000004
30
0
11
-4.3244493893794269
21
144.30000000000004
31
0
0
SPLINE
5
220
100
AcDbEntity
8
0
100
AcDbSpline
70
0
71
3
72
17
73
13
74
0
42
0.000000001
43
0.0000000001
44
0.0000000001
40
0.033775414696835038
40
0.033775414696835038
40
0.033775414696835038
40
0.033775414696835038
40
0.20800643793166934
40
0.20800643793166934
40
0.20800643793166934
40
0.44893417072262864
40
0.44893417072262864
40
0.44893417072262864
40
0.66559146571267336
40
0.66559146571267336
40
0.66559146571267336
40
0.84859763057664805
40
0.84859763057664805
40
0.84859763057664805
40
0.84859763057664805
10
78.960102874814794
20
179.26980657717803
30
0
10
73.984498644503219
20
179.16449036519523
30
0
10
68.701635153393582
20
178.77607909886476
30
0
10
63.297351276546571
20
177.98636679819759
30
0
10
55.824274222682561
20
176.89434776149352
30
0
10
48.121642234652825
20
175.01284268722745
30
0
10
39.979424111647816
20
171.78779411592305
30
0
10
32.657432021680407
20
168.88762861161985
30
0
10
24.924488533952363
20
164.8699363225773
30
0
10
16.828616088655167
20
159.69850873663813
30
0
10
9.9901915273688857
20
155.33030535157334
30
0
10
2.9163742452956489
20
150.16806894637227
30
0
10
-4.3244493893794234
20
144.30000000000007
30
0
0
ARC
5
221
100
AcDbEntity
8
0
100
AcDbCircle
10
79.606204417378621
20
164.27893240449146
30
0
40
15.00479109033591
210
4.1183389839560451e-33
220
-9.8521574569589902e-32
230
1
100
AcDbArc
50
-87.606350183532314
51
92.467901121479983
0
SPLINE
5
222
100
AcDbEntity
8
0
100
AcDbSpline
70
0
71
3
72
14
73
10
74
0
42
0.000000001
43
0.0000000001
44
0.0000000001
40
0.024472075854532822
40
0.024472075854532822
40
0.024472075854532822
40
0.024472075854532822
40
0.15855975674673681
40
0.15855975674673681
40
0.15855975674673681
40
0.32562045017857133
40
0.32562045017857133
40
0.32562045017857133
40
0.43459788214718142
40
0.43459788214718142
40
0.43459788214718142
40
0.43459788214718142
10
80.232878303073406
20
149.28723351792053
30
0
10
77.296210318193658
20
149.24034565239279
30
0
10
74.145282988992378
20
149.06291296951227
30
0
10
71.048189172386046
20
148.73202633819
30
0
10
67.189500311612548
20
148.3197725822281
30
0
10
63.411084209021283
20
147.6774056795243
30
0
10
59.632936942901857
20
146.70497083589052
30
0
10
57.16836686239445
20
146.07062980785426
30
0
10
54.682234579955718
20
145.29477994157281
30
0
10
52.062804615560374
20
144.30000000000402
30
0
0
SPLINE
5
223
100
AcDbEntity
8
0
100
AcDbSpline
70
0
71
3
72
14
73
10
74
0
42
0.000000001
43
0.0000000001
44
0.0000000001
40
0.43459788214718142
40
0.43459788214718142
40
0.43459788214718142
40
0.43459788214718142
40
0.50399405175296397
40
0.50399405175296397
40
0.50399405175296397
40
0.6902517182775757
40
0.6902517182775757
40
0.6902517182775757
40
0.81833962923370462
40
0.81833962923370462
40
0.81833962923370462
40
0.81833962923370462
10
52.062804615549823
20
144.30000000000004
30
0
10
50.394767455966104
20
143.66653014942196
30
0
10
48.672677214915218
20
142.94428272204576
30
0
10
46.867681097411094
20
142.11326568777778
30
0
10
42.023114504728611
20
139.88283575880288
30
0
10
36.587217712610411
20
136.84110986888734
30
0
10
30.643110774951957
20
132.89519684920464
30
0
10
26.555395867152988
20
130.18162395346044
30
0
10
22.244718244750565
20
127.05052092172467
30
0
10
17.767553732314024
20
123.53906803886586
30
0
0
SPLINE
5
224
100
AcDbEntity
8
0
100
AcDbSpline
70
0
71
3
72
8
73
4
74
0
42
0.000000001
43
0.0000000001
44
0.0000000001
40
0.81833962923370474
40
0.81833962923370474
40
0.81833962923370474
40
0.81833962923370474
40
0.82374112194799975
40
0.82374112194799975
40
0.82374112194799975
40
0.82374112194799975
10
17.767553732314013
20
123.53906803886585
30
0
10
17.578750813177415
20
123.39098937147428
30
0
10
17.389651826126094
20
123.24223431816873
30
0
10
17.200261006414799
20
123.09280566718607
30
0
0
LWPOLYLINE
5
225
100
AcDbEntity
8
0
100
AcDbPolyline
90
4
70
1
43
0.0
10
95.462866703629103
20
52.000000000000036
10
95.462866703629103
20
66.999999999965709
10
101.16286670362911
20
66.999999999965709
10
101.16286670362911
20
52.000000000000036
0
LWPOLYLINE
5
226
100
AcDbEntity
8
0
100
AcDbPolyline
90
8
70
1
43
0.0
10
44.656591711723543
20
68.863117035515401
42
0.22359714350497148
10
44.656591711723834
20
66.307710602359492
42
-0.27117179983730882
10
41.048604138827542
20
62.699723029463854
42
0.22359714350497406
10
38.493197705671861
20
62.69972302946406
42
-0.2711717998373081
10
34.885210132776209
20
66.307710602360373
42
0.22359714350497326
10
34.88521013277645
20
68.863117035516041
42
-0.27117179983730882
10
38.493197705672756
20
72.471104608411693
42
0.22359714350497301
10
41.048604138828317
20
72.471104608411011
42
-0.27117179983728906
0
LWPOLYLINE
5
227
100
AcDbEntity
8
0
100
AcDbPolyline
90
4
70
1
43
0.0
10
17.007999004028317
20
9.0000000000000355
10
15.007999004028319
20
9.0000000000000355
10
15.007999004028317
20
13.500000000000036
10
17.007999004028317
20
13.500000000000036
0
LWPOLYLINE
5
228
100
AcDbEntity
8
0
100
AcDbPolyline
90
4
70
1
43
0.0
10
10.007999004028317
20
9.0000000000000355
10
8.0079990040283153
20
9.0000000000000355
10
8.0079990040283171
20
13.500000000000036
10
10.007999004028317
20
13.500000000000036
0
ENDSEC
0
SECTION
2
OBJECTS
0
DICTIONARY
5
C
100
AcDbDictionary
3
ACAD_GROUP
350
D
3
ACAD_MLINESTYLE
350
17
0
DICTIONARY
5
D
100
AcDbDictionary
0
DICTIONARY
5
1A
330
C
100
AcDbDictionary
0
DICTIONARY
5
17
100
AcDbDictionary
0
ENDSEC
0
EOF
