0
SECTION
2
HEADER
9
$INSUNITS
70
4
9
$ACADVER
1
AC1014
9
$HANDSEED
5
FFFF
0
ENDSEC
0
SECTION
2
TABLES
0
TABLE
2
VPORT
5
8
100
AcDbSymbolTable
0
ENDTAB
0
TABLE
2
LTYPE
5
5
100
AcDbSymbolTable
0
LTYPE
5
14
100
AcDbSymbolTableRecord
100
AcDbLinetypeTableRecord
2
BYBLOCK
70
0
0
LTYPE
5
15
100
AcDbSymbolTableRecord
100
AcDbLinetypeTableRecord
2
BYLAYER
70
0
0
ENDTAB
0
TABLE
2
LAYER
5
2
100
AcDbSymbolTable
70
2
0
LAYER
5
50
100
AcDbSymbolTableRecord
100
AcDbLayerTableRecord
2
0
70
0
6
CONTINUOUS
0
ENDTAB
0
TABLE
2
STYLE
5
3
100
AcDbSymbolTable
70
1
0
STYLE
5
11
100
AcDbSymbolTableRecord
100
AcDbTextStyleTableRecord
2
STANDARD
70
0
0
ENDTAB
0
TABLE
2
VIEW
5
6
100
AcDbSymbolTable
70
0
0
ENDTAB
0
TABLE
2
UCS
5
7
100
AcDbSymbolTable
70
0
0
ENDTAB
0
TABLE
2
APPID
5
9
100
AcDbSymbolTable
70
2
0
APPID
5
12
100
AcDbSymbolTableRecord
100
AcDbRegAppTableRecord
2
ACAD
70
0
0
ENDTAB
0
TABLE
2
DIMSTYLE
5
A
100
AcDbSymbolTable
70
1
0
ENDTAB
0
TABLE
2
BLOCK_RECORD
5
1
100
AcDbSymbolTable
70
1
0
BLOCK_RECORD
5
1F
100
AcDbSymbolTableRecord
100
AcDbBlockTableRecord
2
*MODEL_SPACE
0
BLOCK_RECORD
5
1B
100
AcDbSymbolTableRecord
100
AcDbBlockTableRecord
2
*PAPER_SPACE
0
ENDTAB
0
ENDSEC
0
SECTION
2
BLOCKS
0
BLOCK
5
20
100
AcDbEntity
100
AcDbBlockBegin
2
*MODEL_SPACE
0
ENDBLK
5
21
100
AcDbEntity
100
AcDbBlockEnd
0
BLOCK
5
1C
100
AcDbEntity
100
AcDbBlockBegin
2
*PAPER_SPACE
0
ENDBLK
5
1D
100
AcDbEntity
100
AcDbBlockEnd
0
ENDSEC
0
SECTION
2
ENTITIES
0
CIRCLE
5
100
100
AcDbEntity
8
0
100
AcDbCircle
10
103.49200099597149
20
-80.399999999999864
30
0
40
0.54999999999999716
210
1.2075949781892446e-47
220
-9.8607613152626476e-32
230
1
0
CIRCLE
5
101
100
AcDbEntity
8
0
100
AcDbCircle
10
103.49200099597149
20
-111.39999999999985
30
7.8886090522101181e-30
40
0.54999999999999716
210
1.2075949781892446e-47
220
-9.8607613152626476e-32
230
1
0
LWPOLYLINE
5
102
100
AcDbEntity
8
0
100
AcDbPolyline
90
65
70
1
43
0.0
10
-102.16286670362933
20
81.400000000000148
42
0.41421356237309503
10
-107.16286670362933
20
76.400000000000134
10
-107.16286670362932
20
64.400000000000091
10
-101.16286670362931
20
64.400000000000091
10
-101.16286670362931
20
66.400000000000105
10
-95.462866703629302
20
66.400000000000105
10
-95.462866703629302
20
62.750000000000114
10
-88.462866703629302
20
62.750000000000099
10
-88.462866703629302
20
64.150000000000105
10
-86.012866703629314
20
64.150000000000105
10
-86.012866703629314
20
62.750000000000099
10
-83.012866703629285
20
62.750000000000099
10
-83.012866703629285
20
60.050000000000104
10
-86.012866703629314
20
60.050000000000104
10
-86.012866703629314
20
58.650000000000098
10
-88.462866703629302
20
58.650000000000098
10
-88.462866703629302
20
60.050000000000104
10
-95.462866703629302
20
60.050000000000097
10
-95.462866703629302
20
56.400000000000105
10
-101.16286670362931
20
56.400000000000105
10
-101.16286670362931
20
58.400000000000098
10
-107.16286670362931
20
58.400000000000098
10
-107.16286670362931
20
-124.89999999999988
42
0.41421356237309609
10
-97.162866703629305
20
-134.89999999999992
10
137.49200099597149
20
-134.89999999999986
42
0.41421356237309553
10
147.49200099597149
20
-124.89999999999986
10
147.49200099597149
20
-63.599999999999866
10
144.31700099597148
20
-63.599999999999866
10
144.31700099597148
20
-52.449999999999847
10
137.31700099597148
20
-52.449999999999847
10
137.31700099597148
20
-53.849999999999845
10
134.86700099597149
20
-53.849999999999838
10
134.86700099597149
20
-52.449999999999847
10
131.86700099597149
20
-52.449999999999847
10
131.86700099597149
20
-49.749999999999886
10
134.86700099597149
20
-49.749999999999886
10
134.86700099597149
20
-48.349999999999902
10
137.31700099597148
20
-48.349999999999895
10
137.31700099597148
20
-49.749999999999886
10
144.31700099597148
20
-49.749999999999886
10
144.31700099597148
20
-38.599999999999866
10
147.49200099597149
20
-38.599999999999866
10
147.49200099597149
20
-18.599999999999866
10
144.31700099597148
20
-18.599999999999866
10
144.31700099597148
20
6.4000000000001345
10
147.49200099597149
20
6.4000000000001336
10
147.49200099597149
20
26.400000000000134
10
144.31700099597148
20
26.400000000000134
10
144.31700099597148
20
37.550000000000153
10
137.31700099597148
20
37.550000000000153
10
137.31700099597148
20
36.150000000000155
10
134.86700099597149
20
36.150000000000155
10
134.86700099597149
20
37.550000000000153
10
131.86700099597149
20
37.550000000000153
10
131.86700099597149
20
40.250000000000142
10
134.86700099597149
20
40.250000000000142
10
134.86700099597149
20
41.650000000000141
10
137.31700099597148
20
41.650000000000119
10
137.31700099597148
20
40.250000000000142
10
144.31700099597148
20
40.250000000000156
10
144.31700099597148
20
51.400000000000162
10
147.49200099597149
20
51.400000000000162
10
147.49200099597149
20
71.400000000000162
10
144.31700099597148
20
71.400000000000162
10
144.31700099597148
20
81.400000000000162
0
LWPOLYLINE
5
103
100
AcDbEntity
8
0
100
AcDbPolyline
90
4
70
1
43
0.0
10
-10.007999004028495
20
-54.899999999999878
10
-10.007999004028495
20
-50.399999999999885
10
-8.0079990040285018
20
-50.399999999999885
10
-8.0079990040285018
20
-54.899999999999878
0
LWPOLYLINE
5
104
100
AcDbEntity
8
0
100
AcDbPolyline
90
4
70
1
43
0.0
10
-17.007999004028495
20
-54.899999999999878
10
-17.007999004028495
20
-50.399999999999885
10
-15.007999004028502
20
-50.399999999999885
10
-15.007999004028502
20
-54.899999999999878
0
LWPOLYLINE
5
105
100
AcDbEntity
8
0
100
AcDbPolyline
90
4
70
1
43
0.0
10
-48.966810557335961
20
-44.899999999999906
10
-48.966810557335961
20
-39.199999999999903
10
-23.966810557335968
20
-39.199999999999889
10
-23.966810557335975
20
-44.899999999999892
0
LWPOLYLINE
5
106
100
AcDbEntity
8
0
100
AcDbPolyline
90
4
70
1
43
0.0
10
72.820944849678156
20
-44.899999999999885
10
72.82094484967817
20
-39.199999999999882
10
92.820944849678156
20
-39.199999999999875
10
92.820944849678142
20
-44.899999999999878
0
LWPOLYLINE
5
107
100
AcDbEntity
8
0
100
AcDbPolyline
90
4
70
1
43
0.0
10
-84.964181321531527
20
-44.899999999999906
10
-84.964181321531527
20
-39.199999999999903
10
-64.964181321531527
20
-39.199999999999889
10
-64.964181321531527
20
-44.899999999999892
0
LWPOLYLINE
5
108
100
AcDbEntity
8
0
100
AcDbPolyline
90
4
70
1
43
0.0
10
113.81831561387369
20
-44.899999999999878
10
113.81831561387369
20
-39.199999999999875
10
128.81831561387369
20
-39.199999999999868
10
128.81831561387369
20
-44.899999999999878
0
LWPOLYLINE
5
109
100
AcDbEntity
8
0
100
AcDbPolyline
90
4
70
1
43
0.0
10
137.49200099597149
20
-4.199999999999867
10
117.49200099597148
20
-4.1999999999998696
10
117.49200099597148
20
1.40000000000013
10
137.49200099597149
20
1.4000000000001325
0
LWPOLYLINE
5
110
100
AcDbEntity
8
0
100
AcDbPolyline
90
4
70
1
43
0.0
10
97.49200099597148
20
-4.1999999999998714
10
77.49200099597148
20
-4.1999999999998741
10
77.492000995971495
20
1.4000000000001256
10
97.492000995971495
20
1.4000000000001276
0
LWPOLYLINE
5
111
100
AcDbEntity
8
0
100
AcDbPolyline
90
4
70
1
43
0.0
10
57.492000995971495
20
-4.1999999999998767
10
37.492000995971495
20
-4.1999999999998794
10
37.492000995971495
20
1.40000000000012
10
57.492000995971495
20
1.4000000000001229
0
LWPOLYLINE
5
112
100
AcDbEntity
8
0
100
AcDbPolyline
90
4
70
1
43
0.0
10
17.492000995971495
20
-4.199999999999882
10
-2.5079990040285072
20
-4.1999999999998838
10
-2.5079990040285081
20
1.4000000000001156
10
17.492000995971495
20
1.4000000000001178
0
LWPOLYLINE
5
113
100
AcDbEntity
8
0
100
AcDbPolyline
90
4
70
1
43
0.0
10
-22.507999004028505
20
-4.1999999999998856
10
-42.507999004028505
20
-4.1999999999998883
10
-42.507999004028505
20
1.40000000000011
10
-22.507999004028505
20
1.4000000000001127
0
LWPOLYLINE
5
114
100
AcDbEntity
8
0
100
AcDbPolyline
90
4
70
1
43
0.0
10
-62.507999004028505
20
-4.1999999999998918
10
-97.162866703629305
20
-4.1999999999998963
10
-97.162866703629319
20
1.4000000000001034
10
-62.50799900402852
20
1.4000000000001078
0
LWPOLYLINE
5
115
100
AcDbEntity
8
0
100
AcDbPolyline
90
4
70
1
43
0.0
10
110.00000000000009
20
-49.596841612633504
10
110.00000000000009
20
-47.596841612633504
10
114.50000000000009
20
-47.596841612633504
10
114.50000000000009
20
-49.596841612633504
0
LWPOLYLINE
5
116
100
AcDbEntity
8
0
100
AcDbPolyline
90
4
70
1
43
0.0
10
110.00000000000009
20
-56.596841612633504
10
110.00000000000009
20
-54.596841612633504
10
114.50000000000009
20
-54.596841612633504
10
114.50000000000009
20
-56.596841612633504
0
ENDSEC
0
SECTION
2
OBJECTS
0
DICTIONARY
5
C
100
AcDbDictionary
3
ACAD_GROUP
350
D
3
ACAD_MLINESTYLE
350
17
0
DICTIONARY
5
D
100
AcDbDictionary
0
DICTIONARY
5
1A
330
C
100
AcDbDictionary
0
DICTIONARY
5
17
100
AcDbDictionary
0
ENDSEC
0
EOF
