<?xml version="1.0" encoding="utf-8"?>
<!-- Generator: Fusion 360, Shaper Origin Export Add-In, Version 1.9.0  -->
<svg xmlns="http://www.w3.org/2000/svg" xmlns:xlink="http://www.w3.org/1999/xlink" xmlns:shaper="http://www.shapertools.com/namespaces/shaper" shaper:fusionaddin="version:1.9.0" width="3.4822383cm" height="3.4822383cm" version="1.1" x="0cm" y="0cm" viewBox="0 0 3.4822383 3.4822383" enable-background="new 0 0 3.4822383 3.4822383" xml:space="preserve"><path d="M-0.4067041,-0.8125023 L-0.3792918,-0.6971561 A0.1,0.1 166.6315145 0,0 -0.2665344,-0.6214808 A1.19492,1.19492 261.1022902 0,1 -0.1748597,-0.6322245 A0.1,0.1 85.5292243 0,0 -0.0826548,-0.7319202 L-0.0826548,-0.850479 -0.0826548,-0.850479 -0.0819269,-0.8615131 -0.0800974,-0.8724777 -0.0752218,-0.8943438 -0.0690224,-0.9160953 -0.0615083,-0.9376966 -0.0529902,-0.9591521 -0.0434719,-0.9804416 -0.0330707,-1.0015585 -0.021821,-1.0224899 -0.0097746,-1.0432261 0.0030339,-1.0637563 0.0165729,-1.0840705 0.0308149,-1.1041587 0.0457359,-1.124011 0.0613142,-1.1436183 0.0775296,-1.1629706 0.0943646,-1.1820596 A1.75,1.75 275.7746963 0,1 0.2479068,-1.159617 L0.2479068,-1.159617 0.258574,-1.1365082 0.2685721,-1.1133245 0.2778868,-1.0900786 0.2865015,-1.0667862 0.2943981,-1.0434621 0.3015565,-1.0201227 0.3079531,-0.9967854 0.3135606,-0.9734689 0.3183487,-0.9501932 0.3222708,-0.9269828 0.3252975,-0.9038596 0.3273184,-0.8808637 0.3283355,-0.8580155 0.3280499,-0.8353995 0.3264631,-0.8130527 0.3250779,-0.8020232 0.3226172,-0.7912424 0.2886838,-0.6776435 A0.1,0.1 196.6315145 0,0 0.3484969,-0.555728 A1.19492,1.19492 291.1022902 0,1 0.4332614,-0.5191951 A0.1,0.1 115.5292243 0,0 0.562961,-0.5594316 L0.6222404,-0.6621065 0.6222404,-0.6621065 0.6283878,-0.6712984 0.6354545,-0.6798793 0.65061,-0.696378 0.6668546,-0.7121157 0.6841626,-0.7270659 0.7022672,-0.7413879 0.7211551,-0.755066 0.7407213,-0.7681531 0.7609295,-0.7806555 0.7817301,-0.7925903 0.8030876,-0.8039658 0.8249699,-0.8147888 0.8473479,-0.8250647 0.870196,-0.8347969 0.8934909,-0.8439881 0.91721,-0.85264 0.941334,-0.860754 A1.75,1.75 305.7746963 0,1 1.0630842,-0.7645471 L1.0630842,-0.7645471 1.0607678,-0.7392007 1.0578345,-0.7141239 1.0542784,-0.6893351 1.0500928,-0.6648559 1.0452694,-0.6407084 1.0397991,-0.6169166 1.0336699,-0.5935076 1.0268679,-0.5705112 1.0193767,-0.5479599 1.0111682,-0.5258979 1.0022278,-0.5043594 0.9924799,-0.4834339 0.9819367,-0.4631382 0.9703814,-0.443695 0.9578338,-0.4251355 0.9511194,-0.4162762 0.9435979,-0.4081701 0.8574113,-0.3267573 A0.1,0.1 226.6315145 0,0 0.8482533,-0.1912688 A1.19492,1.19492 321.1022902 0,1 0.9033949,-0.1172481 A0.1,0.1 145.5292243 0,0 1.0358364,-0.0872442 L1.1385114,-0.1465236 1.1385114,-0.1465236 1.1484311,-0.1514103 1.1588415,-0.1553081 1.1802158,-0.1620188 1.202153,-0.1675257 1.2246172,-0.171819 1.2474573,-0.1751699 1.2706537,-0.1775715 1.2941421,-0.1791222 1.3178941,-0.1798455 1.3418753,-0.179781 1.3660593,-0.1789537 1.3904214,-0.1773856 1.4149393,-0.1750958 1.4395924,-0.1721 1.464362,-0.1684124 1.4892292,-0.1640456 1.5141782,-0.1590106 A1.75,1.75 335.7746963 0,1 1.5715135,-0.0148178 L1.5715135,-0.0148178 1.5568343,0.0059746 1.5417556,0.0262251 1.5262815,0.0459148 1.5104171,0.0650215 1.4941661,0.0835222 1.4775328,0.1013913 1.4605203,0.1185996 1.4431314,0.1351141 1.4253682,0.1508985 1.4072284,0.1659004 1.3887165,0.1800832 1.3698118,0.1933312 1.3505333,0.2056362 1.3308045,0.2166969 1.3106582,0.2264961 1.3004137,0.2308112 1.2898469,0.2340706 1.1745007,0.2614829 A0.1,0.1 256.6315145 0,0 1.0988254,0.3742403 A1.19492,1.19492 351.1022902 0,1 1.1095691,0.4659149 A0.1,0.1 175.5292243 0,0 1.2092648,0.5581198 L1.3278236,0.5581198 1.3278236,0.5581198 1.3388577,0.5588477 1.3498223,0.5606772 1.3716884,0.5655528 1.3934399,0.5717522 1.4150412,0.5792663 1.4364967,0.5877844 1.4577862,0.5973027 1.4789031,0.6077039 1.4998346,0.6189536 1.5205707,0.6310001 1.5411009,0.6438085 1.5614151,0.6573476 1.5815033,0.6715895 1.6013556,0.6865105 1.6209629,0.7020888 1.6403152,0.7183042 1.6594042,0.7351392 A1.75,1.75 5.7746963 0,1 1.6369617,0.8886814 L1.6369617,0.8886814 1.6138528,0.8993486 1.5906691,0.9093467 1.5674233,0.9186614 1.5441308,0.9272761 1.5208067,0.9351727 1.4974673,0.9423312 1.47413,0.9487277 1.4508135,0.9543352 1.4275379,0.9591233 1.4043274,0.9630454 1.3812043,0.9660722 1.3582083,0.968093 1.3353601,0.9691101 1.3127441,0.9688245 1.2903973,0.9672378 1.2793678,0.9658525 1.268587,0.9633918 1.1549881,0.9294584 A0.1,0.1 286.6315145 0,0 1.0330726,0.9892716 A1.19492,1.19492 21.1022902 0,1 0.9965397,1.074036 A0.1,0.1 205.5292243 0,0 1.0367762,1.2037357 L1.1394511,1.263015 1.1394511,1.263015 1.148643,1.2691625 1.1572239,1.2762292 1.1737227,1.2913846 1.1894603,1.3076292 1.2044105,1.3249372 1.2187325,1.3430419 1.2324106,1.3619297 1.2454978,1.3814959 1.2580001,1.4017041 1.2699349,1.4225047 1.2813104,1.4438623 1.2921334,1.4657445 1.3024093,1.4881225 1.3121415,1.5109706 1.3213327,1.5342655 1.3299846,1.5579846 1.3380986,1.5821086 A1.75,1.75 35.7746963 0,1 1.2418917,1.7038588 L1.2418917,1.7038588 1.2165453,1.7015424 1.1914685,1.6986092 1.1666797,1.695053 1.1422006,1.6908674 1.118053,1.686044 1.0942612,1.6805737 1.0708523,1.6744446 1.0478558,1.6676425 1.0253045,1.6601514 1.0032426,1.6519428 0.981704,1.6430025 0.9607785,1.6332545 0.9404828,1.6227113 0.9210396,1.611156 0.9024801,1.5986084 0.8936208,1.591894 0.8855147,1.5843726 0.8041019,1.498186 A0.1,0.1 316.6315145 0,0 0.6686134,1.4890279 A1.19492,1.19492 51.1022902 0,1 0.5945928,1.5441696 A0.1,0.1 235.5292243 0,0 0.5645888,1.6766111 L0.6238682,1.779286 0.6238682,1.779286 0.6287549,1.7892057 0.6326528,1.7996161 0.6393634,1.8209905 0.6448703,1.8429276 0.6491636,1.8653918 0.6525145,1.8882319 0.6549161,1.9114283 0.6564668,1.9349167 0.6571901,1.9586687 0.6571256,1.98265 0.6562983,2.0068339 0.6547302,2.031196 0.6524404,2.0557139 0.6494446,2.080367 0.645757,2.1051366 0.6413902,2.1300038 0.6363552,2.1549529 A1.75,1.75 65.7746963 0,1 0.4921625,2.2122882 L0.4921625,2.2122882 0.47137,2.1976089 0.4511195,2.1825303 0.4314299,2.1670561 0.4123231,2.1511917 0.3938224,2.1349407 0.3759533,2.1183074 0.3587451,2.101295 0.3422306,2.083906 0.3264461,2.0661428 0.3114442,2.048003 0.2972614,2.0294911 0.2840134,2.0105865 0.2717084,1.9913079 0.2606477,1.9715791 0.2508485,1.9514328 0.2465334,1.9411883 0.2432741,1.9306215 0.2158618,1.8152753 A0.1,0.1 346.6315145 0,0 0.1031043,1.7396 A1.19492,1.19492 81.1022902 0,1 0.0114297,1.7503437 A0.1,0.1 265.5292243 0,0 -0.0807752,1.8500395 L-0.0807752,1.9685982 -0.0807752,1.9685982 -0.0815031,1.9796323 -0.0833326,1.9905969 -0.0882082,2.012463 -0.0944076,2.0342146 -0.1019217,2.0558158 -0.1104398,2.0772714 -0.1199581,2.0985609 -0.1303593,2.1196777 -0.141609,2.1406092 -0.1536554,2.1613453 -0.1664639,2.1818756 -0.1800029,2.2021897 -0.1942449,2.2222779 -0.2091659,2.2421302 -0.2247442,2.2617376 -0.2409596,2.2810898 -0.2577946,2.3001788 A1.75,1.75 95.7746963 0,1 -0.4113368,2.2777363 L-0.4113368,2.2777363 -0.422004,2.2546275 -0.4320021,2.2314437 -0.4413168,2.2081979 -0.4499315,2.1849055 -0.4578281,2.1615814 -0.4649866,2.138242 -0.4713831,2.1149046 -0.4769906,2.0915881 -0.4817787,2.0683125 -0.4857008,2.045102 -0.4887276,2.0219789 -0.4907484,1.9989829 -0.4917655,1.9761347 -0.4914799,1.9535188 -0.4898931,1.931172 -0.4885079,1.9201424 -0.4860472,1.9093616 -0.4521138,1.7957627 A0.1,0.1 16.6315145 0,0 -0.511927,1.6738473 A1.19492,1.19492 111.1022902 0,1 -0.5966914,1.6373143 A0.1,0.1 295.5292243 0,0 -0.7263911,1.6775509 L-0.7856704,1.7802258 -0.7856704,1.7802258 -0.7918178,1.7894176 -0.7988845,1.7979985 -0.81404,1.8144973 -0.8302846,1.830235 -0.8475926,1.8451851 -0.8656973,1.8595072 -0.8845851,1.8731853 -0.9041513,1.8862724 -0.9243595,1.8987747 -0.9451601,1.9107095 -0.9665176,1.922085 -0.9883999,1.932908 -1.0107779,1.943184 -1.033626,1.9529161 -1.0569209,1.9621074 -1.08064,1.9707592 -1.104764,1.9788733 A1.75,1.75 125.7746963 0,1 -1.2265142,1.8826664 L-1.2265142,1.8826664 -1.2241978,1.85732 -1.2212646,1.8322432 -1.2177084,1.8074544 -1.2135228,1.7829752 -1.2086994,1.7588276 -1.2032291,1.7350359 -1.1971,1.7116269 -1.1902979,1.6886304 -1.1828068,1.6660791 -1.1745982,1.6440172 -1.1656578,1.6224786 -1.1559099,1.6015531 -1.1453667,1.5812574 -1.1338114,1.5618142 -1.1212638,1.5432547 -1.1145494,1.5343955 -1.1070279,1.5262894 -1.0208414,1.4448765 A0.1,0.1 46.6315145 0,0 -1.0116833,1.3093881 A1.19492,1.19492 141.1022902 0,1 -1.066825,1.2353674 A0.1,0.1 325.5292243 0,0 -1.1992665,1.2053634 L-1.3019414,1.2646428 -1.3019414,1.2646428 -1.3118611,1.2695295 -1.3222715,1.2734274 -1.3436459,1.280138 -1.365583,1.285645 -1.3880472,1.2899382 -1.4108873,1.2932891 -1.4340837,1.2956908 -1.4575721,1.2972415 -1.4813241,1.2979647 -1.5053053,1.2979002 -1.5294893,1.2970729 -1.5538514,1.2955048 -1.5783693,1.293215 -1.6030224,1.2902192 -1.627792,1.2865317 -1.6526592,1.2821649 -1.6776082,1.2771298 A1.75,1.75 155.7746963 0,1 -1.7349436,1.1329371 L-1.7349436,1.1329371 -1.7202643,1.1121446 -1.7051856,1.0918941 -1.6897115,1.0722045 -1.6738471,1.0530977 -1.6575961,1.034597 -1.6409628,1.0167279 -1.6239503,0.9995197 -1.6065614,0.9830052 -1.5887982,0.9672207 -1.5706584,0.9522188 -1.5521465,0.9380361 -1.5332418,0.924788 -1.5139633,0.912483 -1.4942345,0.9014223 -1.4740882,0.8916232 -1.4638437,0.8873081 -1.4532769,0.8840487 -1.3379307,0.8566364 A0.1,0.1 76.6315145 0,0 -1.2622554,0.743879 A1.19492,1.19492 171.1022902 0,1 -1.2729991,0.6522043 A0.1,0.1 355.5292243 0,0 -1.3726949,0.5599994 L-1.4912536,0.5599994 -1.4912536,0.5599994 -1.5022877,0.5592715 -1.5132523,0.557442 -1.5351184,0.5525664 -1.5568699,0.546367 -1.5784712,0.5388529 -1.5999267,0.5303348 -1.6212162,0.5208165 -1.6423331,0.5104153 -1.6632646,0.4991656 -1.6840007,0.4871192 -1.7045309,0.4743108 -1.7248451,0.4607717 -1.7449333,0.4465297 -1.7647856,0.4316087 -1.784393,0.4160304 -1.8037452,0.399815 -1.8228342,0.38298 A1.75,1.75 185.7746963 0,1 -1.8003917,0.2294378 L-1.8003917,0.2294378 -1.7772829,0.2187706 -1.7540991,0.2087725 -1.7308533,0.1994578 -1.7075609,0.1908431 -1.6842368,0.1829465 -1.6608973,0.1757881 -1.63756,0.1693916 -1.6142435,0.1637841 -1.5909679,0.1589959 -1.5677574,0.1550738 -1.5446343,0.1520471 -1.5216383,0.1500263 -1.4987901,0.1490091 -1.4761741,0.1492947 -1.4538274,0.1508815 -1.4427978,0.1522667 -1.432017,0.1547274 -1.3184181,0.1886608 A0.1,0.1 106.6315145 0,0 -1.1965026,0.1288477 A1.19492,1.19492 201.1022902 0,1 -1.1599697,0.0440833 A0.1,0.1 25.5292243 0,0 -1.2002062,-0.0856164 L-1.3028812,-0.1448958 -1.3028812,-0.1448958 -1.312073,-0.1510432 -1.3206539,-0.1581099 -1.3371527,-0.1732653 -1.3528904,-0.18951 -1.3678405,-0.206818 -1.3821626,-0.2249226 -1.3958406,-0.2438105 -1.4089278,-0.2633767 -1.4214301,-0.2835849 -1.4333649,-0.3043855 -1.4447404,-0.325743 -1.4555634,-0.3476253 -1.4658394,-0.3700033 -1.4755715,-0.3928514 -1.4847628,-0.4161463 -1.4934146,-0.4398654 -1.5015286,-0.4639894 A1.75,1.75 215.7746963 0,1 -1.4053217,-0.5857396 L-1.4053217,-0.5857396 -1.3799754,-0.5834232 -1.3548986,-0.5804899 -1.3301098,-0.5769338 -1.3056306,-0.5727481 -1.281483,-0.5679248 -1.2576913,-0.5624544 -1.2342823,-0.5563253 -1.2112858,-0.5495233 -1.1887345,-0.5420321 -1.1666726,-0.5338236 -1.145134,-0.5248832 -1.1242085,-0.5151353 -1.1039128,-0.5045921 -1.0844696,-0.4930368 -1.0659101,-0.4804892 -1.0570509,-0.4737747 -1.0489448,-0.4662533 -0.9675319,-0.3800667 A0.1,0.1 136.6315145 0,0 -0.8320435,-0.3709087 A1.19492,1.19492 231.1022902 0,1 -0.7580228,-0.4260503 A0.1,0.1 55.5292243 0,0 -0.7280188,-0.5584918 L-0.7872982,-0.6611667 -0.7872982,-0.6611667 -0.7921849,-0.6710865 -0.7960828,-0.6814969 -0.8027934,-0.7028712 -0.8083003,-0.7248083 -0.8125936,-0.7472726 -0.8159445,-0.7701127 -0.8183461,-0.7933091 -0.8198968,-0.8167975 -0.8206201,-0.8405495 -0.8205556,-0.8645307 -0.8197283,-0.8887146 -0.8181602,-0.9130767 -0.8158704,-0.9375946 -0.8128746,-0.9622477 -0.8091871,-0.9870173 -0.8048202,-1.0118846 -0.7997852,-1.0368336 A1.75,1.75 245.7746963 0,1 -0.6555925,-1.0941689 L-0.6555925,-1.0941689 -0.6348,-1.0794897 -0.6145495,-1.064411 -0.5948599,-1.0489369 -0.5757531,-1.0330724 -0.5572524,-1.0168215 -0.5393833,-1.0001882 -0.5221751,-0.9831757 -0.5056606,-0.9657868 -0.4898761,-0.9480235 -0.4748742,-0.9298838 -0.4606914,-0.9113719 -0.4474434,-0.8924672 -0.4351384,-0.8731886 -0.4240777,-0.8534599 -0.4142785,-0.8333136 -0.4099634,-0.8230691 -0.4067041,-0.8125023z" transform="matrix(1,0,0,-1,1.8228342,2.3001788)" fill="rgb(0,0,0)" shaper:cutDepth="0.4cm" stroke-linecap="round" stroke-linejoin="round" /><path d="M0.6895847,0.6787396 a0.0475,0.0475 0 1,1 0.095,0 a0.0475,0.0475 0 1,1 -0.095,0z" transform="matrix(1,0,0,-1,1.8228342,2.3001788)" fill="rgb(255,255,255)" stroke="rgb(0,0,0)" stroke-width="0.0010cm" stroke-linecap="round" stroke-linejoin="round" shaper:cutDepth="0.4cm" /><path d="M-0.248895,1.3778593 a0.0475,0.0475 0 1,1 0.095,0 a0.0475,0.0475 0 1,1 -0.095,0z" transform="matrix(1,0,0,-1,1.8228342,2.3001788)" fill="rgb(255,255,255)" stroke="rgb(0,0,0)" stroke-width="0.0010cm" stroke-linecap="round" stroke-linejoin="round" shaper:cutDepth="0.4cm" /><path d="M-0.0095351,-0.2597401 a0.0475,0.0475 0 1,1 0.095,0 a0.0475,0.0475 0 1,1 -0.095,0z" transform="matrix(1,0,0,-1,1.8228342,2.3001788)" fill="rgb(255,255,255)" stroke="rgb(0,0,0)" stroke-width="0.0010cm" stroke-linecap="round" stroke-linejoin="round" shaper:cutDepth="0.4cm" /><path d="M-0.9480147,0.4393797 a0.0475,0.0475 0 1,1 0.095,0 a0.0475,0.0475 0 1,1 -0.095,0z" transform="matrix(1,0,0,-1,1.8228342,2.3001788)" fill="rgb(255,255,255)" stroke="rgb(0,0,0)" stroke-width="0.0010cm" stroke-linecap="round" stroke-linejoin="round" shaper:cutDepth="0.4cm" /><path d="M-0.431715,0.5590596 a0.35,0.35 0 1,1 0.7,0 a0.35,0.35 0 1,1 -0.7,0z" transform="matrix(1,0,0,-1,1.8228342,2.3001788)" fill="rgb(255,255,255)" stroke="rgb(0,0,0)" stroke-width="0.0010cm" stroke-linecap="round" stroke-linejoin="round" shaper:cutDepth="0.4cm" /></svg>