0
SECTION
2
HEADER
9
$INSUNITS
70
4
9
$ACADVER
1
AC1014
9
$HANDSEED
5
FFFF
0
ENDSEC
0
SECTION
2
TABLES
0
TABLE
2
VPORT
5
8
100
AcDbSymbolTable
0
ENDTAB
0
TABLE
2
LTYPE
5
5
100
AcDbSymbolTable
0
LTYPE
5
14
100
AcDbSymbolTableRecord
100
AcDbLinetypeTableRecord
2
BYBLOCK
70
0
0
LTYPE
5
15
100
AcDbSymbolTableRecord
100
AcDbLinetypeTableRecord
2
BYLAYER
70
0
0
ENDTAB
0
TABLE
2
LAYER
5
2
100
AcDbSymbolTable
70
2
0
LAYER
5
50
100
AcDbSymbolTableRecord
100
AcDbLayerTableRecord
2
0
70
0
6
CONTINUOUS
0
ENDTAB
0
TABLE
2
STYLE
5
3
100
AcDbSymbolTable
70
1
0
STYLE
5
11
100
AcDbSymbolTableRecord
100
AcDbTextStyleTableRecord
2
STANDARD
70
0
0
ENDTAB
0
TABLE
2
VIEW
5
6
100
AcDbSymbolTable
70
0
0
ENDTAB
0
TABLE
2
UCS
5
7
100
AcDbSymbolTable
70
0
0
ENDTAB
0
TABLE
2
APPID
5
9
100
AcDbSymbolTable
70
2
0
APPID
5
12
100
AcDbSymbolTableRecord
100
AcDbRegAppTableRecord
2
ACAD
70
0
0
ENDTAB
0
TABLE
2
DIMSTYLE
5
A
100
AcDbSymbolTable
70
1
0
ENDTAB
0
TABLE
2
BLOCK_RECORD
5
1
100
AcDbSymbolTable
70
1
0
BLOCK_RECORD
5
1F
100
AcDbSymbolTableRecord
100
AcDbBlockTableRecord
2
*MODEL_SPACE
0
BLOCK_RECORD
5
1B
100
AcDbSymbolTableRecord
100
AcDbBlockTableRecord
2
*PAPER_SPACE
0
ENDTAB
0
ENDSEC
0
SECTION
2
BLOCKS
0
BLOCK
5
20
100
AcDbEntity
100
AcDbBlockBegin
2
*MODEL_SPACE
0
ENDBLK
5
21
100
AcDbEntity
100
AcDbBlockEnd
0
BLOCK
5
1C
100
AcDbEntity
100
AcDbBlockBegin
2
*PAPER_SPACE
0
ENDBLK
5
1D
100
AcDbEntity
100
AcDbBlockEnd
0
ENDSEC
0
SECTION
2
ENTITIES
0
CIRCLE
5
100
100
AcDbEntity
8
0
100
AcDbCircle
10
-11.519949333312629
20
109.99303621254212
30
0
40
0.47499999999999987
210
-7.3145348382423374e-32
220
8.2486876074842743e-32
230
1
0
CIRCLE
5
101
100
AcDbEntity
8
0
100
AcDbCircle
10
-17.3712579476313
20
99.858272401776716
30
0
40
0.47499999999999964
210
4.7623820106421748e-32
220
1.2760764138000764e-32
230
1
0
CIRCLE
5
102
100
AcDbEntity
8
0
100
AcDbCircle
10
-1.3851855225472458
20
104.14172759822344
30
0
40
0.47499999999999964
210
4.7623820106421748e-32
220
1.2760764138000764e-32
230
1
0
CIRCLE
5
103
100
AcDbEntity
8
0
100
AcDbCircle
10
-7.2364941368659172
20
94.006963787458048
30
-2.2204460492503131e-15
40
0.47499999999999987
210
-7.3145348382423374e-32
220
8.2486876074842743e-32
230
1
0
CIRCLE
5
104
100
AcDbEntity
8
0
100
AcDbCircle
10
-9.3782217350892729
20
102.00000000000009
30
0
40
3.4999999999999987
210
-2.5521528276001593e-32
220
9.5247640212843507e-32
230
1
0
ARC
5
105
100
AcDbEntity
8
0
100
AcDbCircle
10
-9.3782217350892729
20
102.00000000000009
30
0
40
11.94919999999998
210
2.228362248781023e-32
220
9.7819946735449322e-32
230
1
100
AcDbArc
50
-2.2134670711054567
51
2.2134670711054349
0
ARC
5
106
100
AcDbEntity
8
0
100
AcDbCircle
10
3.5613164259452432
20
102.50013280149476
30
-2.2204460492503131e-15
40
1.000000000000004
210
1.2242168431720118e-32
220
1.434711128257996e-33
230
1
100
AcDbArc
50
96.684242755074848
51
182.21346707110544
0
LINE
5
107
100
AcDbEntity
8
0
100
AcDbLine
10
3.4449188308802574
20
103.49333549977095
30
-2.2204460492503131e-15
11
4.6224477410645646
21
103.63133505766868
31
3.0814879110195774e-32
0
SPLINE
5
108
100
AcDbEntity
8
0
100
AcDbSpline
70
4
71
5
72
81
73
75
74
0
42
0.000000001
43
0.0000000001
44
0.0000000001
40
0
40
0
40
0
40
0
40
0
40
0
40
0.014285714285714285
40
0.028571428571428571
40
0.042857142857142858
40
0.057142857142857141
40
0.071428571428571425
40
0.085714285714285715
40
0.10000000000000001
40
0.1142857142857143
40
0.12857142857142859
40
0.14285714285714288
40
0.15714285714285717
40
0.17142857142857146
40
0.18571428571428575
40
0.20000000000000004
40
0.21428571428571433
40
0.22857142857142862
40
0.24285714285714291
40
0.25714285714285717
40
0.27142857142857146
40
0.28571428571428575
40
0.30000000000000004
40
0.31428571428571433
40
0.32857142857142863
40
0.34285714285714292
40
0.35714285714285721
40
0.3714285714285715
40
0.38571428571428579
40
0.40000000000000008
40
0.41428571428571437
40
0.42857142857142866
40
0.44285714285714295
40
0.45714285714285724
40
0.47142857142857153
40
0.48571428571428582
40
0.50000000000000011
40
0.51428571428571435
40
0.52857142857142858
40
0.54285714285714282
40
0.55714285714285705
40
0.57142857142857129
40
0.58571428571428552
40
0.59999999999999976
40
0.61428571428571399
40
0.62857142857142823
40
0.64285714285714246
40
0.6571428571428567
40
0.67142857142857093
40
0.68571428571428517
40
0.6999999999999994
40
0.71428571428571364
40
0.72857142857142787
40
0.74285714285714211
40
0.75714285714285634
40
0.77142857142857058
40
0.78571428571428481
40
0.79999999999999905
40
0.81428571428571328
40
0.82857142857142752
40
0.84285714285714175
40
0.85714285714285599
40
0.87142857142857022
40
0.88571428571428445
40
0.89999999999999869
40
0.91428571428571292
40
0.92857142857142716
40
0.94285714285714139
40
0.95714285714285563
40
0.97142857142856986
40
0.9857142857142841
40
1
40
1
40
1
40
1
40
1
40
1
41
1
41
1
41
1
41
1
41
1
41
1
41
1
41
1
41
1
41
1
41
1
41
1
41
1
41
1
41
1
41
1
41
1
41
1
41
1
41
1
41
1
41
1
41
1
41
1
41
1
41
1
41
1
41
1
41
1
41
1
41
1
41
1
41
1
41
1
41
1
41
1
41
1
41
1
41
1
41
1
41
1
41
1
41
1
41
1
41
1
41
1
41
1
41
1
41
1
41
1
41
1
41
1
41
1
41
1
41
1
41
1
41
1
41
1
41
1
41
1
41
1
41
1
41
1
41
1
41
1
41
1
41
1
41
1
41
1
41
1
41
1
41
1
41
1
41
1
41
1
10
4.6224477410645655
20
103.63133505766868
30
0
10
4.6325112791219043
20
103.63251444595443
30
0
10
4.6525797982927459
20
103.63518892252836
30
0
10
4.6825069092476186
20
103.64014772250977
30
0
10
4.7220768485525646
20
103.64855991958555
30
0
10
4.7710908636919731
20
103.66153319794924
30
0
10
4.8197903478320283
20
103.67627661725527
30
0
10
4.8683053420574804
20
103.69211354951103
30
0
10
4.9167276027005071
20
103.70855032762107
30
0
10
4.9650849497411018
20
103.72540476286596
30
0
10
5.0133638476849809
20
103.74269777344088
30
0
10
5.0615266043060938
20
103.76057154309856
30
0
10
5.1095295918000936
20
103.77920242395015
30
0
10
5.1573434313307152
20
103.79870477344201
30
0
10
5.2049645472059778
20
103.81907541934409
30
0
10
5.2524044624706381
20
103.84024317121384
30
0
10
5.2996832038565209
20
103.86209890357073
30
0
10
5.3468216426736506
20
103.88453074410651
30
0
10
5.3938329618224747
20
103.90746319627873
30
0
10
5.4407192294128812
20
103.93087280193667
30
0
10
5.487476068054745
20
103.95476653627766
30
0
10
5.5340954749837525
20
103.97916871792872
30
0
10
5.5805691200869081
20
104.0041057238703
30
0
10
5.6268920853279036
20
104.0295886615398
30
0
10
5.6730638946398715
20
104.05560856161954
30
0
10
5.7190865663906898
20
104.08214532663719
30
0
10
5.7649634272161299
20
104.10917316298681
30
0
10
5.810697733685906
20
104.13666690374245
30
0
10
5.8562910923099238
20
104.16460925964012
30
0
10
5.901743175664067
20
104.19299210230997
30
0
10
5.9470525375044048
20
104.22181268676079
30
0
10
5.9922171311774841
20
104.25107124160861
30
0
10
6.0372349002998549
20
104.28076822847217
30
0
10
6.0821044630648569
20
104.31090116969443
30
0
10
6.126825202942447
20
104.3414642191071
30
0
10
6.1713969303628673
20
104.37244971509705
30
0
10
6.215819665190482
20
104.40384917790988
30
0
10
6.2600933914001908
20
104.43565443567054
30
0
10
6.3042177735169949
20
104.46785893142791
30
0
10
6.3481921247804616
20
104.50045785736333
30
0
10
6.3920155485900079
20
104.53344748302463
30
0
10
6.4356870322778894
20
104.56682470688759
30
0
10
6.4792055526392831
20
104.60058655622753
30
0
10
6.5225701995066601
20
104.63472960116653
30
0
10
6.5657801943562708
20
104.66924987374524
30
0
10
6.6088348326188626
20
104.70414315271215
30
0
10
6.651733448694098
20
104.73940514416482
30
0
10
6.6944753755313959
20
104.77503168459953
30
0
10
6.7370599009679131
20
104.81101897531617
30
0
10
6.7794862550781261
20
104.84736361741172
30
0
10
6.821753625133895
20
104.88406247636533
30
0
10
6.8638611635875479
20
104.92111258935432
30
0
10
6.9058080000105075
20
104.95851106231628
30
0
10
6.9475932525692619
20
104.9962549453157
30
0
10
6.9892160403818071
20
105.03434120608085
30
0
10
7.030675494858631
20
105.0727668109989
30
0
10
7.0719707739061626
20
105.11152877773705
30
0
10
7.1131010729974538
20
105.15062423082588
30
0
10
7.1540656465483572
20
105.19005046852934
30
0
10
7.1948637991436897
20
105.22980497002911
30
0
10
7.2354948324044503
20
105.26988531087527
30
0
10
7.2759580008723628
20
105.31028909484607
30
0
10
7.316252470954363
20
105.35101388446199
30
0
10
7.3563772665253193
20
105.39205711150503
30
0
10
7.3963312637152558
20
105.43341605202185
30
0
10
7.4361133099390306
20
105.47508797149365
30
0
10
7.4757223222068312
20
105.51707023669893
30
0
10
7.5151573905990414
20
105.55936043580081
30
0
10
7.5544178912913651
20
105.60195649949492
30
0
10
7.5935035666427559
20
105.64485680019006
30
0
10
7.6324143997184297
20
105.6880601161499
30
0
10
7.6634032917212664
20
105.72286451175158
30
0
10
7.6865664083084813
20
105.74910357276235
30
0
10
7.7019735854730591
20
105.76665659976975
30
0
10
7.709668448913634
20
105.77544819318936
30
0
0
ARC
5
109
100
AcDbEntity
8
0
100
AcDbCircle
10
-9.3782217350892729
20
102.00000000000009
30
0
40
17.499999999999972
210
0
220
-0
230
1
100
AcDbArc
50
12.458939030631569
51
17.541060969368463
0
SPLINE
5
110
100
AcDbEntity
8
0
100
AcDbSpline
70
4
71
5
72
81
73
75
74
0
42
0.000000001
43
0.0000000001
44
0.0000000001
40
-1
40
-1
40
-1
40
-1
40
-1
40
-1
40
-0.9857142857142841
40
-0.97142857142856986
40
-0.95714285714285563
40
-0.94285714285714139
40
-0.92857142857142716
40
-0.91428571428571292
40
-0.89999999999999869
40
-0.88571428571428445
40
-0.87142857142857022
40
-0.85714285714285599
40
-0.84285714285714175
40
-0.82857142857142752
40
-0.81428571428571328
40
-0.79999999999999905
40
-0.78571428571428481
40
-0.77142857142857058
40
-0.75714285714285634
40
-0.74285714285714211
40
-0.72857142857142787
40
-0.71428571428571364
40
-0.6999999999999994
40
-0.68571428571428517
40
-0.67142857142857093
40
-0.6571428571428567
40
-0.64285714285714246
40
-0.62857142857142823
40
-0.61428571428571399
40
-0.59999999999999976
40
-0.58571428571428552
40
-0.57142857142857129
40
-0.55714285714285705
40
-0.54285714285714282
40
-0.52857142857142858
40
-0.51428571428571435
40
-0.50000000000000011
40
-0.48571428571428582
40
-0.47142857142857153
40
-0.45714285714285724
40
-0.44285714285714295
40
-0.42857142857142866
40
-0.41428571428571437
40
-0.40000000000000008
40
-0.38571428571428579
40
-0.3714285714285715
40
-0.35714285714285721
40
-0.34285714285714292
40
-0.32857142857142863
40
-0.31428571428571433
40
-0.30000000000000004
40
-0.28571428571428575
40
-0.27142857142857146
40
-0.25714285714285717
40
-0.24285714285714291
40
-0.22857142857142862
40
-0.21428571428571433
40
-0.20000000000000004
40
-0.18571428571428575
40
-0.17142857142857146
40
-0.15714285714285717
40
-0.14285714285714288
40
-0.12857142857142859
40
-0.1142857142857143
40
-0.10000000000000001
40
-0.085714285714285715
40
-0.071428571428571425
40
-0.057142857142857141
40
-0.042857142857142858
40
-0.028571428571428571
40
-0.014285714285714285
40
0
40
0
40
0
40
0
40
0
40
0
41
1
41
1
41
1
41
1
41
1
41
1
41
1
41
1
41
1
41
1
41
1
41
1
41
1
41
1
41
1
41
1
41
1
41
1
41
1
41
1
41
1
41
1
41
1
41
1
41
1
41
1
41
1
41
1
41
1
41
1
41
1
41
1
41
1
41
1
41
1
41
1
41
1
41
1
41
1
41
1
41
1
41
1
41
1
41
1
41
1
41
1
41
1
41
1
41
1
41
1
41
1
41
1
41
1
41
1
41
1
41
1
41
1
41
1
41
1
41
1
41
1
41
1
41
1
41
1
41
1
41
1
41
1
41
1
41
1
41
1
41
1
41
1
41
1
41
1
41
1
10
7.3080493579306243
20
107.27431104602759
30
0
10
7.2969896140026229
20
107.27807735754843
30
0
10
7.2748700936737869
20
107.28557513626788
30
0
10
7.2416907157730588
20
107.29671727138104
30
0
10
7.1974513502626287
20
107.31136431613406
30
0
10
7.1421519223567547
20
107.32932406874517
30
0
10
7.0868525842308117
20
107.34693398130145
30
0
10
7.0315539614189078
20
107.36419300421561
30
0
10
6.9762570908403436
20
107.38109985677282
30
2.2204460492503131e-15
10
6.9209635473949778
20
107.39765305881511
30
2.2204460492503131e-15
10
6.865675325014764
20
107.41385097659025
30
2.2204460492503131e-15
10
6.8103946782071345
20
107.42969187115646
30
2.2204460492503131e-15
10
6.7551239723995025
20
107.44517395064356
30
2.2204460492503131e-15
10
6.6998655428685074
20
107.46029541797371
30
2.2204460492503131e-15
10
6.6446215190722793
20
107.47505453706749
30
2.2204460492503131e-15
10
6.5893938416633659
20
107.48944961380224
30
2.2204460492503131e-15
10
6.5341843543384561
20
107.50347894571816
30
2.2204460492503131e-15
10
6.4789948741364514
20
107.51714078236952
30
2.2204460492503131e-15
10
6.4238272637137275
20
107.53043328837128
30
2.2204460492503131e-15
10
6.3686835196331151
20
107.5433544967434
30
2.2204460492503131e-15
10
6.313565776370119
20
107.55590231951979
30
2.2204460492503131e-15
10
6.2584762543655446
20
107.56807459497131
30
2.2204460492503131e-15
10
6.2034172226464159
20
107.57986913020689
30
2.2204460492503131e-15
10
6.1483909602147584
20
107.59128373964322
30
2.2204460492503131e-15
10
6.0933997057285687
20
107.60231630947794
30
2.2204460492503131e-15
10
6.0384456600323055
20
107.6129647685938
30
0
10
5.9835310385351352
20
107.62322697488487
30
0
10
5.9286581123406812
20
107.63310062014062
30
0
10
5.8738292476755323
20
107.64258314578738
30
0
10
5.8190469606408541
20
107.65167161813579
30
0
10
5.7643139106712411
20
107.66036276501117
30
0
10
5.70963282114473
20
107.66865320058508
30
0
10
5.6550064128619386
20
107.67653962143113
30
0
10
5.6004373440238853
20
107.68401898045758
30
0
10
5.5459281177977502
20
107.69108876238676
30
0
10
5.4914811066672167
20
107.697746904366
30
0
10
5.4370987383904188
20
107.70399122673042
30
0
10
5.3827836546722798
20
107.70981894711399
30
0
10
5.3285388541741483
20
107.71522624520375
30
0
10
5.2743679059014328
20
107.72020761025105
30
0
10
5.2202749096698211
20
107.724755973217
30
0
10
5.1662640881534569
20
107.72886398048671
30
0
10
5.1123394363311334
20
107.73252509169342
30
0
10
5.0585044112176778
20
107.73573455217195
30
0
10
5.0047614483212763
20
107.73849090711164
30
0
10
4.9511120977128851
20
107.74079558447775
30
0
10
4.8975580175383406
20
107.74264980558441
30
0
10
4.8441018327772492
20
107.74405191632135
30
0
10
4.7907478911721375
20
107.74499504102594
30
0
10
4.7375034460766114
20
107.74546340350133
30
0
10
4.6843782606815427
20
107.74543358026547
30
0
10
4.6313823508388259
20
107.74488157008244
30
0
10
4.5785240173267452
20
107.74378895884679
30
0
10
4.5258081570901521
20
107.74214821693496
30
0
10
4.473233475554748
20
107.73997142268803
30
0
10
4.4207939983197448
20
107.73728558429768
30
0
10
4.3684844966688496
20
107.73411576369482
30
0
10
4.3163052739344465
20
107.73047019027261
30
0
10
4.2642662681561809
20
107.72632751462167
30
0
10
4.2123938108786039
20
107.72161576336812
30
0
10
4.1607257631711541
20
107.716227616596
30
0
10
4.1092993441155805
20
107.71005855550106
30
0
10
4.0581401696836599
20
107.70304116582919
30
0
10
4.0072529226305118
20
107.69517448819455
30
0
10
3.956605867051489
20
107.68657224846893
30
0
10
3.9061486096779232
20
107.67740898596278
30
0
10
3.8558427010586991
20
107.667826681531
30
0
10
3.8056894041781488
20
107.65785021860916
30
0
10
3.7557557205865697
20
107.64730790714793
30
0
10
3.706209020517071
20
107.63572634073556
30
0
10
3.6572749990830209
20
107.6224545217992
30
0
10
3.6188003278808392
20
107.60995472851599
30
0
10
3.5904032895413431
20
107.59928561979473
30
0
10
3.5716862038360899
20
107.59156752486417
30
0
10
3.5623812300836102
20
107.58755713605188
30
0
0
LINE
5
111
100
AcDbEntity
8
0
100
AcDbLine
10
3.5623812300836102
20
107.58755713605188
30
0
11
2.473611501224529
21
107.11830380381019
31
3.0814879110195774e-32
0
ARC
5
112
100
AcDbEntity
8
0
100
AcDbCircle
10
2.0778134263521326
20
108.03664136915708
30
2.2204460492503131e-15
40
0.99999999999999822
210
-4.5968770029883827e-32
220
8.7237225733041718e-32
230
1
100
AcDbArc
50
207.78653292889413
51
293.31575724492558
0
ARC
5
113
100
AcDbEntity
8
0
100
AcDbCircle
10
-9.3782217350892729
20
102.00000000000009
30
0
40
11.949199999999983
210
-1.6439658609118711e-16
220
-8.6627111261534877e-17
230
1
100
AcDbArc
50
27.786532928894534
51
32.213467071105597
0
ARC
5
114
100
AcDbEntity
8
0
100
AcDbCircle
10
1.5776806248574626
20
108.90289679187761
30
0
40
0.99999999999999756
210
-1.9369950819596244e-32
220
1.0853170836128489e-31
230
1
100
AcDbArc
50
126.68424275507476
51
212.21346707110433
0
LINE
5
115
100
AcDbEntity
8
0
100
AcDbLine
10
0.98027600145368055
20
109.70483676215954
30
-9.8607613152626399e-32
11
1.9310461724150296
21
110.41311234010216
31
-6.1629758220391547e-32
0
SPLINE
5
116
100
AcDbEntity
8
0
100
AcDbSpline
70
4
71
5
72
81
73
75
74
0
42
0.000000001
43
0.0000000001
44
0.0000000001
40
0
40
0
40
0
40
0
40
0
40
0
40
0.014285714285714285
40
0.028571428571428571
40
0.042857142857142858
40
0.057142857142857141
40
0.071428571428571425
40
0.085714285714285715
40
0.10000000000000001
40
0.1142857142857143
40
0.12857142857142859
40
0.14285714285714288
40
0.15714285714285717
40
0.17142857142857146
40
0.18571428571428575
40
0.20000000000000004
40
0.21428571428571433
40
0.22857142857142862
40
0.24285714285714291
40
0.25714285714285717
40
0.27142857142857146
40
0.28571428571428575
40
0.30000000000000004
40
0.31428571428571433
40
0.32857142857142863
40
0.34285714285714292
40
0.35714285714285721
40
0.3714285714285715
40
0.38571428571428579
40
0.40000000000000008
40
0.41428571428571437
40
0.42857142857142866
40
0.44285714285714295
40
0.45714285714285724
40
0.47142857142857153
40
0.48571428571428582
40
0.50000000000000011
40
0.51428571428571435
40
0.52857142857142858
40
0.54285714285714282
40
0.55714285714285705
40
0.57142857142857129
40
0.58571428571428552
40
0.59999999999999976
40
0.61428571428571399
40
0.62857142857142823
40
0.64285714285714246
40
0.6571428571428567
40
0.67142857142857093
40
0.68571428571428517
40
0.6999999999999994
40
0.71428571428571364
40
0.72857142857142787
40
0.74285714285714211
40
0.75714285714285634
40
0.77142857142857058
40
0.78571428571428481
40
0.79999999999999905
40
0.81428571428571328
40
0.82857142857142752
40
0.84285714285714175
40
0.85714285714285599
40
0.87142857142857022
40
0.88571428571428445
40
0.89999999999999869
40
0.91428571428571292
40
0.92857142857142716
40
0.94285714285714139
40
0.95714285714285563
40
0.97142857142856986
40
0.9857142857142841
40
1
40
1
40
1
40
1
40
1
40
1
41
1
41
1
41
1
41
1
41
1
41
1
41
1
41
1
41
1
41
1
41
1
41
1
41
1
41
1
41
1
41
1
41
1
41
1
41
1
41
1
41
1
41
1
41
1
41
1
41
1
41
1
41
1
41
1
41
1
41
1
41
1
41
1
41
1
41
1
41
1
41
1
41
1
41
1
41
1
41
1
41
1
41
1
41
1
41
1
41
1
41
1
41
1
41
1
41
1
41
1
41
1
41
1
41
1
41
1
41
1
41
1
41
1
41
1
41
1
41
1
41
1
41
1
41
1
41
1
41
1
41
1
41
1
41
1
41
1
41
1
41
1
41
1
41
1
41
1
41
1
10
1.9310461724150294
20
110.41311234010217
30
0
10
1.9391717578817633
20
110.41916548934722
30
0
10
1.9552143670130782
20
110.43151591358749
30
0
10
1.9786526053711737
20
110.4507739158211
30
0
10
2.0087150794975734
20
110.47784406184286
30
0
10
2.0446758225679269
20
110.51358625804588
30
0
10
2.0794791033314026
20
110.55070417577356
30
0
10
2.1135758546672196
20
110.58867685853781
30
0
10
2.1472923734377316
20
110.62712265625899
30
0
10
2.1807438468120557
20
110.66589769886781
30
0
10
2.2139080936107161
20
110.70501333430551
30
0
10
2.2466813795320442
20
110.74457385120104
30
0
10
2.2789377457335949
20
110.78471016106039
30
0
10
2.3105945706736533
20
110.82550661091913
30
0
10
2.341650343827161
20
110.86695866569946
30
0
10
2.3721506396648619
20
110.909010434192
30
0
10
2.402167364585547
20
110.95157742432433
30
0
10
2.4317745298280244
20
110.99457318749052
30
0
10
2.461021300390219
20
111.03793893321713
30
0
10
2.4899211963831789
20
111.08165538020469
30
0
10
2.5184669392771846
20
111.1257263804562
30
0
10
2.546639439161547
20
111.17016899313826
30
0
10
2.5744182934565445
20
111.2150018963296
30
0
10
2.6017936892991216
20
111.26023225033494
30
0
10
2.628769699062115
20
111.30585204946391
30
0
10
2.6553581194395286
20
111.35184489797885
30
0
10
2.6815747281854279
20
111.39819012127967
30
0
10
2.7074349290348936
20
111.44486755245401
30
0
10
2.7329487578983107
20
111.49186302181499
30
0
10
2.7581199954029993
20
111.5391693262758
30
0
10
2.7829487615605912
20
111.58678336548226
30
2.2204460492503131e-15
10
2.8074331696091681
20
111.63470431409502
30
2.2204460492503131e-15
10
2.8315712078590649
20
111.68293154369591
30
2.2204460492503131e-15
10
2.8553629184591234
20
111.73146221766763
30
2.2204460492503131e-15
10
2.8788106905628186
20
111.78029096481494
30
0
10
2.9019181908044889
20
111.82941105520128
30
0
10
2.9246896762643582
20
111.87881515507621
30
0
10
2.9471292190018361
20
111.9284961793757
30
0
10
2.9692398069625914
20
111.97844828187607
30
0
10
2.9910232493039968
20
112.02866695550392
30
0
10
3.012480634773218
20
112.07914852129272
30
0
10
3.0336126371364069
20
112.12988978690979
30
0
10
3.0544198566345115
20
112.18088766629764
30
0
10
3.0749032199783
20
112.23213873401106
30
0
10
3.0950640369261069
20
112.28363916443458
30
0
10
3.1149038079288012
20
112.33538494957257
30
0
10
3.1344241035108196
20
112.38737203799622
30
0
10
3.1536264277412625
20
112.43959649048028
30
0
10
3.1725120632190613
20
112.49205466117252
30
0
10
3.1910820426206961
20
112.54474322157384
30
0
10
3.20933722936334
20
112.59765905074543
30
0
10
3.2272783708605308
20
112.65079915903382
30
0
10
3.2449061603302227
20
112.70416060489312
30
0
10
3.2622213090499548
20
112.75774039268742
30
0
10
3.2792245702893692
20
112.81153545595149
30
0
10
3.2959167086343184
20
112.86554273320471
30
0
10
3.3122984859767675
20
112.91975922062437
30
0
10
3.3283706433106648
20
112.97418202571743
30
0
10
3.3441338858092169
20
113.0288084359197
30
0
10
3.3595888716343709
20
113.08363592043094
30
0
10
3.3747362081971106
20
113.13866203042645
30
0
10
3.3895764480225274
20
113.19388431798815
30
0
10
3.4041100879376227
20
113.24930025540029
30
0
10
3.4183375667022045
20
113.30490713045835
30
0
10
3.432259272993007
20
113.36070202221448
30
0
10
3.4458755759014261
20
113.4166819862134
30
0
10
3.4591868541415085
20
113.4728442005235
30
0
10
3.4721935256182022
20
113.52918612147293
30
0
10
3.4848960847359969
20
113.58570564507941
30
0
10
3.4972951221668049
20
113.64240123298708
30
0
10
3.5093912341128339
20
113.69927181867388
30
0
10
3.5188262040215799
20
113.74490775542972
30
0
10
3.5257665209115476
20
113.7792130071301
30
0
10
3.5303330142329727
20
113.80211796301411
30
0
10
3.5326011647413571
20
113.81357913797552
30
0
0
ARC
5
117
100
AcDbEntity
8
0
100
AcDbCircle
10
-9.3782217350892729
20
102.00000000000009
30
0
40
17.499999999999989
210
7.5750933311742479e-47
220
-8.2786670581562111e-47
230
1
100
AcDbArc
50
42.458939030631598
51
47.541060969368594
0
SPLINE
5
118
100
AcDbEntity
8
0
100
AcDbSpline
70
4
71
5
72
81
73
75
74
0
42
0.000000001
43
0.0000000001
44
0.0000000001
40
-1
40
-1
40
-1
40
-1
40
-1
40
-1
40
-0.9857142857142841
40
-0.97142857142856986
40
-0.95714285714285563
40
-0.94285714285714139
40
-0.92857142857142716
40
-0.91428571428571292
40
-0.89999999999999869
40
-0.88571428571428445
40
-0.87142857142857022
40
-0.85714285714285599
40
-0.84285714285714175
40
-0.82857142857142752
40
-0.81428571428571328
40
-0.79999999999999905
40
-0.78571428571428481
40
-0.77142857142857058
40
-0.75714285714285634
40
-0.74285714285714211
40
-0.72857142857142787
40
-0.71428571428571364
40
-0.6999999999999994
40
-0.68571428571428517
40
-0.67142857142857093
40
-0.6571428571428567
40
-0.64285714285714246
40
-0.62857142857142823
40
-0.61428571428571399
40
-0.59999999999999976
40
-0.58571428571428552
40
-0.57142857142857129
40
-0.55714285714285705
40
-0.54285714285714282
40
-0.52857142857142858
40
-0.51428571428571435
40
-0.50000000000000011
40
-0.48571428571428582
40
-0.47142857142857153
40
-0.45714285714285724
40
-0.44285714285714295
40
-0.42857142857142866
40
-0.41428571428571437
40
-0.40000000000000008
40
-0.38571428571428579
40
-0.3714285714285715
40
-0.35714285714285721
40
-0.34285714285714292
40
-0.32857142857142863
40
-0.31428571428571433
40
-0.30000000000000004
40
-0.28571428571428575
40
-0.27142857142857146
40
-0.25714285714285717
40
-0.24285714285714291
40
-0.22857142857142862
40
-0.21428571428571433
40
-0.20000000000000004
40
-0.18571428571428575
40
-0.17142857142857146
40
-0.15714285714285717
40
-0.14285714285714288
40
-0.12857142857142859
40
-0.1142857142857143
40
-0.10000000000000001
40
-0.085714285714285715
40
-0.071428571428571425
40
-0.057142857142857141
40
-0.042857142857142858
40
-0.028571428571428571
40
-0.014285714285714285
40
0
40
0
40
0
40
0
40
0
40
0
41
1
41
1
41
1
41
1
41
1
41
1
41
1
41
1
41
1
41
1
41
1
41
1
41
1
41
1
41
1
41
1
41
1
41
1
41
1
41
1
41
1
41
1
41
1
41
1
41
1
41
1
41
1
41
1
41
1
41
1
41
1
41
1
41
1
41
1
41
1
41
1
41
1
41
1
41
1
41
1
41
1
41
1
41
1
41
1
41
1
41
1
41
1
41
1
41
1
41
1
41
1
41
1
41
1
41
1
41
1
41
1
41
1
41
1
41
1
41
1
41
1
41
1
41
1
41
1
41
1
41
1
41
1
41
1
41
1
41
1
41
1
41
1
41
1
41
1
41
1
10
2.4353574028861411
20
114.91082289983075
30
0
10
2.4238962279247254
20
114.90855474932238
30
0
10
2.4009912720407032
20
114.90398825600094
30
0
10
2.3666860203403308
20
114.89704793911096
30
0
10
2.3210500835844874
20
114.88761296920222
30
0
10
2.264179497897695
20
114.87551685725619
30
0
10
2.2074839099900281
20
114.86311781982538
30
0
10
2.1509643863835417
20
114.85041526070759
30
0
10
2.0946224654341168
20
114.8374085892309
30
0
10
2.038460251124032
20
114.82409731099081
30
0
10
1.9824802871251077
20
114.81048100808239
30
0
10
1.9266853953689587
20
114.79655930179158
30
0
10
1.8710785203109044
20
114.78233182302701
30
0
10
1.815662582898758
20
114.76779818311192
30
0
10
1.7604402953370577
20
114.7529579432865
30
0
10
1.7054141853415536
20
114.73781060672374
30
0
10
1.6505867008303166
20
114.72235562089861
30
0
10
1.595960290628029
20
114.70659237840005
30
0
10
1.5415374855349986
20
114.69052022106615
30
0
10
1.4873209981153315
20
114.67413844372372
30
0
10
1.4333137208621063
20
114.65744630537876
30
0
10
1.3795186575980471
20
114.64044304413933
30
0
10
1.3259388698037271
20
114.6231278954196
30
0
10
1.2725774239444392
20
114.60550010594991
30
0
10
1.2194373156560565
20
114.58755896445274
30
0
10
1.1665214864844384
20
114.56930377771008
30
0
10
1.1138329260831414
20
114.55073379830844
30
0
10
1.0613747553908817
20
114.53184816283064
30
0
10
1.0091503029068263
20
114.51264583860022
30
0
10
0.95716321448317565
20
114.49312554301818
30
0
10
0.90541742934519132
20
114.47328577201549
30
0
10
0.85391699892166573
20
114.45312495506768
30
0
10
0.80266593120824559
20
114.43264159172388
30
0
10
0.75166805182041052
20
114.41183437222578
30
0
10
0.70092678620335691
20
114.39070236986259
30
0
10
0.65044522041454789
20
114.36924498439338
30
0
10
0.60022654678667708
20
114.34746154205199
30
0
10
0.55027444428631145
20
114.32535095409122
30
0
10
0.50059341998682316
20
114.30291141135376
30
0
10
0.45118932011190205
20
114.28013992589386
30
0
10
0.40206922972554343
20
114.25703242565221
30
0
10
0.35324048257825869
20
114.2335846535485
30
0
10
0.30470980860652924
20
114.20979294294845
30
0
10
0.25648257900565369
20
114.18565490469854
30
0
10
0.20856163039287415
20
114.16117049664999
30
0
10
0.16094759118640031
20
114.13634173049238
30
0
10
0.11364128672561688
20
114.11117049298768
30
0
10
0.066645817364636095
20
114.08565666412427
30
0
10
0.019968386190296082
20
114.05979646327482
30
0
10
-0.026376837110528194
20
114.03357985452891
30
0
10
-0.072369685625487776
20
114.00699143415152
30
0
10
-0.11798948475444301
20
113.9800154243885
30
0
10
-0.16321983875978632
20
113.95264002854594
30
0
10
-0.20805274195111262
20
113.92486117425094
30
0
10
-0.25249535463317885
20
113.89668867436656
30
0
10
-0.29656635488469202
20
113.86814293147255
30
0
10
-0.34028280187224585
20
113.8392430354796
30
0
10
-0.38364854759886258
20
113.80999626491742
30
0
10
-0.42664431076505943
20
113.78038909967493
30
0
10
-0.46921130089738278
20
113.75037237475425
30
0
10
-0.5112630693899175
20
113.71987207891655
30
0
10
-0.55271512417023616
20
113.68881630576304
30
0
10
-0.59351157402898269
20
113.65715948082298
30
0
10
-0.6336478838883457
20
113.62490311462142
30
0
10
-0.67320840078386057
20
113.59212982870011
30
0
10
-0.71232403622157792
20
113.55896558190145
30
0
10
-0.75109907883039972
20
113.5255141085271
30
0
10
-0.78954487655157235
20
113.4917975897566
30
0
10
-0.82751755931580251
20
113.45770083842078
30
0
10
-0.86463547704349497
20
113.42289755765732
30
0
10
-0.90037767324652629
20
113.38693681458695
30
0
10
-0.92744781926826769
20
113.35687434046056
30
0
10
-0.94670582150188309
20
113.33343610210248
30
0
10
-0.95905624574215809
20
113.31739349297115
30
0
10
-0.96510939498720916
20
113.30926790750441
30
0
0
LINE
5
119
100
AcDbEntity
8
0
100
AcDbLine
10
-0.96510939498720905
20
113.30926790750439
30
0
11
-1.6733849729298211
21
112.35849773654306
31
1.2325951644078309e-31
0
ARC
5
120
100
AcDbEntity
8
0
100
AcDbCircle
10
-2.4753249432117492
20
112.95590235994686
30
0
40
1.0000000000000036
210
0
220
0
230
1
100
AcDbArc
50
237.78653292889513
51
323.31575724492399
0
ARC
5
121
100
AcDbEntity
8
0
100
AcDbCircle
10
-9.3782217350892729
20
102.00000000000009
30
0
40
11.949200000000012
210
9.7255728212821109e-47
220
-6.1277130099875918e-47
230
1
100
AcDbArc
50
57.786532928894552
51
62.213467071105569
0
ARC
5
122
100
AcDbEntity
8
0
100
AcDbCircle
10
-3.3415803659322778
20
113.45603516144151
30
0
40
0.99999999999999845
210
6.1667472300384937e-32
220
8.0797899523860819e-32
230
1
100
AcDbArc
50
156.6842427550755
51
242.21346707110521
0
LINE
5
123
100
AcDbEntity
8
0
100
AcDbLine
10
-4.2599179312791948
20
113.85183323631389
30
2.465190328815657e-32
11
-3.7906645990374965
21
114.94060296517299
31
-1.2325951644078309e-31
0
SPLINE
5
124
100
AcDbEntity
8
0
100
AcDbSpline
70
4
71
5
72
81
73
75
74
0
42
0.000000001
43
0.0000000001
44
0.0000000001
40
0
40
0
40
0
40
0
40
0
40
0
40
0.014285714285714285
40
0.028571428571428571
40
0.042857142857142858
40
0.057142857142857141
40
0.071428571428571425
40
0.085714285714285715
40
0.10000000000000001
40
0.1142857142857143
40
0.12857142857142859
40
0.14285714285714288
40
0.15714285714285717
40
0.17142857142857146
40
0.18571428571428575
40
0.20000000000000004
40
0.21428571428571433
40
0.22857142857142862
40
0.24285714285714291
40
0.25714285714285717
40
0.27142857142857146
40
0.28571428571428575
40
0.30000000000000004
40
0.31428571428571433
40
0.32857142857142863
40
0.34285714285714292
40
0.35714285714285721
40
0.3714285714285715
40
0.38571428571428579
40
0.40000000000000008
40
0.41428571428571437
40
0.42857142857142866
40
0.44285714285714295
40
0.45714285714285724
40
0.47142857142857153
40
0.48571428571428582
40
0.50000000000000011
40
0.51428571428571435
40
0.52857142857142858
40
0.54285714285714282
40
0.55714285714285705
40
0.57142857142857129
40
0.58571428571428552
40
0.59999999999999976
40
0.61428571428571399
40
0.62857142857142823
40
0.64285714285714246
40
0.6571428571428567
40
0.67142857142857093
40
0.68571428571428517
40
0.6999999999999994
40
0.71428571428571364
40
0.72857142857142787
40
0.74285714285714211
40
0.75714285714285634
40
0.77142857142857058
40
0.78571428571428481
40
0.79999999999999905
40
0.81428571428571328
40
0.82857142857142752
40
0.84285714285714175
40
0.85714285714285599
40
0.87142857142857022
40
0.88571428571428445
40
0.89999999999999869
40
0.91428571428571292
40
0.92857142857142716
40
0.94285714285714139
40
0.95714285714285563
40
0.97142857142856986
40
0.9857142857142841
40
1
40
1
40
1
40
1
40
1
40
1
41
1
41
1
41
1
41
1
41
1
41
1
41
1
41
1
41
1
41
1
41
1
41
1
41
1
41
1
41
1
41
1
41
1
41
1
41
1
41
1
41
1
41
1
41
1
41
1
41
1
41
1
41
1
41
1
41
1
41
1
41
1
41
1
41
1
41
1
41
1
41
1
41
1
41
1
41
1
41
1
41
1
41
1
41
1
41
1
41
1
41
1
41
1
41
1
41
1
41
1
41
1
41
1
41
1
41
1
41
1
41
1
41
1
41
1
41
1
41
1
41
1
41
1
41
1
41
1
41
1
41
1
41
1
41
1
41
1
41
1
41
1
41
1
41
1
41
1
41
1
10
-3.7906645990374965
20
114.94060296517299
30
0
10
-3.786654210225211
20
114.94990793892548
30
0
10
-3.7789361152946443
20
114.96862502463073
30
0
10
-3.7682670065733892
20
114.99702206297022
30
0
10
-3.7557672132901843
20
115.03549673417241
30
0
10
-3.7424953943538082
20
115.08443075560646
30
0
10
-3.7309138279414404
20
115.13397745567596
30
0
10
-3.7203715164802169
20
115.18391113926754
30
0
10
-3.7103950535583681
20
115.23406443614809
30
0
10
-3.7008127491265936
20
115.28437034476731
30
0
10
-3.6916494866204359
20
115.33482760214086
30
0
10
-3.6830472468948288
20
115.3854746577199
30
0
10
-3.6751805692601947
20
115.43636190477307
30
0
10
-3.6681631795883241
20
115.48752107920498
30
0
10
-3.6619941184933777
20
115.53894749826055
30
0
10
-3.656605971721254
20
115.59061554596801
30
0
10
-3.651894220467693
20
115.64248800324557
30
0
10
-3.6477515448167619
20
115.69452700902383
30
0
10
-3.6441059713945547
20
115.74670623175825
30
0
10
-3.6409361507917004
20
115.79901573340914
30
2.2204460492503131e-15
10
-3.6382503124013521
20
115.85145521064413
30
2.2204460492503131e-15
10
-3.6360735181544124
20
115.90402989217955
30
2.2204460492503131e-15
10
-3.6344327762425799
20
115.95674575241614
30
2.2204460492503131e-15
10
-3.6333401650069264
20
116.0096040859282
30
2.2204460492503131e-15
10
-3.6327881548239151
20
116.06259999577092
30
2.2204460492503131e-15
10
-3.6327583315880552
20
116.11572518116601
30
2.2204460492503131e-15
10
-3.6332266940634419
20
116.16896962626151
30
2.2204460492503131e-15
10
-3.6341698187680049
20
116.22232356786662
30
2.2204460492503131e-15
10
-3.635571929504966
20
116.27577975262773
30
2.2204460492503131e-15
10
-3.637426150611609
20
116.32933383280226
30
2.2204460492503131e-15
10
-3.6397308279777416
20
116.38298318341066
30
2.2204460492503131e-15
10
-3.6424871829174421
20
116.43672614630708
30
2.2204460492503131e-15
10
-3.6456966433959503
20
116.49056117142051
30
2.2204460492503131e-15
10
-3.6493577546026734
20
116.54448582324285
30
2.2204460492503131e-15
10
-3.6534657618723698
20
116.59849664475922
30
2.2204460492503131e-15
10
-3.6580141248383113
20
116.65258964099083
30
2.2204460492503131e-15
10
-3.6629954898856143
20
116.70676058926354
30
2.2204460492503131e-15
10
-3.6684027879753933
20
116.76100538976166
30
2.2204460492503131e-15
10
-3.6742305083589577
20
116.8153204734798
30
2.2204460492503131e-15
10
-3.680474830723361
20
116.86970284175659
30
2.2204460492503131e-15
10
-3.6871329727026221
20
116.92414985288714
30
2.2204460492503131e-15
10
-3.6942027546317941
20
116.97865907911327
30
2.2204460492503131e-15
10
-3.7016821136582374
20
117.03322814795132
30
2.2204460492503131e-15
10
-3.7095685345042768
20
117.08785455623412
30
2.2204460492503131e-15
10
-3.7178589700781934
20
117.14253564576063
30
2.2204460492503131e-15
10
-3.7265501169535846
20
117.19726869573024
30
2.2204460492503131e-15
10
-3.7356385893020034
20
117.25205098276491
30
0
10
-3.7451211149487613
20
117.30687984743008
30
0
10
-3.754994760204502
20
117.36175277362454
30
0
10
-3.7652569664955848
20
117.41666739512171
30
0
10
-3.7759054256114344
20
117.47162144081797
30
0
10
-3.7869379954461646
20
117.52661269530415
30
0
10
-3.7983526048824934
20
117.58163895773579
30
0
10
-3.8101471401180618
20
117.63669798945494
30
0
10
-3.8223194155695728
20
117.69178751145951
30
0
10
-3.8348672383459759
20
117.74690525472251
30
0
10
-3.8477884467181092
20
117.80204899880312
30
0
10
-3.8610809527198486
20
117.85721660922584
30
0
10
-3.8747427893712292
20
117.91240608942785
30
0
10
-3.8887721212871398
20
117.96761557675276
30
0
10
-3.9031671980218863
20
118.02284325416167
30
0
10
-3.9179263171156675
20
118.07808727795789
30
0
10
-3.9330477844458143
20
118.1333457074889
30
0
10
-3.9485298639329103
20
118.18861641329653
30
0
10
-3.9643707584991228
20
118.24389706010416
30
0
10
-3.9805686762742716
20
118.29918528248436
30
0
10
-3.9971218783165625
20
118.35447882592975
30
0
10
-4.0140287308737772
20
118.40977569650831
30
0
10
-4.031287753787935
20
118.46507431932019
30
0
10
-4.0488976663442173
20
118.52037365744614
30
0
10
-4.0668574189553288
20
118.57567308535201
30
0
10
-4.0815044637083355
20
118.61991245086246
30
0
10
-4.0926465988214957
20
118.65309182876318
30
0
10
-4.1001443775409401
20
118.67521134909202
30
0
10
-4.1039106890617818
20
118.68627109302003
30
0
0
ARC
5
125
100
AcDbEntity
8
0
100
AcDbCircle
10
-9.3782217350892729
20
102.00000000000009
30
0
40
17.500000000000014
210
7.0516858495729828e-32
220
-2.2289452425998701e-32
230
1
100
AcDbArc
50
72.458939030631583
51
77.54106096936853
0
SPLINE
5
126
100
AcDbEntity
8
0
100
AcDbSpline
70
4
71
5
72
81
73
75
74
0
42
0.000000001
43
0.0000000001
44
0.0000000001
40
-1
40
-1
40
-1
40
-1
40
-1
40
-1
40
-0.9857142857142841
40
-0.97142857142856986
40
-0.95714285714285563
40
-0.94285714285714139
40
-0.92857142857142716
40
-0.91428571428571292
40
-0.89999999999999869
40
-0.88571428571428445
40
-0.87142857142857022
40
-0.85714285714285599
40
-0.84285714285714175
40
-0.82857142857142752
40
-0.81428571428571328
40
-0.79999999999999905
40
-0.78571428571428481
40
-0.77142857142857058
40
-0.75714285714285634
40
-0.74285714285714211
40
-0.72857142857142787
40
-0.71428571428571364
40
-0.6999999999999994
40
-0.68571428571428517
40
-0.67142857142857093
40
-0.6571428571428567
40
-0.64285714285714246
40
-0.62857142857142823
40
-0.61428571428571399
40
-0.59999999999999976
40
-0.58571428571428552
40
-0.57142857142857129
40
-0.55714285714285705
40
-0.54285714285714282
40
-0.52857142857142858
40
-0.51428571428571435
40
-0.50000000000000011
40
-0.48571428571428582
40
-0.47142857142857153
40
-0.45714285714285724
40
-0.44285714285714295
40
-0.42857142857142866
40
-0.41428571428571437
40
-0.40000000000000008
40
-0.38571428571428579
40
-0.3714285714285715
40
-0.35714285714285721
40
-0.34285714285714292
40
-0.32857142857142863
40
-0.31428571428571433
40
-0.30000000000000004
40
-0.28571428571428575
40
-0.27142857142857146
40
-0.25714285714285717
40
-0.24285714285714291
40
-0.22857142857142862
40
-0.21428571428571433
40
-0.20000000000000004
40
-0.18571428571428575
40
-0.17142857142857146
40
-0.15714285714285717
40
-0.14285714285714288
40
-0.12857142857142859
40
-0.1142857142857143
40
-0.10000000000000001
40
-0.085714285714285715
40
-0.071428571428571425
40
-0.057142857142857141
40
-0.042857142857142858
40
-0.028571428571428571
40
-0.014285714285714285
40
0
40
0
40
0
40
0
40
0
40
0
41
1
41
1
41
1
41
1
41
1
41
1
41
1
41
1
41
1
41
1
41
1
41
1
41
1
41
1
41
1
41
1
41
1
41
1
41
1
41
1
41
1
41
1
41
1
41
1
41
1
41
1
41
1
41
1
41
1
41
1
41
1
41
1
41
1
41
1
41
1
41
1
41
1
41
1
41
1
41
1
41
1
41
1
41
1
41
1
41
1
41
1
41
1
41
1
41
1
41
1
41
1
41
1
41
1
41
1
41
1
41
1
41
1
41
1
41
1
41
1
41
1
41
1
41
1
41
1
41
1
41
1
41
1
41
1
41
1
41
1
41
1
41
1
41
1
41
1
41
1
10
-5.6027735419000084
20
119.08789018400304
30
0
10
-5.6115651353196228
20
119.08019532056245
30
0
10
-5.6291181623270328
20
119.06478814339786
30
0
10
-5.6553572233377913
20
119.04162502681066
30
0
10
-5.6901616189394773
20
119.01063613480781
30
0
10
-5.7333649348993232
20
118.97172530173214
30
0
10
-5.7762652355944564
20
118.93263962638075
30
0
10
-5.8188612992885709
20
118.89337912568843
30
0
10
-5.8611514983904378
20
118.85394405729622
30
0
10
-5.9031337635957186
20
118.81433504502843
30
0
10
-5.9448056830675169
20
118.77455299880465
30
0
10
-5.986164623584342
20
118.73459900161473
30
0
10
-6.0272078506273941
20
118.69447420604375
30
0
10
-6.0679326402432938
20
118.65417973596175
30
0
10
-6.1083364242141061
20
118.61371656749384
30
0
10
-6.1484167650602783
20
118.57308553423307
30
0
10
-6.1881712665600306
20
118.53228738163776
30
0
10
-6.2275975042634855
20
118.49132280808684
30
0
10
-6.2666929573523111
20
118.45019250899556
30
0
10
-6.305454924090478
20
118.40889722994802
30
0
10
-6.3438805290085245
20
118.36743777547119
30
0
10
-6.3819667897736823
20
118.32581498765865
30
0
10
-6.4197106727730802
20
118.28402973509989
30
0
10
-6.4571091457350462
20
118.24208289867693
30
0
10
-6.4941592587240438
20
118.19997536022329
30
0
10
-6.5308581176776617
20
118.15770799016752
30
0
10
-6.5672027597732008
20
118.1152816360573
30
0
10
-6.6031900504898546
20
118.07269711062078
30
0
10
-6.6388165909245611
20
118.0299551837835
30
0
10
-6.67407858237722
20
117.98705656770827
30
0
10
-6.7089718613441383
20
117.94400192944566
30
0
10
-6.7434921339228415
20
117.90079193459606
30
0
10
-6.7776351788618445
20
117.85742728772868
30
0
10
-6.8113970282017924
20
117.81390876736728
30
0
10
-6.8447742520647399
20
117.77023728367939
30
0
10
-6.8777638777260535
20
117.72641385986985
30
0
10
-6.9103628036614451
20
117.68243950860638
30
0
10
-6.9425672994188332
20
117.63831512648957
30
0
10
-6.9743725571794819
20
117.59404140027988
30
0
10
-7.005772019992329
20
117.54961866545224
30
0
10
-7.0367575159822717
20
117.50504693803185
30
0
10
-7.067320565394942
20
117.46032619815425
30
0
10
-7.0974535066172075
20
117.41545663538923
30
0
10
-7.1271504934807623
20
117.37043886626688
30
0
10
-7.1564090483285909
20
117.32527427259379
30
0
10
-7.1852296327793841
20
117.27996491075346
30
0
10
-7.2136124754492421
20
117.23451282739931
30
0
10
-7.2415548313469174
20
117.18891946877528
30
0
10
-7.2690485721025606
20
117.14318516230551
30
0
10
-7.2960764084521887
20
117.0973083014801
30
0
10
-7.3226131734698452
20
117.05128562972925
30
0
10
-7.3486330735495686
20
117.00511382041731
30
0
10
-7.3741160112190691
20
116.9587908551763
30
0
10
-7.399053017160667
20
116.91231721007314
30
0
10
-7.423455198811709
20
116.86569780314413
30
0
10
-7.4473489331527052
20
116.81894096450227
30
0
10
-7.4707585388106459
20
116.77205469691187
30
0
10
-7.4936909909828522
20
116.72504337776304
30
0
10
-7.5161228315186417
20
116.67790493894591
30
0
10
-7.5379785638755319
20
116.63062619756003
30
0
10
-7.559146315745279
20
116.58318628229536
30
0
10
-7.579516961647343
20
116.53556516642011
30
0
10
-7.5990193111392079
20
116.48775132688948
30
0
10
-7.6176501919908057
20
116.43974833939549
30
0
10
-7.6355239616485022
20
116.39158558277437
30
0
10
-7.6528169722234036
20
116.34330668483048
30
0
10
-7.6696714074683046
20
116.29494933778989
30
0
10
-7.6861081855783455
20
116.24652707714687
30
0
10
-7.7019451178341072
20
116.19801208292144
30
0
10
-7.716688537140131
20
116.14931259878135
30
0
10
-7.7296618155038246
20
116.10029858364194
30
0
10
-7.7380740125796086
20
116.060728644337
30
0
10
-7.7430328125610099
20
116.03080153338213
30
0
10
-7.7457072891349457
20
116.0107330142113
30
0
10
-7.746886677420691
20
116.00066947615394
30
0
0
LINE
5
127
100
AcDbEntity
8
0
100
AcDbLine
10
-7.7468866774206919
20
116.00066947615392
30
0
11
-7.8848862353184241
21
114.82314056596964
31
1.2325951644078309e-31
0
ARC
5
128
100
AcDbEntity
8
0
100
AcDbCircle
10
-8.8780889335946007
20
114.93953816103462
30
0
40
0.99999999999999967
210
-1.7016529184025491e-32
220
1.980201998708465e-31
230
1
100
AcDbArc
50
267.78653292889442
51
353.31575724492529
0
ARC
5
129
100
AcDbEntity
8
0
100
AcDbCircle
10
-9.3782217350892729
20
102.00000000000009
30
0
40
11.949199999999996
210
2.0916874057352899e-32
220
-1.7325263812042392e-32
230
1
100
AcDbArc
50
87.786532928894488
51
92.213467071105569
0
ARC
5
130
100
AcDbEntity
8
0
100
AcDbCircle
10
-9.8783545365839416
20
114.93953816103463
30
0
40
0.99999999999999811
210
-3.5197546483848946e-32
220
1.9443998377926689e-31
230
1
100
AcDbArc
50
186.68424275507545
51
272.21346707110467
0
LINE
5
131
100
AcDbEntity
8
0
100
AcDbLine
10
-10.87155723486012
20
114.82314056596964
30
-1.2325951644077274e-32
11
-11.009556792757857
21
116.00066947615394
31
-1.2325951644078309e-31
0
SPLINE
5
132
100
AcDbEntity
8
0
100
AcDbSpline
70
4
71
5
72
81
73
75
74
0
42
0.000000001
43
0.0000000001
44
0.0000000001
40
0
40
0
40
0
40
0
40
0
40
0
40
0.014285714285714285
40
0.028571428571428571
40
0.042857142857142858
40
0.057142857142857141
40
0.071428571428571425
40
0.085714285714285715
40
0.10000000000000001
40
0.1142857142857143
40
0.12857142857142859
40
0.14285714285714288
40
0.15714285714285717
40
0.17142857142857146
40
0.18571428571428575
40
0.20000000000000004
40
0.21428571428571433
40
0.22857142857142862
40
0.24285714285714291
40
0.25714285714285717
40
0.27142857142857146
40
0.28571428571428575
40
0.30000000000000004
40
0.31428571428571433
40
0.32857142857142863
40
0.34285714285714292
40
0.35714285714285721
40
0.3714285714285715
40
0.38571428571428579
40
0.40000000000000008
40
0.41428571428571437
40
0.42857142857142866
40
0.44285714285714295
40
0.45714285714285724
40
0.47142857142857153
40
0.48571428571428582
40
0.50000000000000011
40
0.51428571428571435
40
0.52857142857142858
40
0.54285714285714282
40
0.55714285714285705
40
0.57142857142857129
40
0.58571428571428552
40
0.59999999999999976
40
0.61428571428571399
40
0.62857142857142823
40
0.64285714285714246
40
0.6571428571428567
40
0.67142857142857093
40
0.68571428571428517
40
0.6999999999999994
40
0.71428571428571364
40
0.72857142857142787
40
0.74285714285714211
40
0.75714285714285634
40
0.77142857142857058
40
0.78571428571428481
40
0.79999999999999905
40
0.81428571428571328
40
0.82857142857142752
40
0.84285714285714175
40
0.85714285714285599
40
0.87142857142857022
40
0.88571428571428445
40
0.89999999999999869
40
0.91428571428571292
40
0.92857142857142716
40
0.94285714285714139
40
0.95714285714285563
40
0.97142857142856986
40
0.9857142857142841
40
1
40
1
40
1
40
1
40
1
40
1
41
1
41
1
41
1
41
1
41
1
41
1
41
1
41
1
41
1
41
1
41
1
41
1
41
1
41
1
41
1
41
1
41
1
41
1
41
1
41
1
41
1
41
1
41
1
41
1
41
1
41
1
41
1
41
1
41
1
41
1
41
1
41
1
41
1
41
1
41
1
41
1
41
1
41
1
41
1
41
1
41
1
41
1
41
1
41
1
41
1
41
1
41
1
41
1
41
1
41
1
41
1
41
1
41
1
41
1
41
1
41
1
41
1
41
1
41
1
41
1
41
1
41
1
41
1
41
1
41
1
41
1
41
1
41
1
41
1
41
1
41
1
41
1
41
1
41
1
41
1
10
-11.009556792757857
20
116.00066947615394
30
2.2204460492503131e-15
10
-11.010736181043605
20
116.0107330142113
30
2.2204460492503131e-15
10
-11.013410657617538
20
116.03080153338213
30
2.2204460492503131e-15
10
-11.01836945759894
20
116.060728644337
30
2.2204460492503131e-15
10
-11.026781654674725
20
116.10029858364194
30
0
10
-11.039754933038417
20
116.14931259878135
30
0
10
-11.054498352344444
20
116.19801208292142
30
0
10
-11.070335284600205
20
116.24652707714687
30
0
10
-11.086772062710244
20
116.29494933778989
30
0
10
-11.103626497955144
20
116.34330668483051
30
0
10
-11.120919508530047
20
116.39158558277437
30
0
10
-11.138793278187745
20
116.43974833939549
30
0
10
-11.157424159039341
20
116.48775132688948
30
0
10
-11.176926508531203
20
116.53556516642011
30
0
10
-11.19729715443327
20
116.58318628229536
30
0
10
-11.218464906303016
20
116.63062619756003
30
0
10
-11.240320638659906
20
116.67790493894591
30
0
10
-11.262752479195694
20
116.72504337776304
30
0
10
-11.2856849313679
20
116.77205469691187
30
0
10
-11.309094537025839
20
116.81894096450227
30
0
10
-11.332988271366837
20
116.86569780314413
30
0
10
-11.35739045301788
20
116.91231721007314
30
0
10
-11.382327458959479
20
116.9587908551763
30
0
10
-11.407810396628982
20
117.00511382041731
30
0
10
-11.433830296708702
20
117.05128562972925
30
0
10
-11.460367061726359
20
117.09730830148007
30
0
10
-11.487394898075987
20
117.14318516230551
30
0
10
-11.51488863883163
20
117.18891946877528
30
0
10
-11.542830994729306
20
117.23451282739931
30
0
10
-11.571213837399164
20
117.27996491075346
30
0
10
-11.600034421849957
20
117.32527427259379
30
0
10
-11.629292976697785
20
117.37043886626688
30
0
10
-11.658989963561341
20
117.41545663538923
30
0
10
-11.689122904783606
20
117.46032619815425
30
0
10
-11.719685954196278
20
117.50504693803185
30
0
10
-11.750671450186218
20
117.54961866545224
30
0
10
-11.782070912999066
20
117.59404140027988
30
0
10
-11.813876170759714
20
117.63831512648957
30
0
10
-11.846080666517103
20
117.68243950860638
30
0
10
-11.878679592452494
20
117.72641385986985
30
0
10
-11.911669218113808
20
117.77023728367939
30
0
10
-11.945046441976757
20
117.81390876736728
30
0
10
-11.978808291316703
20
117.85742728772868
30
0
10
-12.012951336255707
20
117.90079193459606
30
0
10
-12.047471608834408
20
117.94400192944566
30
0
10
-12.082364887801329
20
117.98705656770827
30
0
10
-12.117626879253988
20
118.0299551837835
30
0
10
-12.153253419688694
20
118.07269711062078
30
0
10
-12.189240710405349
20
118.1152816360573
30
0
10
-12.225585352500888
20
118.15770799016752
30
0
10
-12.262284211454507
20
118.19997536022329
30
0
10
-12.299334324443503
20
118.24208289867693
30
0
10
-12.336732797405469
20
118.28402973509989
30
0
10
-12.374476680404864
20
118.32581498765865
30
0
10
-12.412562941170023
20
118.3674377754712
30
0
10
-12.45098854608807
20
118.40889722994802
30
0
10
-12.489750512826237
20
118.45019250899556
30
0
10
-12.52884596591506
20
118.49132280808684
30
0
10
-12.568272203618516
20
118.53228738163776
30
0
10
-12.60802670511827
20
118.57308553423307
30
0
10
-12.648107045964441
20
118.61371656749384
30
0
10
-12.688510829935254
20
118.65417973596175
30
0
10
-12.729235619551154
20
118.69447420604375
30
0
10
-12.770278846594206
20
118.73459900161473
30
0
10
-12.811637787111032
20
118.77455299880465
30
0
10
-12.853309706582829
20
118.81433504502843
30
0
10
-12.89529197178811
20
118.85394405729622
30
0
10
-12.937582170889979
20
118.89337912568843
30
-2.2204460492503131e-15
10
-12.980178234584089
20
118.93263962638075
30
-2.2204460492503131e-15
10
-13.023078535279225
20
118.97172530173215
30
-2.2204460492503131e-15
10
-13.06628185123907
20
119.01063613480781
30
-2.2204460492503131e-15
10
-13.101086246840756
20
119.04162502681066
30
-2.2204460492503131e-15
10
-13.127325307851516
20
119.06478814339786
30
-2.2204460492503131e-15
10
-13.144878334858925
20
119.08019532056245
30
-2.2204460492503131e-15
10
-13.153669928278539
20
119.08789018400304
30
-2.2204460492503131e-15
0
ARC
5
133
100
AcDbEntity
8
0
100
AcDbCircle
10
-9.3782217350892729
20
102.00000000000009
30
0
40
17.500000000000039
210
-2.7373645794991955e-17
220
1.2389465550724062e-16
230
1
100
AcDbArc
50
102.4589390306315
51
107.54106096936842
0
SPLINE
5
134
100
AcDbEntity
8
0
100
AcDbSpline
70
4
71
5
72
81
73
75
74
0
42
0.000000001
43
0.0000000001
44
0.0000000001
40
-1
40
-1
40
-1
40
-1
40
-1
40
-1
40
-0.9857142857142841
40
-0.97142857142856986
40
-0.95714285714285563
40
-0.94285714285714139
40
-0.92857142857142716
40
-0.91428571428571292
40
-0.89999999999999869
40
-0.88571428571428445
40
-0.87142857142857022
40
-0.85714285714285599
40
-0.84285714285714175
40
-0.82857142857142752
40
-0.81428571428571328
40
-0.79999999999999905
40
-0.78571428571428481
40
-0.77142857142857058
40
-0.75714285714285634
40
-0.74285714285714211
40
-0.72857142857142787
40
-0.71428571428571364
40
-0.6999999999999994
40
-0.68571428571428517
40
-0.67142857142857093
40
-0.6571428571428567
40
-0.64285714285714246
40
-0.62857142857142823
40
-0.61428571428571399
40
-0.59999999999999976
40
-0.58571428571428552
40
-0.57142857142857129
40
-0.55714285714285705
40
-0.54285714285714282
40
-0.52857142857142858
40
-0.51428571428571435
40
-0.50000000000000011
40
-0.48571428571428582
40
-0.47142857142857153
40
-0.45714285714285724
40
-0.44285714285714295
40
-0.42857142857142866
40
-0.41428571428571437
40
-0.40000000000000008
40
-0.38571428571428579
40
-0.3714285714285715
40
-0.35714285714285721
40
-0.34285714285714292
40
-0.32857142857142863
40
-0.31428571428571433
40
-0.30000000000000004
40
-0.28571428571428575
40
-0.27142857142857146
40
-0.25714285714285717
40
-0.24285714285714291
40
-0.22857142857142862
40
-0.21428571428571433
40
-0.20000000000000004
40
-0.18571428571428575
40
-0.17142857142857146
40
-0.15714285714285717
40
-0.14285714285714288
40
-0.12857142857142859
40
-0.1142857142857143
40
-0.10000000000000001
40
-0.085714285714285715
40
-0.071428571428571425
40
-0.057142857142857141
40
-0.042857142857142858
40
-0.028571428571428571
40
-0.014285714285714285
40
0
40
0
40
0
40
0
40
0
40
0
41
1
41
1
41
1
41
1
41
1
41
1
41
1
41
1
41
1
41
1
41
1
41
1
41
1
41
1
41
1
41
1
41
1
41
1
41
1
41
1
41
1
41
1
41
1
41
1
41
1
41
1
41
1
41
1
41
1
41
1
41
1
41
1
41
1
41
1
41
1
41
1
41
1
41
1
41
1
41
1
41
1
41
1
41
1
41
1
41
1
41
1
41
1
41
1
41
1
41
1
41
1
41
1
41
1
41
1
41
1
41
1
41
1
41
1
41
1
41
1
41
1
41
1
41
1
41
1
41
1
41
1
41
1
41
1
41
1
41
1
41
1
41
1
41
1
41
1
41
1
10
-14.652532781116767
20
118.68627109302003
30
0
10
-14.656299092637608
20
118.67521134909202
30
0
10
-14.663796871357054
20
118.65309182876318
30
0
10
-14.674939006470213
20
118.61991245086246
30
0
10
-14.68958605122322
20
118.57567308535202
30
0
10
-14.70754580383433
20
118.52037365744614
30
0
10
-14.725155716390613
20
118.46507431932019
30
0
10
-14.74241473930477
20
118.40977569650831
30
0
10
-14.759321591861987
20
118.35447882592973
30
0
10
-14.775874793904276
20
118.29918528248436
30
0
10
-14.792072711679424
20
118.24389706010416
30
0
10
-14.807913606245638
20
118.18861641329653
30
0
10
-14.823395685732732
20
118.1333457074889
30
0
10
-14.838517153062881
20
118.07808727795789
30
0
10
-14.853276272156663
20
118.02284325416167
30
0
10
-14.86767134889141
20
117.96761557675276
30
0
10
-14.881700680807317
20
117.91240608942785
30
0
10
-14.895362517458699
20
117.85721660922584
30
0
10
-14.90865502346044
20
117.80204899880312
30
0
10
-14.921576231832571
20
117.74690525472251
30
0
10
-14.934124054608976
20
117.69178751145951
30
0
10
-14.946296330060488
20
117.63669798945494
30
0
10
-14.958090865296052
20
117.58163895773579
30
0
10
-14.969505474732383
20
117.52661269530415
30
0
10
-14.980538044567114
20
117.47162144081797
30
0
10
-14.991186503682963
20
117.41666739512171
30
0
10
-15.001448709974047
20
117.36175277362452
30
2.2204460492503131e-15
10
-15.011322355229789
20
117.30687984743007
30
2.2204460492503131e-15
10
-15.020804880876549
20
117.25205098276491
30
2.2204460492503131e-15
10
-15.029893353224963
20
117.19726869573024
30
2.2204460492503131e-15
10
-15.038584500100356
20
117.14253564576063
30
2.2204460492503131e-15
10
-15.046874935674273
20
117.08785455623412
30
2.2204460492503131e-15
10
-15.054761356520313
20
117.03322814795132
30
2.2204460492503131e-15
10
-15.062240715546753
20
116.97865907911327
30
2.2204460492503131e-15
10
-15.069310497475927
20
116.92414985288714
30
2.2204460492503131e-15
10
-15.075968639455189
20
116.86970284175659
30
2.2204460492503131e-15
10
-15.082212961819593
20
116.8153204734798
30
2.2204460492503131e-15
10
-15.088040682203157
20
116.76100538976166
30
2.2204460492503131e-15
10
-15.093447980292936
20
116.70676058926354
30
2.2204460492503131e-15
10
-15.098429345340236
20
116.65258964099083
30
2.2204460492503131e-15
10
-15.102977708306177
20
116.59849664475921
30
2.2204460492503131e-15
10
-15.107085715575879
20
116.54448582324284
30
2.2204460492503131e-15
10
-15.110746826782597
20
116.49056117142052
30
2.2204460492503131e-15
10
-15.113956287261106
20
116.43672614630708
30
2.2204460492503131e-15
10
-15.116712642200806
20
116.38298318341066
30
2.2204460492503131e-15
10
-15.119017319566941
20
116.32933383280226
30
2.2204460492503131e-15
10
-15.120871540673583
20
116.27577975262773
30
2.2204460492503131e-15
10
-15.122273651410545
20
116.22232356786662
30
2.2204460492503131e-15
10
-15.123216776115109
20
116.16896962626151
30
2.2204460492503131e-15
10
-15.123685138590496
20
116.11572518116601
30
2.2204460492503131e-15
10
-15.123655315354634
20
116.06259999577092
30
2.2204460492503131e-15
10
-15.123103305171623
20
116.0096040859282
30
2.2204460492503131e-15
10
-15.12201069393597
20
115.95674575241614
30
2.2204460492503131e-15
10
-15.120369952024138
20
115.90402989217955
30
2.2204460492503131e-15
10
-15.118193157777197
20
115.85145521064413
30
2.2204460492503131e-15
10
-15.115507319386847
20
115.79901573340914
30
2.2204460492503131e-15
10
-15.112337498783994
20
115.74670623175825
30
0
10
-15.108691925361786
20
115.69452700902383
30
0
10
-15.104549249710855
20
115.64248800324557
30
0
10
-15.099837498457294
20
115.59061554596801
30
0
10
-15.094449351685173
20
115.53894749826055
30
0
10
-15.088280290590227
20
115.48752107920498
30
0
10
-15.081262900918354
20
115.43636190477304
30
0
10
-15.073396223283718
20
115.3854746577199
30
0
10
-15.064793983558115
20
115.33482760214086
30
0
10
-15.055630721051958
20
115.28437034476731
30
0
10
-15.046048416620181
20
115.23406443614809
30
0
10
-15.036071953698331
20
115.18391113926754
30
0
10
-15.025529642237107
20
115.13397745567596
30
0
10
-15.013948075824741
20
115.08443075560646
30
0
10
-15.000676256888365
20
115.03549673417241
30
0
10
-14.988176463605159
20
114.99702206297022
30
0
10
-14.977507354883903
20
114.96862502463073
30
0
10
-14.969789259953338
20
114.94990793892548
30
0
10
-14.965778871141049
20
114.94060296517299
30
0
0
LINE
5
135
100
AcDbEntity
8
0
100
AcDbLine
10
-14.965778871141048
20
114.94060296517301
30
0
11
-14.496525538899352
21
113.85183323631392
31
1.2325951644078309e-31
0
ARC
5
136
100
AcDbEntity
8
0
100
AcDbCircle
10
-15.414863104246271
20
113.45603516144151
30
0
40
0.99999999999999845
210
-1.3555615292628913e-31
220
1.5149006645114142e-31
230
1
100
AcDbArc
50
-62.213467071105846
51
23.315757244925972
0
ARC
5
137
100
AcDbEntity
8
0
100
AcDbCircle
10
-9.3782217350892729
20
102.00000000000009
30
0
40
11.949199999999996
210
5.1312645944866406e-32
220
8.3830350110853959e-33
230
1
100
AcDbArc
50
117.7865329288945
51
122.21346707110543
0
ARC
5
138
100
AcDbEntity
8
0
100
AcDbCircle
10
-16.281118526966797
20
112.95590235994686
30
0
40
1.0000000000000004
210
-1.9369950819596179e-32
220
1.0853170836128461e-31
230
1
100
AcDbArc
50
216.68424275507545
51
302.2134670711053
0
LINE
5
139
100
AcDbEntity
8
0
100
AcDbLine
10
-17.083058497248722
20
112.35849773654307
30
4.9303806576313873e-32
11
-17.791334075191337
21
113.30926790750441
31
-1.2325951644078309e-31
0
SPLINE
5
140
100
AcDbEntity
8
0
100
AcDbSpline
70
4
71
5
72
81
73
75
74
0
42
0.000000001
43
0.0000000001
44
0.0000000001
40
0
40
0
40
0
40
0
40
0
40
0
40
0.014285714285714285
40
0.028571428571428571
40
0.042857142857142858
40
0.057142857142857141
40
0.071428571428571425
40
0.085714285714285715
40
0.10000000000000001
40
0.1142857142857143
40
0.12857142857142859
40
0.14285714285714288
40
0.15714285714285717
40
0.17142857142857146
40
0.18571428571428575
40
0.20000000000000004
40
0.21428571428571433
40
0.22857142857142862
40
0.24285714285714291
40
0.25714285714285717
40
0.27142857142857146
40
0.28571428571428575
40
0.30000000000000004
40
0.31428571428571433
40
0.32857142857142863
40
0.34285714285714292
40
0.35714285714285721
40
0.3714285714285715
40
0.38571428571428579
40
0.40000000000000008
40
0.41428571428571437
40
0.42857142857142866
40
0.44285714285714295
40
0.45714285714285724
40
0.47142857142857153
40
0.48571428571428582
40
0.50000000000000011
40
0.51428571428571435
40
0.52857142857142858
40
0.54285714285714282
40
0.55714285714285705
40
0.57142857142857129
40
0.58571428571428552
40
0.59999999999999976
40
0.61428571428571399
40
0.62857142857142823
40
0.64285714285714246
40
0.6571428571428567
40
0.67142857142857093
40
0.68571428571428517
40
0.6999999999999994
40
0.71428571428571364
40
0.72857142857142787
40
0.74285714285714211
40
0.75714285714285634
40
0.77142857142857058
40
0.78571428571428481
40
0.79999999999999905
40
0.81428571428571328
40
0.82857142857142752
40
0.84285714285714175
40
0.85714285714285599
40
0.87142857142857022
40
0.88571428571428445
40
0.89999999999999869
40
0.91428571428571292
40
0.92857142857142716
40
0.94285714285714139
40
0.95714285714285563
40
0.97142857142856986
40
0.9857142857142841
40
1
40
1
40
1
40
1
40
1
40
1
41
1
41
1
41
1
41
1
41
1
41
1
41
1
41
1
41
1
41
1
41
1
41
1
41
1
41
1
41
1
41
1
41
1
41
1
41
1
41
1
41
1
41
1
41
1
41
1
41
1
41
1
41
1
41
1
41
1
41
1
41
1
41
1
41
1
41
1
41
1
41
1
41
1
41
1
41
1
41
1
41
1
41
1
41
1
41
1
41
1
41
1
41
1
41
1
41
1
41
1
41
1
41
1
41
1
41
1
41
1
41
1
41
1
41
1
41
1
41
1
41
1
41
1
41
1
41
1
41
1
41
1
41
1
41
1
41
1
41
1
41
1
41
1
41
1
41
1
41
1
10
-17.791334075191337
20
113.30926790750441
30
0
10
-17.797387224436388
20
113.31739349297115
30
0
10
-17.809737648676666
20
113.33343610210247
30
0
10
-17.828995650910283
20
113.35687434046056
30
0
10
-17.856065796932022
20
113.38693681458695
30
0
10
-17.891807993135053
20
113.42289755765732
30
0
10
-17.928925910862745
20
113.45770083842078
30
0
10
-17.966898593626976
20
113.4917975897566
30
0
10
-18.005344391348149
20
113.5255141085271
30
0
10
-18.044119433956968
20
113.55896558190145
30
0
10
-18.083235069394689
20
113.59212982870011
30
0
10
-18.122795586290202
20
113.62490311462142
30
0
10
-18.162931896149566
20
113.65715948082298
30
0
10
-18.203728346008312
20
113.68881630576303
30
0
10
-18.24518040078863
20
113.71987207891655
30
0
10
-18.287232169281165
20
113.75037237475424
30
0
10
-18.329799159413486
20
113.78038909967493
30
0
10
-18.372794922579686
20
113.80999626491742
30
0
10
-18.416160668306304
20
113.8392430354796
30
0
10
-18.459877115293853
20
113.86814293147255
30
0
10
-18.503948115545366
20
113.89668867436656
30
0
10
-18.548390728227435
20
113.92486117425092
30
0
10
-18.593223631418759
20
113.95264002854594
30
0
10
-18.638453985424103
20
113.9800154243885
30
0
10
-18.68407378455306
20
114.00699143415152
30
0
10
-18.73006663306802
20
114.03357985452891
30
0
10
-18.776411856368846
20
114.05979646327482
30
0
10
-18.823089287543183
20
114.08565666412427
30
0
10
-18.870084756904163
20
114.11117049298768
30
0
10
-18.917391061364949
20
114.13634173049238
30
0
10
-18.965005100571421
20
114.16117049664999
30
0
10
-19.012926049184202
20
114.18565490469854
30
0
10
-19.061153278785078
20
114.20979294294845
30
0
10
-19.109683952756804
20
114.2335846535485
30
0
10
-19.15851269990409
20
114.25703242565221
30
0
10
-19.207632790290454
20
114.28013992589386
30
-2.2204460492503131e-15
10
-19.25703689016537
20
114.30291141135376
30
-2.2204460492503131e-15
10
-19.306717914464858
20
114.32535095409123
30
-2.2204460492503131e-15
10
-19.356670016965229
20
114.34746154205199
30
-2.2204460492503131e-15
10
-19.4068886905931
20
114.36924498439338
30
-2.2204460492503131e-15
10
-19.457370256381903
20
114.39070236986259
30
-2.2204460492503131e-15
10
-19.508111521998956
20
114.41183437222578
30
-2.2204460492503131e-15
10
-19.559109401386792
20
114.43264159172389
30
-2.2204460492503131e-15
10
-19.610360469100211
20
114.45312495506768
30
-2.2204460492503131e-15
10
-19.661860899523738
20
114.47328577201549
30
-2.2204460492503131e-15
10
-19.713606684661723
20
114.49312554301818
30
-2.2204460492503131e-15
10
-19.765593773085371
20
114.51264583860022
30
-2.2204460492503131e-15
10
-19.817818225569429
20
114.53184816283064
30
-2.2204460492503131e-15
10
-19.870276396261687
20
114.55073379830844
30
-2.2204460492503131e-15
10
-19.922964956662984
20
114.56930377771008
30
-2.2204460492503131e-15
10
-19.975880785834605
20
114.58755896445274
30
-2.2204460492503131e-15
10
-20.029020894122983
20
114.60550010594991
30
0
10
-20.082382339982271
20
114.6231278954196
30
0
10
-20.135962127776597
20
114.64044304413933
30
0
10
-20.189757191040655
20
114.65744630537876
30
0
10
-20.243764468293879
20
114.67413844372372
30
0
10
-20.297980955713545
20
114.69052022106615
30
0
10
-20.352403760806578
20
114.70659237840005
30
0
10
-20.407030171008863
20
114.72235562089861
30
0
10
-20.461857655520102
20
114.73781060672374
30
0
10
-20.516883765515605
20
114.7529579432865
30
0
10
-20.572106053077302
20
114.76779818311192
30
0
10
-20.627521990489445
20
114.78233182302701
30
0
10
-20.683128865547506
20
114.79655930179158
30
0
10
-20.738923757303652
20
114.81048100808239
30
0
10
-20.794903721302575
20
114.82409731099081
30
0
10
-20.851065935612667
20
114.8374085892309
30
0
10
-20.907407856562088
20
114.85041526070759
30
0
10
-20.96392738016857
20
114.86311781982538
30
0
10
-21.020622968076243
20
114.87551685725619
30
0
10
-21.077493553763034
20
114.88761296920222
30
0
10
-21.123129490518874
20
114.89704793911096
30
0
10
-21.157434742219255
20
114.90398825600094
30
0
10
-21.180339698103271
20
114.90855474932238
30
0
10
-21.191800873064693
20
114.91082289983075
30
0
0
ARC
5
141
100
AcDbEntity
8
0
100
AcDbCircle
10
-9.3782217350892729
20
102.00000000000009
30
0
40
17.500000000000014
210
7.274888171363274e-32
220
6.6566219519166705e-32
230
1
100
AcDbArc
50
132.45893903063148
51
137.54106096936829
0
SPLINE
5
142
100
AcDbEntity
8
0
100
AcDbSpline
70
4
71
5
72
81
73
75
74
0
42
0.000000001
43
0.0000000001
44
0.0000000001
40
-1
40
-1
40
-1
40
-1
40
-1
40
-1
40
-0.9857142857142841
40
-0.97142857142856986
40
-0.95714285714285563
40
-0.94285714285714139
40
-0.92857142857142716
40
-0.91428571428571292
40
-0.89999999999999869
40
-0.88571428571428445
40
-0.87142857142857022
40
-0.85714285714285599
40
-0.84285714285714175
40
-0.82857142857142752
40
-0.81428571428571328
40
-0.79999999999999905
40
-0.78571428571428481
40
-0.77142857142857058
40
-0.75714285714285634
40
-0.74285714285714211
40
-0.72857142857142787
40
-0.71428571428571364
40
-0.6999999999999994
40
-0.68571428571428517
40
-0.67142857142857093
40
-0.6571428571428567
40
-0.64285714285714246
40
-0.62857142857142823
40
-0.61428571428571399
40
-0.59999999999999976
40
-0.58571428571428552
40
-0.57142857142857129
40
-0.55714285714285705
40
-0.54285714285714282
40
-0.52857142857142858
40
-0.51428571428571435
40
-0.50000000000000011
40
-0.48571428571428582
40
-0.47142857142857153
40
-0.45714285714285724
40
-0.44285714285714295
40
-0.42857142857142866
40
-0.41428571428571437
40
-0.40000000000000008
40
-0.38571428571428579
40
-0.3714285714285715
40
-0.35714285714285721
40
-0.34285714285714292
40
-0.32857142857142863
40
-0.31428571428571433
40
-0.30000000000000004
40
-0.28571428571428575
40
-0.27142857142857146
40
-0.25714285714285717
40
-0.24285714285714291
40
-0.22857142857142862
40
-0.21428571428571433
40
-0.20000000000000004
40
-0.18571428571428575
40
-0.17142857142857146
40
-0.15714285714285717
40
-0.14285714285714288
40
-0.12857142857142859
40
-0.1142857142857143
40
-0.10000000000000001
40
-0.085714285714285715
40
-0.071428571428571425
40
-0.057142857142857141
40
-0.042857142857142858
40
-0.028571428571428571
40
-0.014285714285714285
40
0
40
0
40
0
40
0
40
0
40
0
41
1
41
1
41
1
41
1
41
1
41
1
41
1
41
1
41
1
41
1
41
1
41
1
41
1
41
1
41
1
41
1
41
1
41
1
41
1
41
1
41
1
41
1
41
1
41
1
41
1
41
1
41
1
41
1
41
1
41
1
41
1
41
1
41
1
41
1
41
1
41
1
41
1
41
1
41
1
41
1
41
1
41
1
41
1
41
1
41
1
41
1
41
1
41
1
41
1
41
1
41
1
41
1
41
1
41
1
41
1
41
1
41
1
41
1
41
1
41
1
41
1
41
1
41
1
41
1
41
1
41
1
41
1
41
1
41
1
41
1
41
1
41
1
41
1
41
1
41
1
10
-22.289044634919904
20
113.81357913797552
30
0
10
-22.286776484411522
20
113.80211796301411
30
0
10
-22.282209991090095
20
113.7792130071301
30
0
10
-22.275269674200125
20
113.74490775542972
30
0
10
-22.265834704291386
20
113.69927181867388
30
0
10
-22.253738592345353
20
113.64240123298708
30
0
10
-22.241339554914546
20
113.58570564507941
30
0
10
-22.228636995796748
20
113.52918612147293
30
0
10
-22.215630324320056
20
113.47284420052348
30
0
10
-22.202319046079971
20
113.4166819862134
30
0
10
-22.188702743171554
20
113.36070202221448
30
0
10
-22.174781036880752
20
113.30490713045835
30
0
10
-22.16055355811617
20
113.24930025540029
30
0
10
-22.146019918201073
20
113.19388431798815
30
0
10
-22.131179678375656
20
113.13866203042645
30
0
10
-22.116032341812918
20
113.08363592043095
30
0
10
-22.10057735598776
20
113.0288084359197
30
0
10
-22.084814113489216
20
112.97418202571741
30
0
10
-22.068741956155314
20
112.9197592206244
30
0
10
-22.052360178812869
20
112.86554273320471
30
0
10
-22.035668040467918
20
112.81153545595149
30
0
10
-22.018664779228502
20
112.75774039268742
30
0
10
-22.00134963050877
20
112.70416060489312
30
0
10
-21.983721841039081
20
112.65079915903384
30
0
10
-21.965780699541885
20
112.59765905074543
30
0
10
-21.947525512799242
20
112.54474322157384
30
0
10
-21.928955533397612
20
112.49205466117252
30
0
10
-21.910069897919811
20
112.43959649048026
30
0
10
-21.890867573689366
20
112.38737203799622
30
0
10
-21.871347278107351
20
112.33538494957257
30
0
10
-21.851507507104657
20
112.28363916443458
30
2.2204460492503131e-15
10
-21.831346690156849
20
112.23213873401106
30
2.2204460492503131e-15
10
-21.810863326813056
20
112.18088766629764
30
2.2204460492503131e-15
10
-21.790056107314953
20
112.12988978690979
30
2.2204460492503131e-15
10
-21.768924104951765
20
112.07914852129272
30
2.2204460492503131e-15
10
-21.747466719482546
20
112.02866695550392
30
2.2204460492503131e-15
10
-21.725683277141137
20
111.97844828187607
30
2.2204460492503131e-15
10
-21.703572689180387
20
111.9284961793757
30
2.2204460492503131e-15
10
-21.681133146442907
20
111.87881515507621
30
2.2204460492503131e-15
10
-21.658361660983033
20
111.82941105520128
30
2.2204460492503131e-15
10
-21.635254160741365
20
111.78029096481494
30
2.2204460492503131e-15
10
-21.611806388637675
20
111.73146221766764
30
2.2204460492503131e-15
10
-21.588014678037609
20
111.68293154369591
30
2.2204460492503131e-15
10
-21.563876639787715
20
111.63470431409505
30
2.2204460492503131e-15
10
-21.539392231739139
20
111.58678336548226
30
2.2204460492503131e-15
10
-21.514563465581546
20
111.5391693262758
30
0
10
-21.489392228076859
20
111.49186302181499
30
0
10
-21.463878399213442
20
111.44486755245401
30
0
10
-21.438018198363974
20
111.39819012127967
30
0
10
-21.411801589618076
20
111.35184489797885
30
0
10
-21.385213169240661
20
111.30585204946391
30
0
10
-21.358237159477667
20
111.26023225033494
30
0
10
-21.330861763635092
20
111.2150018963296
30
0
10
-21.303082909340091
20
111.17016899313826
30
0
10
-21.274910409455728
20
111.1257263804562
30
0
10
-21.246364666561725
20
111.08165538020469
30
0
10
-21.217464770568771
20
111.03793893321713
30
0
10
-21.188218000006568
20
110.99457318749052
30
0
10
-21.158610834764097
20
110.95157742432433
30
0
10
-21.128594109843405
20
110.909010434192
30
0
10
-21.098093814005704
20
110.86695866569946
30
0
10
-21.067038040852196
20
110.82550661091913
30
0
10
-21.035381215912142
20
110.78471016106039
30
0
10
-21.003124849710591
20
110.74457385120104
30
0
10
-20.970351563789261
20
110.70501333430551
30
0
10
-20.937187316990599
20
110.66589769886781
30
0
10
-20.903735843616275
20
110.62712265625898
30
0
10
-20.870019324845764
20
110.58867685853781
30
0
10
-20.835922573509947
20
110.55070417577356
30
0
10
-20.801119292746474
20
110.51358625804588
30
0
10
-20.765158549676119
20
110.47784406184286
30
0
10
-20.735096075549716
20
110.4507739158211
30
0
10
-20.711657837191627
20
110.43151591358749
30
0
10
-20.695615228060305
20
110.41916548934722
30
0
10
-20.687489642593576
20
110.41311234010217
30
0
0
LINE
5
143
100
AcDbEntity
8
0
100
AcDbLine
10
-20.687489642593579
20
110.4131123401022
30
0
11
-19.736719471632227
21
109.70483676215957
31
1.2325951644078309e-31
0
ARC
5
144
100
AcDbEntity
8
0
100
AcDbCircle
10
-20.334124095036007
20
108.90289679187761
30
2.2204460492503131e-15
40
1.0000000000000013
210
5.2565268625549681e-32
220
8.3428735493124928e-32
230
1
100
AcDbArc
50
-32.213467071105271
51
53.31575724492636
0
ARC
5
145
100
AcDbEntity
8
0
100
AcDbCircle
10
-9.3782217350892729
20
102.00000000000009
30
0
40
11.949199999999978
210
1.5721957205454385e-16
220
-9.9058064219636191e-17
230
1
100
AcDbArc
50
147.78653292889447
51
152.21346707110538
0
ARC
5
146
100
AcDbEntity
8
0
100
AcDbCircle
10
-20.834256896530675
20
108.03664136915708
30
2.2204460492503131e-15
40
1.0000000000000038
210
-1.3583261308088042e-31
220
5.8543055180357612e-32
230
1
100
AcDbArc
50
246.68424275507473
51
332.21346707110672
0
LINE
5
147
100
AcDbEntity
8
0
100
AcDbLine
10
-21.230054971403078
20
107.11830380381016
30
2.2204460492503131e-15
11
-22.318824700262162
21
107.58755713605188
31
-6.1629758220391547e-32
0
SPLINE
5
148
100
AcDbEntity
8
0
100
AcDbSpline
70
4
71
5
72
81
73
75
74
0
42
0.000000001
43
0.0000000001
44
0.0000000001
40
0
40
0
40
0
40
0
40
0
40
0
40
0.014285714285714285
40
0.028571428571428571
40
0.042857142857142858
40
0.057142857142857141
40
0.071428571428571425
40
0.085714285714285715
40
0.10000000000000001
40
0.1142857142857143
40
0.12857142857142859
40
0.14285714285714288
40
0.15714285714285717
40
0.17142857142857146
40
0.18571428571428575
40
0.20000000000000004
40
0.21428571428571433
40
0.22857142857142862
40
0.24285714285714291
40
0.25714285714285717
40
0.27142857142857146
40
0.28571428571428575
40
0.30000000000000004
40
0.31428571428571433
40
0.32857142857142863
40
0.34285714285714292
40
0.35714285714285721
40
0.3714285714285715
40
0.38571428571428579
40
0.40000000000000008
40
0.41428571428571437
40
0.42857142857142866
40
0.44285714285714295
40
0.45714285714285724
40
0.47142857142857153
40
0.48571428571428582
40
0.50000000000000011
40
0.51428571428571435
40
0.52857142857142858
40
0.54285714285714282
40
0.55714285714285705
40
0.57142857142857129
40
0.58571428571428552
40
0.59999999999999976
40
0.61428571428571399
40
0.62857142857142823
40
0.64285714285714246
40
0.6571428571428567
40
0.67142857142857093
40
0.68571428571428517
40
0.6999999999999994
40
0.71428571428571364
40
0.72857142857142787
40
0.74285714285714211
40
0.75714285714285634
40
0.77142857142857058
40
0.78571428571428481
40
0.79999999999999905
40
0.81428571428571328
40
0.82857142857142752
40
0.84285714285714175
40
0.85714285714285599
40
0.87142857142857022
40
0.88571428571428445
40
0.89999999999999869
40
0.91428571428571292
40
0.92857142857142716
40
0.94285714285714139
40
0.95714285714285563
40
0.97142857142856986
40
0.9857142857142841
40
1
40
1
40
1
40
1
40
1
40
1
41
1
41
1
41
1
41
1
41
1
41
1
41
1
41
1
41
1
41
1
41
1
41
1
41
1
41
1
41
1
41
1
41
1
41
1
41
1
41
1
41
1
41
1
41
1
41
1
41
1
41
1
41
1
41
1
41
1
41
1
41
1
41
1
41
1
41
1
41
1
41
1
41
1
41
1
41
1
41
1
41
1
41
1
41
1
41
1
41
1
41
1
41
1
41
1
41
1
41
1
41
1
41
1
41
1
41
1
41
1
41
1
41
1
41
1
41
1
41
1
41
1
41
1
41
1
41
1
41
1
41
1
41
1
41
1
41
1
41
1
41
1
41
1
41
1
41
1
41
1
10
-22.318824700262162
20
107.58755713605188
30
2.2204460492503131e-15
10
-22.328129674014644
20
107.59156752486417
30
2.2204460492503131e-15
10
-22.346846759719892
20
107.59928561979473
30
2.2204460492503131e-15
10
-22.375243798059383
20
107.60995472851599
30
2.2204460492503131e-15
10
-22.413718469261568
20
107.6224545217992
30
2.2204460492503131e-15
10
-22.462652490695618
20
107.63572634073556
30
2.2204460492503131e-15
10
-22.512199190765116
20
107.64730790714793
30
0
10
-22.562132874356688
20
107.65785021860916
30
0
10
-22.612286171237244
20
107.667826681531
30
0
10
-22.662592079856474
20
107.67740898596278
30
0
10
-22.713049337230036
20
107.68657224846893
30
0
10
-22.763696392809052
20
107.69517448819455
30
0
10
-22.814583639862207
20
107.70304116582919
30
0
10
-22.86574281429413
20
107.71005855550106
30
0
10
-22.9171692333497
20
107.716227616596
30
0
10
-22.968837281057152
20
107.72161576336812
30
0
10
-23.02070973833473
20
107.72632751462169
30
0
10
-23.072748744112992
20
107.73047019027261
30
0
10
-23.124927966847395
20
107.73411576369482
30
0
10
-23.177237468498291
20
107.73728558429768
30
0
10
-23.229676945733292
20
107.73997142268803
30
0
10
-23.2822516272687
20
107.74214821693496
30
0
10
-23.334967487505295
20
107.74378895884679
30
0
10
-23.387825821017376
20
107.74488157008244
30
0
10
-23.440821730860087
20
107.74543358026547
30
0
10
-23.493946916255162
20
107.74546340350133
30
0
10
-23.547191361350684
20
107.74499504102594
30
0
10
-23.600545302955798
20
107.74405191632138
30
0
10
-23.65400148771689
20
107.74264980558441
30
0
10
-23.707555567891426
20
107.74079558447775
30
0
10
-23.761204918499821
20
107.73849090711164
30
0
10
-23.814947881396229
20
107.73573455217195
30
0
10
-23.868782906509679
20
107.73252509169342
30
0
10
-23.922707558332004
20
107.72886398048671
30
0
10
-23.976718379848371
20
107.724755973217
30
0
10
-24.030811376079981
20
107.72020761025105
30
0
10
-24.084982324352701
20
107.71522624520375
30
0
10
-24.139227124850827
20
107.70981894711399
30
0
10
-24.193542208568964
20
107.70399122673042
30
0
10
-24.247924576845765
20
107.697746904366
30
0
10
-24.302371587976303
20
107.69108876238676
30
0
10
-24.356880814202437
20
107.68401898045758
30
0
10
-24.41144988304049
20
107.67653962143113
30
0
10
-24.466076291323276
20
107.66865320058508
30
0
10
-24.520757380849787
20
107.66036276501117
30
0
10
-24.5754904308194
20
107.65167161813579
30
0
10
-24.630272717854076
20
107.64258314578738
30
0
10
-24.685101582519231
20
107.63310062014062
30
0
10
-24.739974508713679
20
107.62322697488487
30
0
10
-24.794889130210848
20
107.6129647685938
30
0
10
-24.849843175907115
20
107.60231630947794
30
0
10
-24.904834430393304
20
107.59128373964322
30
0
10
-24.959860692824961
20
107.57986913020689
30
0
10
-25.014919724544093
20
107.56807459497131
30
0
10
-25.070009246548661
20
107.55590231951979
30
0
10
-25.125126989811658
20
107.54335449674342
30
0
10
-25.180270733892275
20
107.53043328837128
30
0
10
-25.235438344314996
20
107.51714078236952
30
0
10
-25.290627824517003
20
107.50347894571816
30
0
10
-25.345837311841912
20
107.48944961380224
30
0
10
-25.401064989250827
20
107.47505453706749
30
0
10
-25.456309013047051
20
107.46029541797371
30
0
10
-25.511567442578048
20
107.44517395064356
30
0
10
-25.566838148385678
20
107.42969187115646
30
0
10
-25.622118795193312
20
107.41385097659025
30
0
10
-25.677407017573522
20
107.39765305881511
30
0
10
-25.732700561018888
20
107.38109985677282
30
2.2204460492503131e-15
10
-25.78799743159745
20
107.36419300421561
30
0
10
-25.843296054409358
20
107.34693398130145
30
0
10
-25.898595392535299
20
107.32932406874517
30
0
10
-25.953894820441171
20
107.31136431613406
30
0
10
-25.99813418595161
20
107.29671727138104
30
0
10
-26.031313563852333
20
107.28557513626788
30
0
10
-26.053433084181169
20
107.27807735754843
30
0
10
-26.06449282810917
20
107.27431104602759
30
0
0
ARC
5
149
100
AcDbEntity
8
0
100
AcDbCircle
10
-9.3782217350892729
20
102.00000000000009
30
0
40
17.499999999999979
210
2.9719269901331702e-32
220
9.4022477994306427e-32
230
1
100
AcDbArc
50
162.45893903063157
51
167.54106096936835
0
SPLINE
5
150
100
AcDbEntity
8
0
100
AcDbSpline
70
4
71
5
72
81
73
75
74
0
42
0.000000001
43
0.0000000001
44
0.0000000001
40
-1
40
-1
40
-1
40
-1
40
-1
40
-1
40
-0.9857142857142841
40
-0.97142857142856986
40
-0.95714285714285563
40
-0.94285714285714139
40
-0.92857142857142716
40
-0.91428571428571292
40
-0.89999999999999869
40
-0.88571428571428445
40
-0.87142857142857022
40
-0.85714285714285599
40
-0.84285714285714175
40
-0.82857142857142752
40
-0.81428571428571328
40
-0.79999999999999905
40
-0.78571428571428481
40
-0.77142857142857058
40
-0.75714285714285634
40
-0.74285714285714211
40
-0.72857142857142787
40
-0.71428571428571364
40
-0.6999999999999994
40
-0.68571428571428517
40
-0.67142857142857093
40
-0.6571428571428567
40
-0.64285714285714246
40
-0.62857142857142823
40
-0.61428571428571399
40
-0.59999999999999976
40
-0.58571428571428552
40
-0.57142857142857129
40
-0.55714285714285705
40
-0.54285714285714282
40
-0.52857142857142858
40
-0.51428571428571435
40
-0.50000000000000011
40
-0.48571428571428582
40
-0.47142857142857153
40
-0.45714285714285724
40
-0.44285714285714295
40
-0.42857142857142866
40
-0.41428571428571437
40
-0.40000000000000008
40
-0.38571428571428579
40
-0.3714285714285715
40
-0.35714285714285721
40
-0.34285714285714292
40
-0.32857142857142863
40
-0.31428571428571433
40
-0.30000000000000004
40
-0.28571428571428575
40
-0.27142857142857146
40
-0.25714285714285717
40
-0.24285714285714291
40
-0.22857142857142862
40
-0.21428571428571433
40
-0.20000000000000004
40
-0.18571428571428575
40
-0.17142857142857146
40
-0.15714285714285717
40
-0.14285714285714288
40
-0.12857142857142859
40
-0.1142857142857143
40
-0.10000000000000001
40
-0.085714285714285715
40
-0.071428571428571425
40
-0.057142857142857141
40
-0.042857142857142858
40
-0.028571428571428571
40
-0.014285714285714285
40
0
40
0
40
0
40
0
40
0
40
0
41
1
41
1
41
1
41
1
41
1
41
1
41
1
41
1
41
1
41
1
41
1
41
1
41
1
41
1
41
1
41
1
41
1
41
1
41
1
41
1
41
1
41
1
41
1
41
1
41
1
41
1
41
1
41
1
41
1
41
1
41
1
41
1
41
1
41
1
41
1
41
1
41
1
41
1
41
1
41
1
41
1
41
1
41
1
41
1
41
1
41
1
41
1
41
1
41
1
41
1
41
1
41
1
41
1
41
1
41
1
41
1
41
1
41
1
41
1
41
1
41
1
41
1
41
1
41
1
41
1
41
1
41
1
41
1
41
1
41
1
41
1
41
1
41
1
41
1
41
1
10
-26.466111919092178
20
105.77544819318936
30
0
10
-26.458417055651605
20
105.76665659976975
30
0
10
-26.443009878487025
20
105.74910357276235
30
0
10
-26.419846761899809
20
105.72286451175158
30
0
10
-26.388857869896974
20
105.6880601161499
30
0
10
-26.349947036821302
20
105.64485680019004
30
0
10
-26.310861361469918
20
105.60195649949492
30
0
10
-26.271600860777585
20
105.55936043580081
30
0
10
-26.232165792385377
20
105.51707023669893
30
0
10
-26.192556780117581
20
105.47508797149365
30
0
10
-26.152774733893803
20
105.43341605202185
30
0
10
-26.112820736703867
20
105.39205711150503
30
0
10
-26.07269594113291
20
105.35101388446199
30
0
10
-26.032401471050907
20
105.31028909484607
30
0
10
-25.991938302582994
20
105.26988531087527
30
0
10
-25.951307269322239
20
105.22980497002911
30
0
10
-25.910509116726907
20
105.19005046852934
30
0
10
-25.869544543176005
20
105.15062423082588
30
0
10
-25.828414244084708
20
105.11152877773705
30
2.2204460492503131e-15
10
-25.787118965037177
20
105.0727668109989
30
2.2204460492503131e-15
10
-25.745659510560351
20
105.03434120608085
30
2.2204460492503131e-15
10
-25.704036722747809
20
104.9962549453157
30
0
10
-25.662251470189052
20
104.95851106231628
30
0
10
-25.620304633766096
20
104.92111258935432
30
0
10
-25.578197095312444
20
104.88406247636533
30
0
10
-25.535929725256672
20
104.84736361741172
30
0
10
-25.49350337114646
20
104.81101897531617
30
0
10
-25.450918845709939
20
104.77503168459953
30
0
10
-25.408176918872645
20
104.73940514416482
30
0
10
-25.36527830279741
20
104.70414315271215
30
0
10
-25.322223664534818
20
104.66924987374524
30
0
10
-25.279013669685209
20
104.63472960116653
30
0
10
-25.235649022817825
20
104.60058655622753
30
0
10
-25.192130502456433
20
104.56682470688759
30
0
10
-25.148459018768552
20
104.53344748302463
30
0
10
-25.104635594959003
20
104.5004578573633
30
0
10
-25.060661243695538
20
104.46785893142794
30
0
10
-25.016536861578732
20
104.43565443567054
30
0
10
-24.972263135369026
20
104.40384917790988
30
0
10
-24.927840400541413
20
104.37244971509705
30
0
10
-24.883268673120988
20
104.3414642191071
30
0
10
-24.838547933243401
20
104.31090116969443
30
0
10
-24.793678370478396
20
104.28076822847217
30
0
10
-24.748660601356029
20
104.25107124160861
30
0
10
-24.703496007682951
20
104.22181268676079
30
0
10
-24.658186645842612
20
104.19299210230997
30
0
10
-24.61273456248847
20
104.16460925964012
30
0
10
-24.567141203864455
20
104.13666690374245
30
0
10
-24.521406897394673
20
104.10917316298681
30
0
10
-24.475530036569239
20
104.08214532663719
30
0
10
-24.429507364818424
20
104.05560856161954
30
0
10
-24.383335555506456
20
104.0295886615398
30
0
10
-24.337012590265452
20
104.0041057238703
30
0
10
-24.290538945162297
20
103.97916871792872
30
0
10
-24.243919538233293
20
103.95476653627766
30
0
10
-24.197162699591427
20
103.93087280193667
30
0
10
-24.150276432001021
20
103.90746319627873
30
0
10
-24.103265112852199
20
103.88453074410651
30
0
10
-24.056126674035067
20
103.86209890357073
30
0
10
-24.008847932649182
20
103.84024317121384
30
0
10
-23.961408017384525
20
103.81907541934409
30
0
10
-23.913786901509262
20
103.79870477344204
30
0
10
-23.865973061978643
20
103.77920242395015
30
0
10
-23.817970074484638
20
103.76057154309856
30
0
10
-23.769807317863524
20
103.74269777344088
30
0
10
-23.721528419919643
20
103.72540476286596
30
0
10
-23.673171072879057
20
103.70855032762107
30
0
10
-23.624748812236028
20
103.69211354951103
30
0
10
-23.576233818010579
20
103.67627661725527
30
0
10
-23.527534333870513
20
103.66153319794924
30
0
10
-23.478520318731107
20
103.64855991958555
30
0
10
-23.438950379426167
20
103.64014772250977
30
0
10
-23.409023268471294
20
103.63518892252836
30
0
10
-23.388954749300453
20
103.63251444595443
30
0
10
-23.378891211243111
20
103.63133505766868
30
0
0
LINE
5
151
100
AcDbEntity
8
0
100
AcDbLine
10
-23.378891211243111
20
103.63133505766866
30
0
11
-22.201362301058801
21
103.49333549977095
31
3.0814879110195774e-32
0
ARC
5
152
100
AcDbEntity
8
0
100
AcDbCircle
10
-22.317759896123789
20
102.50013280149476
30
0
40
0.99999999999999978
210
-2.9333284015954767e-32
220
1.9849626115083602e-31
230
1
100
AcDbArc
50
-2.2134670711054567
51
83.31575724492501
0
ARC
5
153
100
AcDbEntity
8
0
100
AcDbCircle
10
-9.3782217350892729
20
102.00000000000009
30
0
40
11.949199999999978
210
3.0922793572615114e-33
220
-1.195212934731035e-34
230
1
100
AcDbArc
50
177.78653292889456
51
182.21346707110544
0
ARC
5
154
100
AcDbEntity
8
0
100
AcDbCircle
10
-22.317759896123796
20
101.49986719850543
30
0
40
1.0000000000000042
210
-2.5248816269096608e-32
220
-1.0224148083853623e-31
230
1
100
AcDbArc
50
-83.31575724492501
51
2.2134670711046116
0
LINE
5
155
100
AcDbEntity
8
0
100
AcDbLine
10
-22.201362301058808
20
100.50666450022923
30
-9.8607613152626519e-32
11
-23.378891211243115
21
100.36866494233151
31
-3.0814879110195774e-32
0
SPLINE
5
156
100
AcDbEntity
8
0
100
AcDbSpline
70
4
71
5
72
81
73
75
74
0
42
0.000000001
43
0.0000000001
44
0.0000000001
40
0
40
0
40
0
40
0
40
0
40
0
40
0.014285714285714285
40
0.028571428571428571
40
0.042857142857142858
40
0.057142857142857141
40
0.071428571428571425
40
0.085714285714285715
40
0.10000000000000001
40
0.1142857142857143
40
0.12857142857142859
40
0.14285714285714288
40
0.15714285714285717
40
0.17142857142857146
40
0.18571428571428575
40
0.20000000000000004
40
0.21428571428571433
40
0.22857142857142862
40
0.24285714285714291
40
0.25714285714285717
40
0.27142857142857146
40
0.28571428571428575
40
0.30000000000000004
40
0.31428571428571433
40
0.32857142857142863
40
0.34285714285714292
40
0.35714285714285721
40
0.3714285714285715
40
0.38571428571428579
40
0.40000000000000008
40
0.41428571428571437
40
0.42857142857142866
40
0.44285714285714295
40
0.45714285714285724
40
0.47142857142857153
40
0.48571428571428582
40
0.50000000000000011
40
0.51428571428571435
40
0.52857142857142858
40
0.54285714285714282
40
0.55714285714285705
40
0.57142857142857129
40
0.58571428571428552
40
0.59999999999999976
40
0.61428571428571399
40
0.62857142857142823
40
0.64285714285714246
40
0.6571428571428567
40
0.67142857142857093
40
0.68571428571428517
40
0.6999999999999994
40
0.71428571428571364
40
0.72857142857142787
40
0.74285714285714211
40
0.75714285714285634
40
0.77142857142857058
40
0.78571428571428481
40
0.79999999999999905
40
0.81428571428571328
40
0.82857142857142752
40
0.84285714285714175
40
0.85714285714285599
40
0.87142857142857022
40
0.88571428571428445
40
0.89999999999999869
40
0.91428571428571292
40
0.92857142857142716
40
0.94285714285714139
40
0.95714285714285563
40
0.97142857142856986
40
0.9857142857142841
40
1
40
1
40
1
40
1
40
1
40
1
41
1
41
1
41
1
41
1
41
1
41
1
41
1
41
1
41
1
41
1
41
1
41
1
41
1
41
1
41
1
41
1
41
1
41
1
41
1
41
1
41
1
41
1
41
1
41
1
41
1
41
1
41
1
41
1
41
1
41
1
41
1
41
1
41
1
41
1
41
1
41
1
41
1
41
1
41
1
41
1
41
1
41
1
41
1
41
1
41
1
41
1
41
1
41
1
41
1
41
1
41
1
41
1
41
1
41
1
41
1
41
1
41
1
41
1
41
1
41
1
41
1
41
1
41
1
41
1
41
1
41
1
41
1
41
1
41
1
41
1
41
1
41
1
41
1
41
1
41
1
10
-23.378891211243111
20
100.36866494233151
30
0
10
-23.388954749300446
20
100.36748555404577
30
0
10
-23.409023268471294
20
100.36481107747181
30
0
10
-23.438950379426164
20
100.35985227749043
30
0
10
-23.478520318731107
20
100.35144008041463
30
0
10
-23.52753433387052
20
100.33846680205095
30
0
10
-23.576233818010579
20
100.32372338274492
30
0
10
-23.624748812236032
20
100.30788645048916
30
0
10
-23.673171072879057
20
100.29144967237912
30
0
10
-23.72152841991965
20
100.27459523713421
30
0
10
-23.769807317863531
20
100.25730222655932
30
0
10
-23.817970074484638
20
100.23942845690161
30
0
10
-23.865973061978636
20
100.22079757605002
30
0
10
-23.913786901509262
20
100.20129522655816
30
0
10
-23.961408017384525
20
100.1809245806561
30
0
10
-24.008847932649182
20
100.15975682878634
30
0
10
-24.056126674035067
20
100.13790109642946
30
0
10
-24.103265112852199
20
100.11546925589366
30
0
10
-24.150276432001018
20
100.09253680372146
30
0
10
-24.197162699591427
20
100.06912719806353
30
0
10
-24.243919538233285
20
100.04523346372252
30
0
10
-24.290538945162297
20
100.02083128207148
30
0
10
-24.337012590265452
20
99.995894276129889
30
0
10
-24.383335555506452
20
99.97041133846038
30
0
10
-24.42950736481842
20
99.944391438380663
30
0
10
-24.475530036569239
20
99.917854673362996
30
0
10
-24.521406897394677
20
99.890826837013378
30
0
10
-24.567141203864455
20
99.863333096257719
30
0
10
-24.61273456248847
20
99.835390740360054
30
0
10
-24.658186645842616
20
99.807007897690198
30
0
10
-24.703496007682951
20
99.778187313239414
30
0
10
-24.748660601356029
20
99.748928758391585
30
0
10
-24.793678370478396
20
99.719231771528015
30
0
10
-24.838547933243401
20
99.689098830305753
30
0
10
-24.883268673120988
20
99.658535780893089
30
0
10
-24.927840400541406
20
99.627550284903137
30
0
10
-24.97226313536903
20
99.59615082209028
30
0
10
-25.016536861578732
20
99.564345564329656
30
0
10
-25.060661243695538
20
99.532141068572258
30
0
10
-25.104635594959007
20
99.499542142636855
30
0
10
-25.148459018768552
20
99.466552516975554
30
0
10
-25.192130502456433
20
99.433175293112598
30
0
10
-25.235649022817825
20
99.399413443772659
30
0
10
-25.279013669685206
20
99.365270398833658
30
0
10
-25.322223664534818
20
99.330750126254955
30
0
10
-25.36527830279741
20
99.295856847288036
30
0
10
-25.408176918872645
20
99.260594855835379
30
0
10
-25.450918845709939
20
99.224968315400673
30
0
10
-25.493503371146456
20
99.188981024684026
30
0
10
-25.535929725256672
20
99.152636382588483
30
0
10
-25.578197095312444
20
99.115937523634855
30
0
10
-25.620304633766096
20
99.078887410645848
30
0
10
-25.662251470189052
20
99.04148893768388
30
0
10
-25.704036722747809
20
99.003745054684501
30
0
10
-25.745659510560355
20
98.965658793919346
30
2.2204460492503131e-15
10
-25.787118965037177
20
98.927233189001299
30
0
10
-25.828414244084708
20
98.888471222263121
30
0
10
-25.869544543175998
20
98.849375769174301
30
0
10
-25.910509116726903
20
98.809949531470835
30
0
10
-25.951307269322236
20
98.770195029971092
30
0
10
-25.991938302582994
20
98.730114689124932
30
0
10
-26.032401471050907
20
98.689710905154101
30
0
10
-26.07269594113291
20
98.648986115538207
30
0
10
-26.112820736703867
20
98.60794288849516
30
0
10
-26.1527747338938
20
98.56658394797833
30
0
10
-26.192556780117577
20
98.52491202850652
30
0
10
-26.232165792385377
20
98.482929763301257
30
0
10
-26.271600860777585
20
98.440639564199387
30
0
10
-26.310861361469907
20
98.398043500505267
30
0
10
-26.349947036821302
20
98.355143199810144
30
0
10
-26.388857869896981
20
98.3119398838503
30
0
10
-26.419846761899809
20
98.277135488248604
30
0
10
-26.443009878487025
20
98.250896427237834
30
0
10
-26.458417055651605
20
98.233343400230439
30
0
10
-26.466111919092178
20
98.224551806810823
30
0
0
ARC
5
157
100
AcDbEntity
8
0
100
AcDbCircle
10
-9.3782217350892729
20
102.00000000000009
30
0
40
17.499999999999964
210
-2.1273596280673709e-32
220
9.6285489420498576e-32
230
1
100
AcDbArc
50
192.45893903063154
51
197.54106096936849
0
SPLINE
5
158
100
AcDbEntity
8
0
100
AcDbSpline
70
4
71
5
72
81
73
75
74
0
42
0.000000001
43
0.0000000001
44
0.0000000001
40
-1
40
-1
40
-1
40
-1
40
-1
40
-1
40
-0.9857142857142841
40
-0.97142857142856986
40
-0.95714285714285563
40
-0.94285714285714139
40
-0.92857142857142716
40
-0.91428571428571292
40
-0.89999999999999869
40
-0.88571428571428445
40
-0.87142857142857022
40
-0.85714285714285599
40
-0.84285714285714175
40
-0.82857142857142752
40
-0.81428571428571328
40
-0.79999999999999905
40
-0.78571428571428481
40
-0.77142857142857058
40
-0.75714285714285634
40
-0.74285714285714211
40
-0.72857142857142787
40
-0.71428571428571364
40
-0.6999999999999994
40
-0.68571428571428517
40
-0.67142857142857093
40
-0.6571428571428567
40
-0.64285714285714246
40
-0.62857142857142823
40
-0.61428571428571399
40
-0.59999999999999976
40
-0.58571428571428552
40
-0.57142857142857129
40
-0.55714285714285705
40
-0.54285714285714282
40
-0.52857142857142858
40
-0.51428571428571435
40
-0.50000000000000011
40
-0.48571428571428582
40
-0.47142857142857153
40
-0.45714285714285724
40
-0.44285714285714295
40
-0.42857142857142866
40
-0.41428571428571437
40
-0.40000000000000008
40
-0.38571428571428579
40
-0.3714285714285715
40
-0.35714285714285721
40
-0.34285714285714292
40
-0.32857142857142863
40
-0.31428571428571433
40
-0.30000000000000004
40
-0.28571428571428575
40
-0.27142857142857146
40
-0.25714285714285717
40
-0.24285714285714291
40
-0.22857142857142862
40
-0.21428571428571433
40
-0.20000000000000004
40
-0.18571428571428575
40
-0.17142857142857146
40
-0.15714285714285717
40
-0.14285714285714288
40
-0.12857142857142859
40
-0.1142857142857143
40
-0.10000000000000001
40
-0.085714285714285715
40
-0.071428571428571425
40
-0.057142857142857141
40
-0.042857142857142858
40
-0.028571428571428571
40
-0.014285714285714285
40
0
40
0
40
0
40
0
40
0
40
0
41
1
41
1
41
1
41
1
41
1
41
1
41
1
41
1
41
1
41
1
41
1
41
1
41
1
41
1
41
1
41
1
41
1
41
1
41
1
41
1
41
1
41
1
41
1
41
1
41
1
41
1
41
1
41
1
41
1
41
1
41
1
41
1
41
1
41
1
41
1
41
1
41
1
41
1
41
1
41
1
41
1
41
1
41
1
41
1
41
1
41
1
41
1
41
1
41
1
41
1
41
1
41
1
41
1
41
1
41
1
41
1
41
1
41
1
41
1
41
1
41
1
41
1
41
1
41
1
41
1
41
1
41
1
41
1
41
1
41
1
41
1
41
1
41
1
41
1
41
1
10
-26.06449282810917
20
96.725688953972607
30
0
10
-26.053433084181169
20
96.721922642451759
30
0
10
-26.031313563852333
20
96.714424863732305
30
0
10
-25.99813418595161
20
96.703282728619143
30
0
10
-25.953894820441175
20
96.688635683866138
30
0
10
-25.898595392535299
20
96.670675931255033
30
2.2204460492503131e-15
10
-25.843296054409354
20
96.653066018698738
30
2.2204460492503131e-15
10
-25.78799743159745
20
96.635806995784591
30
2.2204460492503131e-15
10
-25.732700561018888
20
96.618900143227378
30
2.2204460492503131e-15
10
-25.677407017573522
20
96.60234694118509
30
0
10
-25.622118795193309
20
96.586149023409931
30
0
10
-25.566838148385681
20
96.57030812884372
30
0
10
-25.511567442578045
20
96.55482604935662
30
0
10
-25.456309013047051
20
96.539704582026488
30
0
10
-25.401064989250823
20
96.524945462932692
30
0
10
-25.345837311841912
20
96.510550386197949
30
0
10
-25.290627824516999
20
96.496521054282042
30
0
10
-25.235438344314996
20
96.482859217630647
30
0
10
-25.180270733892272
20
96.469566711628914
30
0
10
-25.125126989811658
20
96.45664550325678
30
0
10
-25.070009246548665
20
96.444097680480382
30
0
10
-25.014919724544086
20
96.431925405028878
30
0
10
-24.959860692824961
20
96.420130869793311
30
0
10
-24.904834430393304
20
96.408716260356982
30
0
10
-24.849843175907115
20
96.397683690522257
30
0
10
-24.794889130210848
20
96.387035231406401
30
0
10
-24.739974508713679
20
96.376773025115327
30
0
10
-24.685101582519231
20
96.366899379859575
30
0
10
-24.630272717854076
20
96.357416854212815
30
0
10
-24.5754904308194
20
96.348328381864391
30
0
10
-24.520757380849787
20
96.339637234988999
30
0
10
-24.466076291323276
20
96.331346799415087
30
0
10
-24.41144988304049
20
96.323460378569052
30
0
10
-24.356880814202437
20
96.315981019542605
30
0
10
-24.302371587976292
20
96.30891123761343
30
0
10
-24.247924576845765
20
96.302253095634157
30
0
10
-24.193542208568964
20
96.296008773269776
30
0
10
-24.139227124850827
20
96.290181052886211
30
0
10
-24.084982324352701
20
96.284773754796419
30
0
10
-24.030811376079981
20
96.279792389749133
30
0
10
-23.976718379848371
20
96.275244026783184
30
0
10
-23.922707558332004
20
96.271136019513492
30
0
10
-23.868782906509676
20
96.267474908306752
30
0
10
-23.814947881396229
20
96.264265447828251
30
0
10
-23.761204918499821
20
96.261509092888545
30
0
10
-23.707555567891433
20
96.259204415522419
30
0
10
-23.654001487716883
20
96.257350194415778
30
0
10
-23.600545302955798
20
96.255948083678817
30
0
10
-23.547191361350688
20
96.255004958974254
30
0
10
-23.493946916255158
20
96.254536596498866
30
0
10
-23.440821730860087
20
96.254566419734729
30
0
10
-23.387825821017366
20
96.255118429917729
30
0
10
-23.334967487505295
20
96.256211041153392
30
0
10
-23.2822516272687
20
96.25785178306522
30
0
10
-23.229676945733296
20
96.26002857731217
30
0
10
-23.177237468498291
20
96.262714415702519
30
0
10
-23.124927966847395
20
96.265884236305368
30
0
10
-23.072748744112992
20
96.269529809727587
30
0
10
-23.020709738334727
20
96.273672485378498
30
0
10
-22.968837281057152
20
96.278384236632064
30
0
10
-22.9171692333497
20
96.283772383404184
30
0
10
-22.86574281429413
20
96.289941444499135
30
0
10
-22.814583639862207
20
96.296958834171008
30
0
10
-22.763696392809059
20
96.304825511805646
30
0
10
-22.713049337230036
20
96.313427751531236
30
0
10
-22.662592079856474
20
96.3225910140374
30
0
10
-22.612286171237244
20
96.332173318469188
30
0
10
-22.562132874356688
20
96.342149781391043
30
0
10
-22.512199190765116
20
96.352692092852251
30
0
10
-22.462652490695618
20
96.364273659264626
30
0
10
-22.413718469261568
20
96.377545478201
30
0
10
-22.375243798059383
20
96.390045271484212
30
0
10
-22.346846759719892
20
96.400714380205443
30
0
10
-22.328129674014644
20
96.408432475136024
30
0
10
-22.318824700262159
20
96.412442863948314
30
0
0
LINE
5
159
100
AcDbEntity
8
0
100
AcDbLine
10
-22.318824700262159
20
96.412442863948314
30
0
11
-21.230054971403078
21
96.88169619619002
31
-3.0814879110195774e-32
0
ARC
5
160
100
AcDbEntity
8
0
100
AcDbCircle
10
-20.834256896530675
20
95.963358630843089
30
2.2204460492503131e-15
40
0.99999999999999734
210
-9.193754005976784e-32
220
1.7447445146608359e-31
230
1
100
AcDbArc
50
27.786532928894893
51
113.31575724492497
0
ARC
5
161
100
AcDbEntity
8
0
100
AcDbCircle
10
-9.3782217350892729
20
102.00000000000009
30
0
40
11.949199999999973
210
1.6439658609118721e-16
220
8.6627111261535024e-17
230
1
100
AcDbArc
50
207.78653292889447
51
212.21346707110558
0
ARC
5
162
100
AcDbEntity
8
0
100
AcDbCircle
10
-20.334124095036007
20
95.097103208122547
30
2.2204460492503131e-15
40
0.99999999999999822
210
1.0974191883171459e-47
220
8.175216614807308e-48
230
1
100
AcDbArc
50
-53.315757244924733
51
32.213467071105036
0
LINE
5
163
100
AcDbEntity
8
0
100
AcDbLine
10
-19.736719471632224
20
94.295163237840626
30
2.2204460492503131e-15
11
-20.687489642593576
21
93.586887659897997
31
-2.2204460492503131e-15
0
SPLINE
5
164
100
AcDbEntity
8
0
100
AcDbSpline
70
4
71
5
72
81
73
75
74
0
42
0.000000001
43
0.0000000001
44
0.0000000001
40
0
40
0
40
0
40
0
40
0
40
0
40
0.014285714285714285
40
0.028571428571428571
40
0.042857142857142858
40
0.057142857142857141
40
0.071428571428571425
40
0.085714285714285715
40
0.10000000000000001
40
0.1142857142857143
40
0.12857142857142859
40
0.14285714285714288
40
0.15714285714285717
40
0.17142857142857146
40
0.18571428571428575
40
0.20000000000000004
40
0.21428571428571433
40
0.22857142857142862
40
0.24285714285714291
40
0.25714285714285717
40
0.27142857142857146
40
0.28571428571428575
40
0.30000000000000004
40
0.31428571428571433
40
0.32857142857142863
40
0.34285714285714292
40
0.35714285714285721
40
0.3714285714285715
40
0.38571428571428579
40
0.40000000000000008
40
0.41428571428571437
40
0.42857142857142866
40
0.44285714285714295
40
0.45714285714285724
40
0.47142857142857153
40
0.48571428571428582
40
0.50000000000000011
40
0.51428571428571435
40
0.52857142857142858
40
0.54285714285714282
40
0.55714285714285705
40
0.57142857142857129
40
0.58571428571428552
40
0.59999999999999976
40
0.61428571428571399
40
0.62857142857142823
40
0.64285714285714246
40
0.6571428571428567
40
0.67142857142857093
40
0.68571428571428517
40
0.6999999999999994
40
0.71428571428571364
40
0.72857142857142787
40
0.74285714285714211
40
0.75714285714285634
40
0.77142857142857058
40
0.78571428571428481
40
0.79999999999999905
40
0.81428571428571328
40
0.82857142857142752
40
0.84285714285714175
40
0.85714285714285599
40
0.87142857142857022
40
0.88571428571428445
40
0.89999999999999869
40
0.91428571428571292
40
0.92857142857142716
40
0.94285714285714139
40
0.95714285714285563
40
0.97142857142856986
40
0.9857142857142841
40
1
40
1
40
1
40
1
40
1
40
1
41
1
41
1
41
1
41
1
41
1
41
1
41
1
41
1
41
1
41
1
41
1
41
1
41
1
41
1
41
1
41
1
41
1
41
1
41
1
41
1
41
1
41
1
41
1
41
1
41
1
41
1
41
1
41
1
41
1
41
1
41
1
41
1
41
1
41
1
41
1
41
1
41
1
41
1
41
1
41
1
41
1
41
1
41
1
41
1
41
1
41
1
41
1
41
1
41
1
41
1
41
1
41
1
41
1
41
1
41
1
41
1
41
1
41
1
41
1
41
1
41
1
41
1
41
1
41
1
41
1
41
1
41
1
41
1
41
1
41
1
41
1
41
1
41
1
41
1
41
1
10
-20.687489642593576
20
93.586887659898025
30
0
10
-20.695615228060312
20
93.580834510652963
30
0
10
-20.711657837191627
20
93.568484086412695
30
0
10
-20.735096075549716
20
93.549226084179068
30
0
10
-20.765158549676123
20
93.52215593815734
30
0
10
-20.801119292746474
20
93.486413741954308
30
0
10
-20.835922573509951
20
93.449295824226624
30
0
10
-20.870019324845771
20
93.411323141462375
30
0
10
-20.903735843616282
20
93.372877343741209
30
0
10
-20.937187316990599
20
93.33410230113239
30
0
10
-20.970351563789261
20
93.294986665694665
30
0
10
-21.003124849710591
20
93.25542614879916
30
0
10
-21.035381215912142
20
93.215289838939782
30
0
10
-21.067038040852207
20
93.17449338908105
30
0
10
-21.098093814005704
20
93.133041334300728
30
0
10
-21.128594109843405
20
93.090989565808187
30
0
10
-21.158610834764101
20
93.048422575675872
30
0
10
-21.188218000006579
20
93.005426812509668
30
0
10
-21.217464770568771
20
92.96206106678305
30
0
10
-21.246364666561725
20
92.918344619795491
30
0
10
-21.274910409455735
20
92.874273619543985
30
0
10
-21.303082909340102
20
92.829831006861923
30
0
10
-21.330861763635095
20
92.784998103670588
30
0
10
-21.358237159477667
20
92.739767749665262
30
0
10
-21.385213169240661
20
92.694147950536291
30
0
10
-21.411801589618079
20
92.648155102021335
30
0
10
-21.438018198363974
20
92.601809878720502
30
0
10
-21.463878399213442
20
92.555132447546171
30
0
10
-21.489392228076859
20
92.508136978185178
30
0
10
-21.514563465581546
20
92.460830673724402
30
0
10
-21.539392231739143
20
92.413216634517937
30
0
10
-21.563876639787715
20
92.365295685905153
30
0
10
-21.58801467803762
20
92.31706845630427
30
0
10
-21.611806388637675
20
92.268537782332544
30
0
10
-21.635254160741368
20
92.219709035185261
30
0
10
-21.658361660983037
20
92.170588944798908
30
0
10
-21.681133146442907
20
92.121184844923988
30
0
10
-21.703572689180387
20
92.0715038206245
30
0
10
-21.72568327714114
20
92.02155171812413
30
0
10
-21.747466719482546
20
91.971333044496248
30
0
10
-21.768924104951765
20
91.920851478707448
30
0
10
-21.79005610731496
20
91.870110213090399
30
0
10
-21.810863326813063
20
91.819112333702563
30
0
10
-21.831346690156849
20
91.76786126598914
30
0
10
-21.851507507104657
20
91.716360835565624
30
0
10
-21.871347278107351
20
91.664615050427628
30
0
10
-21.890867573689366
20
91.612627962003984
30
0
10
-21.910069897919811
20
91.560403509519915
30
0
10
-21.928955533397612
20
91.507945338827668
30
0
10
-21.947525512799245
20
91.45525677842636
30
0
10
-21.965780699541888
20
91.40234094925475
30
0
10
-21.983721841039085
20
91.349200840966361
30
0
10
-22.00134963050877
20
91.29583939510708
30
0
10
-22.018664779228505
20
91.242259607312747
30
0
10
-22.035668040467918
20
91.188464544048685
30
0
10
-22.052360178812869
20
91.134457266795465
30
0
10
-22.068741956155318
20
91.080240779375799
30
2.2204460492503131e-15
10
-22.084814113489216
20
91.025817974282774
30
2.2204460492503131e-15
10
-22.10057735598777
20
90.971191564080485
30
2.2204460492503131e-15
10
-22.116032341812918
20
90.916364079569249
30
2.2204460492503131e-15
10
-22.131179678375659
20
90.861337969573754
30
2.2204460492503131e-15
10
-22.146019918201084
20
90.806115682012049
30
2.2204460492503131e-15
10
-22.160553558116174
20
90.750699744599913
30
2.2204460492503131e-15
10
-22.174781036880752
20
90.695092869541853
30
2.2204460492503131e-15
10
-22.188702743171561
20
90.639297977785702
30
2.2204460492503131e-15
10
-22.202319046079978
20
90.58331801378678
30
2.2204460492503131e-15
10
-22.215630324320056
20
90.527155799476674
30
2.2204460492503131e-15
10
-22.228636995796759
20
90.470813878527267
30
0
10
-22.241339554914546
20
90.41429435492077
30
0
10
-22.253738592345357
20
90.357598767013116
30
0
10
-22.265834704291386
20
90.300728181326321
30
0
10
-22.275269674200132
20
90.255092244570477
30
0
10
-22.282209991090095
20
90.220786992870089
30
0
10
-22.286776484411522
20
90.197882036986087
30
0
10
-22.289044634919911
20
90.186420862024647
30
0
0
ARC
5
165
100
AcDbEntity
8
0
100
AcDbCircle
10
-9.3782217350892729
20
102.00000000000009
30
0
40
17.499999999999982
210
-6.6566219519166836e-32
220
7.274888171363262e-32
230
1
100
AcDbArc
50
222.4589390306316
51
227.54106096936854
0
SPLINE
5
166
100
AcDbEntity
8
0
100
AcDbSpline
70
4
71
5
72
81
73
75
74
0
42
0.000000001
43
0.0000000001
44
0.0000000001
40
-1
40
-1
40
-1
40
-1
40
-1
40
-1
40
-0.9857142857142841
40
-0.97142857142856986
40
-0.95714285714285563
40
-0.94285714285714139
40
-0.92857142857142716
40
-0.91428571428571292
40
-0.89999999999999869
40
-0.88571428571428445
40
-0.87142857142857022
40
-0.85714285714285599
40
-0.84285714285714175
40
-0.82857142857142752
40
-0.81428571428571328
40
-0.79999999999999905
40
-0.78571428571428481
40
-0.77142857142857058
40
-0.75714285714285634
40
-0.74285714285714211
40
-0.72857142857142787
40
-0.71428571428571364
40
-0.6999999999999994
40
-0.68571428571428517
40
-0.67142857142857093
40
-0.6571428571428567
40
-0.64285714285714246
40
-0.62857142857142823
40
-0.61428571428571399
40
-0.59999999999999976
40
-0.58571428571428552
40
-0.57142857142857129
40
-0.55714285714285705
40
-0.54285714285714282
40
-0.52857142857142858
40
-0.51428571428571435
40
-0.50000000000000011
40
-0.48571428571428582
40
-0.47142857142857153
40
-0.45714285714285724
40
-0.44285714285714295
40
-0.42857142857142866
40
-0.41428571428571437
40
-0.40000000000000008
40
-0.38571428571428579
40
-0.3714285714285715
40
-0.35714285714285721
40
-0.34285714285714292
40
-0.32857142857142863
40
-0.31428571428571433
40
-0.30000000000000004
40
-0.28571428571428575
40
-0.27142857142857146
40
-0.25714285714285717
40
-0.24285714285714291
40
-0.22857142857142862
40
-0.21428571428571433
40
-0.20000000000000004
40
-0.18571428571428575
40
-0.17142857142857146
40
-0.15714285714285717
40
-0.14285714285714288
40
-0.12857142857142859
40
-0.1142857142857143
40
-0.10000000000000001
40
-0.085714285714285715
40
-0.071428571428571425
40
-0.057142857142857141
40
-0.042857142857142858
40
-0.028571428571428571
40
-0.014285714285714285
40
0
40
0
40
0
40
0
40
0
40
0
41
1
41
1
41
1
41
1
41
1
41
1
41
1
41
1
41
1
41
1
41
1
41
1
41
1
41
1
41
1
41
1
41
1
41
1
41
1
41
1
41
1
41
1
41
1
41
1
41
1
41
1
41
1
41
1
41
1
41
1
41
1
41
1
41
1
41
1
41
1
41
1
41
1
41
1
41
1
41
1
41
1
41
1
41
1
41
1
41
1
41
1
41
1
41
1
41
1
41
1
41
1
41
1
41
1
41
1
41
1
41
1
41
1
41
1
41
1
41
1
41
1
41
1
41
1
41
1
41
1
41
1
41
1
41
1
41
1
41
1
41
1
41
1
41
1
41
1
41
1
10
-21.191800873064693
20
89.089177100169451
30
0
10
-21.180339698103271
20
89.091445250677822
30
0
10
-21.157434742219255
20
89.096011743999256
30
0
10
-21.123129490518878
20
89.102952060889208
30
0
10
-21.077493553763034
20
89.112387030797962
30
0
10
-21.020622968076243
20
89.124483142743998
30
0
10
-20.963927380168577
20
89.136882180174808
30
0
10
-20.907407856562088
20
89.149584739292592
30
0
10
-20.85106593561267
20
89.162591410769295
30
0
10
-20.794903721302582
20
89.175902689009376
30
0
10
-20.738923757303652
20
89.189518991917794
30
0
10
-20.683128865547506
20
89.203440698208595
30
0
10
-20.627521990489448
20
89.217668176973177
30
0
10
-20.572106053077302
20
89.232201816888278
30
0
10
-20.516883765515605
20
89.247042056713696
30
0
10
-20.461857655520102
20
89.262189393276429
30
0
10
-20.407030171008863
20
89.277644379101574
30
0
10
-20.352403760806578
20
89.293407621600124
30
0
10
-20.297980955713545
20
89.309479778934033
30
0
10
-20.243764468293879
20
89.325861556276479
30
0
10
-20.189757191040655
20
89.342553694621429
30
0
10
-20.135962127776597
20
89.359556955860853
30
0
10
-20.082382339982271
20
89.376872104580585
30
0
10
-20.029020894122983
20
89.39449989405027
30
0
10
-19.975880785834605
20
89.412441035547459
30
-2.2204460492503131e-15
10
-19.922964956662987
20
89.430696222290109
30
-2.2204460492503131e-15
10
-19.870276396261687
20
89.449266201691728
30
-2.2204460492503131e-15
10
-19.817818225569429
20
89.468151837169529
30
-2.2204460492503131e-15
10
-19.765593773085371
20
89.487354161399978
30
-2.2204460492503131e-15
10
-19.713606684661723
20
89.506874456982004
30
-2.2204460492503131e-15
10
-19.661860899523738
20
89.526714227984684
30
-2.2204460492503131e-15
10
-19.610360469100215
20
89.546875044932506
30
-2.2204460492503131e-15
10
-19.559109401386795
20
89.567358408276306
30
-2.2204460492503131e-15
10
-19.508111521998959
20
89.588165627774401
30
-2.2204460492503131e-15
10
-19.457370256381907
20
89.60929763013759
30
-2.2204460492503131e-15
10
-19.4068886905931
20
89.630755015606809
30
-2.2204460492503131e-15
10
-19.356670016965229
20
89.652538457948211
30
-2.2204460492503131e-15
10
-19.306717914464858
20
89.674649045908964
30
-2.2204460492503131e-15
10
-19.25703689016537
20
89.697088588646437
30
-2.2204460492503131e-15
10
-19.207632790290454
20
89.719860074106322
30
-2.2204460492503131e-15
10
-19.158512699904094
20
89.742967574347986
30
-2.2204460492503131e-15
10
-19.109683952756807
20
89.76641534645168
30
-2.2204460492503131e-15
10
-19.061153278785078
20
89.790207057051731
30
-2.2204460492503131e-15
10
-19.012926049184205
20
89.814345095301633
30
-2.2204460492503131e-15
10
-18.965005100571421
20
89.838829503350212
30
-2.2204460492503131e-15
10
-18.917391061364949
20
89.863658269507809
30
-2.2204460492503131e-15
10
-18.870084756904166
20
89.888829507012503
30
-2.2204460492503131e-15
10
-18.823089287543183
20
89.914343335875913
30
-2.2204460492503131e-15
10
-18.776411856368846
20
89.940203536725377
30
-2.2204460492503131e-15
10
-18.73006663306802
20
89.966420145471275
30
-2.2204460492503131e-15
10
-18.68407378455306
20
89.993008565848683
30
-2.2204460492503131e-15
10
-18.638453985424103
20
90.019984575611687
30
-2.2204460492503131e-15
10
-18.593223631418763
20
90.047359971454256
30
-2.2204460492503131e-15
10
-18.548390728227435
20
90.075138825749249
30
-2.2204460492503131e-15
10
-18.503948115545366
20
90.103311325633626
30
-2.2204460492503131e-15
10
-18.459877115293857
20
90.131857068527609
30
-2.2204460492503131e-15
10
-18.416160668306301
20
90.160756964520573
30
-2.2204460492503131e-15
10
-18.372794922579686
20
90.190003735082783
30
-2.2204460492503131e-15
10
-18.32979915941349
20
90.21961090032525
30
-2.2204460492503131e-15
10
-18.287232169281168
20
90.249627625245935
30
-2.2204460492503131e-15
10
-18.245180400788634
20
90.280127921083647
30
-2.2204460492503131e-15
10
-18.203728346008315
20
90.311183694237144
30
-2.2204460492503131e-15
10
-18.162931896149569
20
90.342840519177216
30
-2.2204460492503131e-15
10
-18.122795586290202
20
90.375096885378753
30
-2.2204460492503131e-15
10
-18.083235069394689
20
90.40787017130009
30
-2.2204460492503131e-15
10
-18.044119433956972
20
90.441034418098752
30
-2.2204460492503131e-15
10
-18.005344391348149
20
90.47448589147308
30
-2.2204460492503131e-15
10
-17.966898593626976
20
90.50820241024357
30
-2.2204460492503131e-15
10
-17.928925910862745
20
90.542299161579393
30
0
10
-17.891807993135053
20
90.577102442342877
30
0
10
-17.856065796932025
20
90.613063185413239
30
0
10
-17.828995650910283
20
90.643125659539635
30
0
10
-17.809737648676666
20
90.666563897897717
30
0
10
-17.797387224436395
20
90.682606507029035
30
0
10
-17.79133407519134
20
90.690732092495779
30
0
0
LINE
5
167
100
AcDbEntity
8
0
100
AcDbLine
10
-17.79133407519134
20
90.690732092495793
30
0
11
-17.083058497248732
21
91.641502263457113
31
-1.2325951644078309e-31
0
ARC
5
168
100
AcDbEntity
8
0
100
AcDbCircle
10
-16.2811185269668
20
91.044097640053337
30
2.2204460492503131e-15
40
1.0000000000000031
210
0
220
-0
230
1
100
AcDbArc
50
57.786532928895141
51
143.31575724492544
0
ARC
5
169
100
AcDbEntity
8
0
100
AcDbCircle
10
-9.3782217350892729
20
102.00000000000009
30
0
40
11.949199999999982
210
9.9058064219636315e-17
220
1.5721957205454373e-16
230
1
100
AcDbArc
50
237.78653292889445
51
242.21346707110561
0
ARC
5
170
100
AcDbEntity
8
0
100
AcDbCircle
10
-15.414863104246274
20
90.543964838558679
30
2.2204460492503131e-15
40
0.999999999999998
210
7.8057406907143136e-32
220
1.8111015077450757e-31
230
1
100
AcDbArc
50
-23.315757244925269
51
62.213467071104091
0
LINE
5
171
100
AcDbEntity
8
0
100
AcDbLine
10
-14.496525538899359
20
90.148166763686277
30
2.2204460492503131e-15
11
-14.965778871141053
21
89.059397034827171
31
1.2325951644078309e-31
0
SPLINE
5
172
100
AcDbEntity
8
0
100
AcDbSpline
70
4
71
5
72
81
73
75
74
0
42
0.000000001
43
0.0000000001
44
0.0000000001
40
0
40
0
40
0
40
0
40
0
40
0
40
0.014285714285714285
40
0.028571428571428571
40
0.042857142857142858
40
0.057142857142857141
40
0.071428571428571425
40
0.085714285714285715
40
0.10000000000000001
40
0.1142857142857143
40
0.12857142857142859
40
0.14285714285714288
40
0.15714285714285717
40
0.17142857142857146
40
0.18571428571428575
40
0.20000000000000004
40
0.21428571428571433
40
0.22857142857142862
40
0.24285714285714291
40
0.25714285714285717
40
0.27142857142857146
40
0.28571428571428575
40
0.30000000000000004
40
0.31428571428571433
40
0.32857142857142863
40
0.34285714285714292
40
0.35714285714285721
40
0.3714285714285715
40
0.38571428571428579
40
0.40000000000000008
40
0.41428571428571437
40
0.42857142857142866
40
0.44285714285714295
40
0.45714285714285724
40
0.47142857142857153
40
0.48571428571428582
40
0.50000000000000011
40
0.51428571428571435
40
0.52857142857142858
40
0.54285714285714282
40
0.55714285714285705
40
0.57142857142857129
40
0.58571428571428552
40
0.59999999999999976
40
0.61428571428571399
40
0.62857142857142823
40
0.64285714285714246
40
0.6571428571428567
40
0.67142857142857093
40
0.68571428571428517
40
0.6999999999999994
40
0.71428571428571364
40
0.72857142857142787
40
0.74285714285714211
40
0.75714285714285634
40
0.77142857142857058
40
0.78571428571428481
40
0.79999999999999905
40
0.81428571428571328
40
0.82857142857142752
40
0.84285714285714175
40
0.85714285714285599
40
0.87142857142857022
40
0.88571428571428445
40
0.89999999999999869
40
0.91428571428571292
40
0.92857142857142716
40
0.94285714285714139
40
0.95714285714285563
40
0.97142857142856986
40
0.9857142857142841
40
1
40
1
40
1
40
1
40
1
40
1
41
1
41
1
41
1
41
1
41
1
41
1
41
1
41
1
41
1
41
1
41
1
41
1
41
1
41
1
41
1
41
1
41
1
41
1
41
1
41
1
41
1
41
1
41
1
41
1
41
1
41
1
41
1
41
1
41
1
41
1
41
1
41
1
41
1
41
1
41
1
41
1
41
1
41
1
41
1
41
1
41
1
41
1
41
1
41
1
41
1
41
1
41
1
41
1
41
1
41
1
41
1
41
1
41
1
41
1
41
1
41
1
41
1
41
1
41
1
41
1
41
1
41
1
41
1
41
1
41
1
41
1
41
1
41
1
41
1
41
1
41
1
41
1
41
1
41
1
41
1
10
-14.965778871141051
20
89.059397034827185
30
0
10
-14.969789259953339
20
89.050092061074707
30
0
10
-14.977507354883908
20
89.031374975369459
30
0
10
-14.988176463605161
20
89.002977937029968
30
0
10
-15.000676256888369
20
88.964503265827787
30
0
10
-15.013948075824747
20
88.915569244393723
30
0
10
-15.02552964223711
20
88.866022544324238
30
0
10
-15.036071953698332
20
88.816088860732663
30
0
10
-15.046048416620186
20
88.765935563852096
30
0
10
-15.055630721051955
20
88.715629655232874
30
0
10
-15.064793983558118
20
88.665172397859322
30
0
10
-15.073396223283719
20
88.614525342280288
30
0
10
-15.081262900918356
20
88.563638095227134
30
0
10
-15.08828029059023
20
88.512478920795218
30
0
10
-15.094449351685173
20
88.461052501739644
30
0
10
-15.099837498457296
20
88.409384454032192
30
0
10
-15.104549249710859
20
88.357511996754624
30
0
10
-15.108691925361793
20
88.305472990976341
30
0
10
-15.112337498783997
20
88.253293768241946
30
0
10
-15.115507319386852
20
88.200984266591064
30
0
10
-15.118193157777203
20
88.148544789356038
30
0
10
-15.120369952024141
20
88.095970107820648
30
0
10
-15.122010693935973
20
88.043254247584045
30
0
10
-15.123103305171625
20
87.990395914071968
30
0
10
-15.123655315354638
20
87.937400004229261
30
0
10
-15.123685138590497
20
87.884274818834186
30
0
10
-15.123216776115111
20
87.831030373738656
30
0
10
-15.122273651410548
20
87.777676432133546
30
2.2204460492503131e-15
10
-15.120871540673587
20
87.724220247372457
30
2.2204460492503131e-15
10
-15.119017319566943
20
87.670666167197908
30
2.2204460492503131e-15
10
-15.11671264220081
20
87.617016816589512
30
2.2204460492503131e-15
10
-15.113956287261107
20
87.563273853693119
30
2.2204460492503131e-15
10
-15.110746826782602
20
87.509438828579661
30
2.2204460492503131e-15
10
-15.107085715575879
20
87.455514176757347
30
2.2204460492503131e-15
10
-15.102977708306184
20
87.401503355240976
30
2.2204460492503131e-15
10
-15.098429345340241
20
87.347410359009373
30
2.2204460492503131e-15
10
-15.093447980292938
20
87.293239410736646
30
2.2204460492503131e-15
10
-15.088040682203159
20
87.238994610238507
30
2.2204460492503131e-15
10
-15.082212961819595
20
87.18467952652037
30
2.2204460492503131e-15
10
-15.075968639455192
20
87.130297158243593
30
2.2204460492503131e-15
10
-15.069310497475929
20
87.075850147113044
30
2.2204460492503131e-15
10
-15.062240715546761
20
87.021340920886914
30
2.2204460492503131e-15
10
-15.054761356520318
20
86.966771852048851
30
2.2204460492503131e-15
10
-15.046874935674277
20
86.912145443766065
30
2.2204460492503131e-15
10
-15.038584500100358
20
86.857464354239568
30
2.2204460492503131e-15
10
-15.029893353224967
20
86.802731304269955
30
2.2204460492503131e-15
10
-15.020804880876552
20
86.747949017235271
30
2.2204460492503131e-15
10
-15.011322355229792
20
86.693120152570117
30
2.2204460492503131e-15
10
-15.001448709974053
20
86.638247226375654
30
2.2204460492503131e-15
10
-14.991186503682965
20
86.583332604878493
30
2.2204460492503131e-15
10
-14.980538044567115
20
86.528378559182229
30
2.2204460492503131e-15
10
-14.969505474732387
20
86.473387304696047
30
2.2204460492503131e-15
10
-14.958090865296057
20
86.418361042264394
30
2.2204460492503131e-15
10
-14.946296330060491
20
86.363302010545254
30
2.2204460492503131e-15
10
-14.934124054608976
20
86.308212488540676
30
0
10
-14.921576231832574
20
86.253094745277679
30
0
10
-14.908655023460442
20
86.197951001197083
30
0
10
-14.895362517458704
20
86.142783390774355
30
0
10
-14.88170068080732
20
86.087593910572338
30
0
10
-14.867671348891411
20
86.032384423247436
30
0
10
-14.853276272156666
20
85.977156745838514
30
0
10
-14.838517153062885
20
85.921912722042308
30
0
10
-14.823395685732736
20
85.866654292511299
30
0
10
-14.80791360624564
20
85.81138358670367
30
0
10
-14.792072711679429
20
85.756102939896039
30
0
10
-14.775874793904279
20
85.700814717515811
30
0
10
-14.759321591861989
20
85.645521174070453
30
0
10
-14.742414739304774
20
85.590224303491894
30
0
10
-14.725155716390613
20
85.534925680679976
30
0
10
-14.707545803834334
20
85.479626342554042
30
0
10
-14.68958605122322
20
85.424326914648177
30
0
10
-14.674939006470215
20
85.380087549137741
30
0
10
-14.663796871357055
20
85.346908171237018
30
0
10
-14.656299092637612
20
85.324788650908175
30
0
10
-14.652532781116772
20
85.313728906980174
30
0
0
ARC
5
173
100
AcDbEntity
8
0
100
AcDbCircle
10
-9.3782217350892729
20
102.00000000000009
30
0
40
17.499999999999979
210
-4.7011238997153104e-32
220
1.4859634950665815e-32
230
1
100
AcDbArc
50
252.45893903063151
51
257.54106096936852
0
SPLINE
5
174
100
AcDbEntity
8
0
100
AcDbSpline
70
4
71
5
72
81
73
75
74
0
42
0.000000001
43
0.0000000001
44
0.0000000001
40
-1
40
-1
40
-1
40
-1
40
-1
40
-1
40
-0.9857142857142841
40
-0.97142857142856986
40
-0.95714285714285563
40
-0.94285714285714139
40
-0.92857142857142716
40
-0.91428571428571292
40
-0.89999999999999869
40
-0.88571428571428445
40
-0.87142857142857022
40
-0.85714285714285599
40
-0.84285714285714175
40
-0.82857142857142752
40
-0.81428571428571328
40
-0.79999999999999905
40
-0.78571428571428481
40
-0.77142857142857058
40
-0.75714285714285634
40
-0.74285714285714211
40
-0.72857142857142787
40
-0.71428571428571364
40
-0.6999999999999994
40
-0.68571428571428517
40
-0.67142857142857093
40
-0.6571428571428567
40
-0.64285714285714246
40
-0.62857142857142823
40
-0.61428571428571399
40
-0.59999999999999976
40
-0.58571428571428552
40
-0.57142857142857129
40
-0.55714285714285705
40
-0.54285714285714282
40
-0.52857142857142858
40
-0.51428571428571435
40
-0.50000000000000011
40
-0.48571428571428582
40
-0.47142857142857153
40
-0.45714285714285724
40
-0.44285714285714295
40
-0.42857142857142866
40
-0.41428571428571437
40
-0.40000000000000008
40
-0.38571428571428579
40
-0.3714285714285715
40
-0.35714285714285721
40
-0.34285714285714292
40
-0.32857142857142863
40
-0.31428571428571433
40
-0.30000000000000004
40
-0.28571428571428575
40
-0.27142857142857146
40
-0.25714285714285717
40
-0.24285714285714291
40
-0.22857142857142862
40
-0.21428571428571433
40
-0.20000000000000004
40
-0.18571428571428575
40
-0.17142857142857146
40
-0.15714285714285717
40
-0.14285714285714288
40
-0.12857142857142859
40
-0.1142857142857143
40
-0.10000000000000001
40
-0.085714285714285715
40
-0.071428571428571425
40
-0.057142857142857141
40
-0.042857142857142858
40
-0.028571428571428571
40
-0.014285714285714285
40
0
40
0
40
0
40
0
40
0
40
0
41
1
41
1
41
1
41
1
41
1
41
1
41
1
41
1
41
1
41
1
41
1
41
1
41
1
41
1
41
1
41
1
41
1
41
1
41
1
41
1
41
1
41
1
41
1
41
1
41
1
41
1
41
1
41
1
41
1
41
1
41
1
41
1
41
1
41
1
41
1
41
1
41
1
41
1
41
1
41
1
41
1
41
1
41
1
41
1
41
1
41
1
41
1
41
1
41
1
41
1
41
1
41
1
41
1
41
1
41
1
41
1
41
1
41
1
41
1
41
1
41
1
41
1
41
1
41
1
41
1
41
1
41
1
41
1
41
1
41
1
41
1
41
1
41
1
41
1
41
1
10
-13.153669928278545
20
84.912109815997155
30
0
10
-13.14487833485893
20
84.919804679437746
30
0
10
-13.127325307851518
20
84.935211856602308
30
0
10
-13.101086246840762
20
84.958374973189535
30
0
10
-13.066281851239072
20
84.98936386519236
30
0
10
-13.023078535279227
20
85.028274698268049
30
0
10
-12.980178234584097
20
85.067360373619437
30
0
10
-12.93758217088998
20
85.106620874311744
30
0
10
-12.895291971788115
20
85.146055942703953
30
0
10
-12.853309706582831
20
85.18566495497177
30
0
10
-12.811637787111035
20
85.225447001195533
30
0
10
-12.770278846594207
20
85.265400998385473
30
0
10
-12.729235619551158
20
85.305525793956434
30
0
10
-12.688510829935256
20
85.345820264038423
30
0
10
-12.648107045964444
20
85.386283432506346
30
0
10
-12.608026705118274
20
85.426914465767112
30
0
10
-12.568272203618523
20
85.467712618362427
30
0
10
-12.528845965915066
20
85.508677191913335
30
-2.2204460492503131e-15
10
-12.489750512826239
20
85.549807491004643
30
-2.2204460492503131e-15
10
-12.450988546088075
20
85.59110277005216
30
-2.2204460492503131e-15
10
-12.412562941170027
20
85.632562224528996
30
-2.2204460492503131e-15
10
-12.374476680404868
20
85.674185012341553
30
-2.2204460492503131e-15
10
-12.336732797405475
20
85.715970264900278
30
-2.2204460492503131e-15
10
-12.299334324443507
20
85.757917101323244
30
-2.2204460492503131e-15
10
-12.26228421145451
20
85.800024639776908
30
-2.2204460492503131e-15
10
-12.225585352500891
20
85.842292009832676
30
-2.2204460492503131e-15
10
-12.18924071040535
20
85.884718363942895
30
-2.2204460492503131e-15
10
-12.153253419688696
20
85.927302889379405
30
-2.2204460492503131e-15
10
-12.117626879253994
20
85.970044816216699
30
-2.2204460492503131e-15
10
-12.082364887801331
20
86.012943432291934
30
-2.2204460492503131e-15
10
-12.047471608834414
20
86.055998070554537
30
-2.2204460492503131e-15
10
-12.012951336255712
20
86.099208065404142
30
-2.2204460492503131e-15
10
-11.978808291316707
20
86.142572712271516
30
-2.2204460492503131e-15
10
-11.945046441976761
20
86.186091232632904
30
-2.2204460492503131e-15
10
-11.911669218113811
20
86.229762716320806
30
-2.2204460492503131e-15
10
-11.878679592452496
20
86.273586140130334
30
-2.2204460492503131e-15
10
-11.846080666517109
20
86.317560491393806
30
0
10
-11.81387617075972
20
86.361684873510598
30
0
10
-11.782070912999069
20
86.405958599720321
30
0
10
-11.750671450186223
20
86.450381334547927
30
0
10
-11.719685954196279
20
86.494953061968346
30
0
10
-11.689122904783609
20
86.53967380184595
30
0
10
-11.658989963561341
20
86.584543364610937
30
0
10
-11.629292976697789
20
86.629561133733318
30
0
10
-11.60003442184996
20
86.674725727406383
30
0
10
-11.571213837399165
20
86.720035089246736
30
0
10
-11.542830994729309
20
86.765487172600885
30
0
10
-11.514888638831636
20
86.811080531224889
30
0
10
-11.487394898075989
20
86.856814837694685
30
0
10
-11.460367061726364
20
86.902691698520101
30
0
10
-11.433830296708706
20
86.94871437027092
30
0
10
-11.407810396628983
20
86.994886179582892
30
0
10
-11.38232745895948
20
87.041209144823895
30
0
10
-11.357390453017883
20
87.087682789927058
30
0
10
-11.332988271366842
20
87.134302196856055
30
0
10
-11.309094537025842
20
87.181059035497924
30
0
10
-11.285684931367905
20
87.227945303088319
30
0
10
-11.262752479195697
20
87.274956622237156
30
0
10
-11.240320638659909
20
87.32209506105427
30
0
10
-11.218464906303019
20
87.369373802440165
30
0
10
-11.197297154433272
20
87.416813717704827
30
0
10
-11.176926508531206
20
87.464434833580086
30
0
10
-11.157424159039344
20
87.51224867311069
30
0
10
-11.138793278187746
20
87.560251660604692
30
0
10
-11.120919508530051
20
87.608414417225816
30
0
10
-11.103626497955151
20
87.65669331516969
30
0
10
-11.086772062710249
20
87.705050662210283
30
0
10
-11.070335284600205
20
87.753472922853319
30
0
10
-11.054498352344446
20
87.801987917078762
30
0
10
-11.039754933038424
20
87.850687401218835
30
0
10
-11.026781654674728
20
87.899701416358226
30
0
10
-11.018369457598947
20
87.93927135566318
30
0
10
-11.013410657617545
20
87.969198466618067
30
0
10
-11.01073618104361
20
87.989266985788888
30
0
10
-11.009556792757863
20
87.99933052384624
30
0
0
LINE
5
175
100
AcDbEntity
8
0
100
AcDbLine
10
-11.009556792757865
20
87.999330523846254
30
0
11
-10.871557234860131
21
89.176859434030547
31
-1.2325951644078309e-31
0
ARC
5
176
100
AcDbEntity
8
0
100
AcDbCircle
10
-9.8783545365839469
20
89.060461838965551
30
0
40
0.99999999999999967
210
-2.9333284015954581e-32
220
1.9849626115083607e-31
230
1
100
AcDbArc
50
87.786532928894374
51
173.31575724492455
0
ARC
5
177
100
AcDbEntity
8
0
100
AcDbCircle
10
-9.3782217350892729
20
102.00000000000009
30
0
40
11.949199999999996
210
2.0916874057352975e-32
220
-1.7325263812042394e-32
230
1
100
AcDbArc
50
267.78653292889447
51
272.21346707110547
0
ARC
5
178
100
AcDbEntity
8
0
100
AcDbCircle
10
-8.8780889335946043
20
89.060461838965551
30
0
40
0.99999999999999811
210
3.6726505295160952e-32
220
4.3041333847741203e-33
230
1
100
AcDbArc
50
6.6842427550754779
51
92.213467071105342
0
LINE
5
179
100
AcDbEntity
8
0
100
AcDbLine
10
-7.8848862353184241
20
89.176859434030547
30
-3.6977854932234879e-32
11
-7.746886677420691
21
87.99933052384624
31
-2.2204460492503131e-15
0
SPLINE
5
180
100
AcDbEntity
8
0
100
AcDbSpline
70
4
71
5
72
81
73
75
74
0
42
0.000000001
43
0.0000000001
44
0.0000000001
40
0
40
0
40
0
40
0
40
0
40
0
40
0.014285714285714285
40
0.028571428571428571
40
0.042857142857142858
40
0.057142857142857141
40
0.071428571428571425
40
0.085714285714285715
40
0.10000000000000001
40
0.1142857142857143
40
0.12857142857142859
40
0.14285714285714288
40
0.15714285714285717
40
0.17142857142857146
40
0.18571428571428575
40
0.20000000000000004
40
0.21428571428571433
40
0.22857142857142862
40
0.24285714285714291
40
0.25714285714285717
40
0.27142857142857146
40
0.28571428571428575
40
0.30000000000000004
40
0.31428571428571433
40
0.32857142857142863
40
0.34285714285714292
40
0.35714285714285721
40
0.3714285714285715
40
0.38571428571428579
40
0.40000000000000008
40
0.41428571428571437
40
0.42857142857142866
40
0.44285714285714295
40
0.45714285714285724
40
0.47142857142857153
40
0.48571428571428582
40
0.50000000000000011
40
0.51428571428571435
40
0.52857142857142858
40
0.54285714285714282
40
0.55714285714285705
40
0.57142857142857129
40
0.58571428571428552
40
0.59999999999999976
40
0.61428571428571399
40
0.62857142857142823
40
0.64285714285714246
40
0.6571428571428567
40
0.67142857142857093
40
0.68571428571428517
40
0.6999999999999994
40
0.71428571428571364
40
0.72857142857142787
40
0.74285714285714211
40
0.75714285714285634
40
0.77142857142857058
40
0.78571428571428481
40
0.79999999999999905
40
0.81428571428571328
40
0.82857142857142752
40
0.84285714285714175
40
0.85714285714285599
40
0.87142857142857022
40
0.88571428571428445
40
0.89999999999999869
40
0.91428571428571292
40
0.92857142857142716
40
0.94285714285714139
40
0.95714285714285563
40
0.97142857142856986
40
0.9857142857142841
40
1
40
1
40
1
40
1
40
1
40
1
41
1
41
1
41
1
41
1
41
1
41
1
41
1
41
1
41
1
41
1
41
1
41
1
41
1
41
1
41
1
41
1
41
1
41
1
41
1
41
1
41
1
41
1
41
1
41
1
41
1
41
1
41
1
41
1
41
1
41
1
41
1
41
1
41
1
41
1
41
1
41
1
41
1
41
1
41
1
41
1
41
1
41
1
41
1
41
1
41
1
41
1
41
1
41
1
41
1
41
1
41
1
41
1
41
1
41
1
41
1
41
1
41
1
41
1
41
1
41
1
41
1
41
1
41
1
41
1
41
1
41
1
41
1
41
1
41
1
41
1
41
1
41
1
41
1
41
1
41
1
10
-7.746886677420691
20
87.99933052384624
30
0
10
-7.7457072891349448
20
87.989266985788888
30
0
10
-7.7430328125610117
20
87.969198466618053
30
0
10
-7.7380740125796068
20
87.93927135566318
30
0
10
-7.7296618155038246
20
87.899701416358226
30
0
10
-7.7166885371401293
20
87.850687401218835
30
0
10
-7.7019451178341045
20
87.801987917078762
30
0
10
-7.6861081855783464
20
87.753472922853319
30
0
10
-7.6696714074683054
20
87.705050662210283
30
0
10
-7.6528169722234054
20
87.65669331516969
30
0
10
-7.6355239616485022
20
87.608414417225816
30
0
10
-7.6176501919908057
20
87.560251660604692
30
0
10
-7.5990193111392106
20
87.51224867311069
30
0
10
-7.5795169616473457
20
87.464434833580086
30
0
10
-7.5591463157452772
20
87.416813717704812
30
0
10
-7.5379785638755301
20
87.369373802440165
30
0
10
-7.5161228315186399
20
87.32209506105427
30
0
10
-7.4936909909828522
20
87.274956622237156
30
0
10
-7.4707585388106441
20
87.227945303088319
30
0
10
-7.4473489331527052
20
87.18105903549791
30
0
10
-7.423455198811709
20
87.134302196856055
30
0
10
-7.3990530171606679
20
87.087682789927058
30
0
10
-7.3741160112190682
20
87.041209144823895
30
0
10
-7.3486330735495677
20
86.994886179582892
30
0
10
-7.3226131734698452
20
86.94871437027092
30
0
10
-7.2960764084521905
20
86.902691698520101
30
0
10
-7.2690485721025606
20
86.856814837694657
30
0
10
-7.2415548313469174
20
86.811080531224889
30
0
10
-7.2136124754492439
20
86.765487172600885
30
0
10
-7.1852296327793859
20
86.720035089246736
30
0
10
-7.1564090483285909
20
86.674725727406383
30
0
10
-7.1271504934807615
20
86.629561133733318
30
0
10
-7.0974535066172075
20
86.584543364610937
30
0
10
-7.0673205653949438
20
86.53967380184595
30
0
10
-7.0367575159822717
20
86.494953061968346
30
0
10
-7.005772019992329
20
86.450381334547927
30
0
10
-6.9743725571794837
20
86.405958599720321
30
0
10
-6.9425672994188332
20
86.361684873510598
30
0
10
-6.9103628036614451
20
86.317560491393806
30
0
10
-6.8777638777260535
20
86.273586140130334
30
-2.2204460492503131e-15
10
-6.8447742520647399
20
86.229762716320778
30
-2.2204460492503131e-15
10
-6.8113970282017933
20
86.186091232632904
30
-2.2204460492503131e-15
10
-6.7776351788618445
20
86.142572712271516
30
-2.2204460492503131e-15
10
-6.7434921339228424
20
86.099208065404142
30
-2.2204460492503131e-15
10
-6.7089718613441374
20
86.055998070554523
30
-2.2204460492503131e-15
10
-6.6740785823772217
20
86.012943432291934
30
-2.2204460492503131e-15
10
-6.6388165909245602
20
85.970044816216685
30
-2.2204460492503131e-15
10
-6.6031900504898555
20
85.927302889379405
30
-2.2204460492503131e-15
10
-6.5672027597732017
20
85.884718363942895
30
-2.2204460492503131e-15
10
-6.5308581176776617
20
85.842292009832676
30
-2.2204460492503131e-15
10
-6.4941592587240446
20
85.800024639776908
30
-2.2204460492503131e-15
10
-6.457109145735048
20
85.757917101323244
30
0
10
-6.4197106727730819
20
85.715970264900278
30
0
10
-6.3819667897736814
20
85.674185012341525
30
0
10
-6.3438805290085245
20
85.632562224528982
30
0
10
-6.3054549240904763
20
85.59110277005216
30
0
10
-6.2666929573523111
20
85.549807491004643
30
0
10
-6.2275975042634846
20
85.508677191913335
30
0
10
-6.1881712665600315
20
85.467712618362427
30
0
10
-6.148416765060281
20
85.426914465767112
30
0
10
-6.1083364242141069
20
85.386283432506346
30
0
10
-6.0679326402432956
20
85.345820264038423
30
0
10
-6.0272078506273967
20
85.305525793956434
30
0
10
-5.986164623584342
20
85.265400998385473
30
0
10
-5.9448056830675178
20
85.225447001195533
30
0
10
-5.9031337635957186
20
85.185664954971756
30
0
10
-5.8611514983904378
20
85.146055942703953
30
0
10
-5.81886129928857
20
85.106620874311744
30
0
10
-5.7762652355944581
20
85.067360373619437
30
0
10
-5.7333649348993259
20
85.028274698268035
30
0
10
-5.6901616189394773
20
84.98936386519236
30
0
10
-5.6553572233377922
20
84.958374973189535
30
0
10
-5.6291181623270319
20
84.935211856602308
30
0
10
-5.6115651353196228
20
84.919804679437746
30
0
10
-5.6027735419000084
20
84.912109815997155
30
0
0
ARC
5
181
100
AcDbEntity
8
0
100
AcDbCircle
10
-9.3782217350892729
20
102.00000000000009
30
0
40
17.500000000000004
210
-2.1379673458387876e-47
220
-4.7236872814768037e-48
230
1
100
AcDbArc
50
282.45893903063154
51
287.5410609693684
0
SPLINE
5
182
100
AcDbEntity
8
0
100
AcDbSpline
70
4
71
5
72
81
73
75
74
0
42
0.000000001
43
0.0000000001
44
0.0000000001
40
-1
40
-1
40
-1
40
-1
40
-1
40
-1
40
-0.9857142857142841
40
-0.97142857142856986
40
-0.95714285714285563
40
-0.94285714285714139
40
-0.92857142857142716
40
-0.91428571428571292
40
-0.89999999999999869
40
-0.88571428571428445
40
-0.87142857142857022
40
-0.85714285714285599
40
-0.84285714285714175
40
-0.82857142857142752
40
-0.81428571428571328
40
-0.79999999999999905
40
-0.78571428571428481
40
-0.77142857142857058
40
-0.75714285714285634
40
-0.74285714285714211
40
-0.72857142857142787
40
-0.71428571428571364
40
-0.6999999999999994
40
-0.68571428571428517
40
-0.67142857142857093
40
-0.6571428571428567
40
-0.64285714285714246
40
-0.62857142857142823
40
-0.61428571428571399
40
-0.59999999999999976
40
-0.58571428571428552
40
-0.57142857142857129
40
-0.55714285714285705
40
-0.54285714285714282
40
-0.52857142857142858
40
-0.51428571428571435
40
-0.50000000000000011
40
-0.48571428571428582
40
-0.47142857142857153
40
-0.45714285714285724
40
-0.44285714285714295
40
-0.42857142857142866
40
-0.41428571428571437
40
-0.40000000000000008
40
-0.38571428571428579
40
-0.3714285714285715
40
-0.35714285714285721
40
-0.34285714285714292
40
-0.32857142857142863
40
-0.31428571428571433
40
-0.30000000000000004
40
-0.28571428571428575
40
-0.27142857142857146
40
-0.25714285714285717
40
-0.24285714285714291
40
-0.22857142857142862
40
-0.21428571428571433
40
-0.20000000000000004
40
-0.18571428571428575
40
-0.17142857142857146
40
-0.15714285714285717
40
-0.14285714285714288
40
-0.12857142857142859
40
-0.1142857142857143
40
-0.10000000000000001
40
-0.085714285714285715
40
-0.071428571428571425
40
-0.057142857142857141
40
-0.042857142857142858
40
-0.028571428571428571
40
-0.014285714285714285
40
0
40
0
40
0
40
0
40
0
40
0
41
1
41
1
41
1
41
1
41
1
41
1
41
1
41
1
41
1
41
1
41
1
41
1
41
1
41
1
41
1
41
1
41
1
41
1
41
1
41
1
41
1
41
1
41
1
41
1
41
1
41
1
41
1
41
1
41
1
41
1
41
1
41
1
41
1
41
1
41
1
41
1
41
1
41
1
41
1
41
1
41
1
41
1
41
1
41
1
41
1
41
1
41
1
41
1
41
1
41
1
41
1
41
1
41
1
41
1
41
1
41
1
41
1
41
1
41
1
41
1
41
1
41
1
41
1
41
1
41
1
41
1
41
1
41
1
41
1
41
1
41
1
41
1
41
1
41
1
41
1
10
-4.1039106890617845
20
85.313728906980174
30
0
10
-4.100144377540941
20
85.324788650908175
30
0
10
-4.0926465988214957
20
85.346908171237018
30
0
10
-4.0815044637083373
20
85.380087549137741
30
0
10
-4.0668574189553315
20
85.424326914648162
30
0
10
-4.0488976663442182
20
85.479626342554042
30
0
10
-4.0312877537879359
20
85.534925680679976
30
0
10
-4.0140287308737745
20
85.590224303491894
30
0
10
-3.9971218783165612
20
85.645521174070453
30
0
10
-3.9805686762742716
20
85.700814717515811
30
0
10
-3.964370758499125
20
85.756102939896039
30
0
10
-3.9485298639329125
20
85.811383586703656
30
0
10
-3.9330477844458143
20
85.866654292511285
30
0
10
-3.9179263171156684
20
85.921912722042293
30
0
10
-3.9031671980218863
20
85.977156745838514
30
0
10
-3.8887721212871407
20
86.032384423247436
30
0
10
-3.8747427893712318
20
86.087593910572338
30
0
10
-3.8610809527198486
20
86.142783390774355
30
0
10
-3.8477884467181092
20
86.197951001197083
30
0
10
-3.834867238345975
20
86.253094745277679
30
0
10
-3.822319415569575
20
86.308212488540676
30
0
10
-3.8101471401180618
20
86.363302010545254
30
2.2204460492503131e-15
10
-3.7983526048824934
20
86.418361042264394
30
2.2204460492503131e-15
10
-3.7869379954461646
20
86.473387304696047
30
2.2204460492503131e-15
10
-3.7759054256114357
20
86.528378559182229
30
2.2204460492503131e-15
10
-3.7652569664955848
20
86.583332604878493
30
2.2204460492503131e-15
10
-3.7549947602045028
20
86.638247226375654
30
2.2204460492503131e-15
10
-3.7451211149487591
20
86.693120152570117
30
2.2204460492503131e-15
10
-3.7356385893020012
20
86.747949017235271
30
2.2204460492503131e-15
10
-3.726550116953586
20
86.802731304269955
30
2.2204460492503131e-15
10
-3.7178589700781934
20
86.857464354239568
30
2.2204460492503131e-15
10
-3.709568534504279
20
86.912145443766065
30
2.2204460492503131e-15
10
-3.7016821136582374
20
86.966771852048851
30
2.2204460492503131e-15
10
-3.6942027546317964
20
87.021340920886914
30
2.2204460492503131e-15
10
-3.6871329727026243
20
87.075850147113044
30
2.2204460492503131e-15
10
-3.6804748307233588
20
87.130297158243593
30
2.2204460492503131e-15
10
-3.6742305083589564
20
87.18467952652037
30
2.2204460492503131e-15
10
-3.6684027879753955
20
87.238994610238507
30
2.2204460492503131e-15
10
-3.6629954898856143
20
87.293239410736646
30
2.2204460492503131e-15
10
-3.65801412483831
20
87.347410359009373
30
2.2204460492503131e-15
10
-3.653465761872372
20
87.401503355240976
30
2.2204460492503131e-15
10
-3.6493577546026734
20
87.455514176757347
30
2.2204460492503131e-15
10
-3.6456966433959526
20
87.509438828579661
30
2.2204460492503131e-15
10
-3.6424871829174443
20
87.563273853693119
30
2.2204460492503131e-15
10
-3.6397308279777429
20
87.617016816589512
30
2.2204460492503131e-15
10
-3.637426150611609
20
87.670666167197908
30
2.2204460492503131e-15
10
-3.6355719295049695
20
87.724220247372457
30
2.2204460492503131e-15
10
-3.6341698187680072
20
87.777676432133546
30
2.2204460492503131e-15
10
-3.6332266940634406
20
87.831030373738656
30
2.2204460492503131e-15
10
-3.6327583315880552
20
87.884274818834186
30
0
10
-3.6327881548239151
20
87.937400004229261
30
0
10
-3.6333401650069277
20
87.990395914071968
30
0
10
-3.6344327762425799
20
88.043254247584045
30
0
10
-3.6360735181544124
20
88.095970107820648
30
0
10
-3.6382503124013521
20
88.148544789356038
30
0
10
-3.6409361507917004
20
88.200984266591064
30
0
10
-3.6441059713945547
20
88.253293768241946
30
0
10
-3.6477515448167641
20
88.305472990976341
30
0
10
-3.651894220467693
20
88.357511996754624
30
0
10
-3.656605971721254
20
88.409384454032192
30
0
10
-3.6619941184933777
20
88.461052501739644
30
0
10
-3.6681631795883241
20
88.512478920795218
30
0
10
-3.6751805692601982
20
88.563638095227134
30
0
10
-3.683047246894831
20
88.614525342280288
30
0
10
-3.6916494866204346
20
88.665172397859322
30
0
10
-3.7008127491265936
20
88.715629655232874
30
0
10
-3.7103950535583681
20
88.765935563852096
30
0
10
-3.720371516480216
20
88.816088860732648
30
0
10
-3.7309138279414418
20
88.866022544324238
30
0
10
-3.742495394353806
20
88.915569244393723
30
0
10
-3.7557672132901843
20
88.964503265827787
30
0
10
-3.7682670065733892
20
89.002977937029968
30
0
10
-3.7789361152946443
20
89.031374975369459
30
0
10
-3.7866542102252119
20
89.050092061074707
30
0
10
-3.7906645990374987
20
89.059397034827185
30
0
0
LINE
5
183
100
AcDbEntity
8
0
100
AcDbLine
10
-3.7906645990374983
20
89.059397034827171
30
0
11
-4.2599179312791966
21
90.148166763686262
31
0
0
ARC
5
184
100
AcDbEntity
8
0
100
AcDbCircle
10
-3.3415803659322778
20
90.543964838558665
30
2.2204460492503131e-15
40
0.99999999999999845
210
-1.1622333193589403e-46
220
-6.1242704281051348e-47
230
1
100
AcDbArc
50
117.78653292889456
51
203.31575724492521
0
ARC
5
185
100
AcDbEntity
8
0
100
AcDbCircle
10
-9.3782217350892729
20
102.00000000000009
30
0
40
11.949199999999994
210
-8.6627111261534667e-17
220
1.6439658609118708e-16
230
1
100
AcDbArc
50
297.78653292889447
51
302.2134670711053
0
ARC
5
186
100
AcDbEntity
8
0
100
AcDbCircle
10
-2.4753249432117581
20
91.044097640053337
30
0
40
0.99999999999999978
210
2.0168742360998478e-32
220
1.3798603036137995e-31
230
1
100
AcDbArc
50
36.684242755075445
51
122.21346707110686
0
LINE
5
187
100
AcDbEntity
8
0
100
AcDbLine
10
-1.6733849729298327
20
91.641502263457127
30
-9.8607613152627045e-32
11
-0.96510939498721593
21
90.690732092495779
31
0
0
SPLINE
5
188
100
AcDbEntity
8
0
100
AcDbSpline
70
4
71
5
72
81
73
75
74
0
42
0.000000001
43
0.0000000001
44
0.0000000001
40
0
40
0
40
0
40
0
40
0
40
0
40
0.014285714285714285
40
0.028571428571428571
40
0.042857142857142858
40
0.057142857142857141
40
0.071428571428571425
40
0.085714285714285715
40
0.10000000000000001
40
0.1142857142857143
40
0.12857142857142859
40
0.14285714285714288
40
0.15714285714285717
40
0.17142857142857146
40
0.18571428571428575
40
0.20000000000000004
40
0.21428571428571433
40
0.22857142857142862
40
0.24285714285714291
40
0.25714285714285717
40
0.27142857142857146
40
0.28571428571428575
40
0.30000000000000004
40
0.31428571428571433
40
0.32857142857142863
40
0.34285714285714292
40
0.35714285714285721
40
0.3714285714285715
40
0.38571428571428579
40
0.40000000000000008
40
0.41428571428571437
40
0.42857142857142866
40
0.44285714285714295
40
0.45714285714285724
40
0.47142857142857153
40
0.48571428571428582
40
0.50000000000000011
40
0.51428571428571435
40
0.52857142857142858
40
0.54285714285714282
40
0.55714285714285705
40
0.57142857142857129
40
0.58571428571428552
40
0.59999999999999976
40
0.61428571428571399
40
0.62857142857142823
40
0.64285714285714246
40
0.6571428571428567
40
0.67142857142857093
40
0.68571428571428517
40
0.6999999999999994
40
0.71428571428571364
40
0.72857142857142787
40
0.74285714285714211
40
0.75714285714285634
40
0.77142857142857058
40
0.78571428571428481
40
0.79999999999999905
40
0.81428571428571328
40
0.82857142857142752
40
0.84285714285714175
40
0.85714285714285599
40
0.87142857142857022
40
0.88571428571428445
40
0.89999999999999869
40
0.91428571428571292
40
0.92857142857142716
40
0.94285714285714139
40
0.95714285714285563
40
0.97142857142856986
40
0.9857142857142841
40
1
40
1
40
1
40
1
40
1
40
1
41
1
41
1
41
1
41
1
41
1
41
1
41
1
41
1
41
1
41
1
41
1
41
1
41
1
41
1
41
1
41
1
41
1
41
1
41
1
41
1
41
1
41
1
41
1
41
1
41
1
41
1
41
1
41
1
41
1
41
1
41
1
41
1
41
1
41
1
41
1
41
1
41
1
41
1
41
1
41
1
41
1
41
1
41
1
41
1
41
1
41
1
41
1
41
1
41
1
41
1
41
1
41
1
41
1
41
1
41
1
41
1
41
1
41
1
41
1
41
1
41
1
41
1
41
1
41
1
41
1
41
1
41
1
41
1
41
1
41
1
41
1
41
1
41
1
41
1
41
1
10
-0.96510939498721582
20
90.690732092495779
30
0
10
-0.95905624574216364
20
90.682606507029035
30
0
10
-0.94670582150189198
20
90.666563897897717
30
0
10
-0.92744781926827213
20
90.643125659539621
30
0
10
-0.90037767324653184
20
90.613063185413239
30
0
10
-0.86463547704350163
20
90.577102442342877
30
0
10
-0.82751755931581028
20
90.542299161579393
30
0
10
-0.78954487655158234
20
90.50820241024357
30
-2.2204460492503131e-15
10
-0.75109907883040639
20
90.474485891473066
30
-2.2204460492503131e-15
10
-0.71232403622158569
20
90.441034418098738
30
-2.2204460492503131e-15
10
-0.67320840078386945
20
90.407870171300075
30
-2.2204460492503131e-15
10
-0.63364788388835347
20
90.375096885378753
30
-2.2204460492503131e-15
10
-0.59351157402899046
20
90.342840519177216
30
-2.2204460492503131e-15
10
-0.55271512417024282
20
90.311183694237144
30
-2.2204460492503131e-15
10
-0.51126306938992416
20
90.280127921083633
30
-2.2204460492503131e-15
10
-0.46921130089738833
20
90.249627625245935
30
-2.2204460492503131e-15
10
-0.42664431076506609
20
90.21961090032525
30
-2.2204460492503131e-15
10
-0.38364854759886813
20
90.190003735082769
30
0
10
-0.34028280187225252
20
90.160756964520573
30
0
10
-0.29656635488469868
20
90.131857068527609
30
0
10
-0.25249535463318662
20
90.103311325633626
30
0
10
-0.20805274195111817
20
90.075138825749249
30
0
10
-0.16321983875979409
20
90.047359971454256
30
0
10
-0.11798948475444967
20
90.019984575611687
30
0
10
-0.072369685625492217
20
89.993008565848683
30
0
10
-0.026376837110534856
20
89.966420145471275
30
0
10
0.019968386190288311
20
89.940203536725377
30
0
10
0.066645817364628324
20
89.914343335875898
30
0
10
0.113641286725608
20
89.888829507012474
30
0
10
0.16094759118639365
20
89.863658269507795
30
0
10
0.20856163039286749
20
89.838829503350212
30
0
10
0.25648257900564592
20
89.814345095301618
30
0
10
0.30470980860652369
20
89.790207057051731
30
0
10
0.35324048257824869
20
89.766415346451666
30
0
10
0.40206922972553677
20
89.742967574347986
30
0
10
0.45118932011189761
20
89.719860074106293
30
0
10
0.50059341998681428
20
89.697088588646437
30
0
10
0.55027444428630368
20
89.674649045908964
30
0
10
0.60022654678667264
20
89.652538457948197
30
0
10
0.65044522041454345
20
89.630755015606795
30
0
10
0.70092678620335247
20
89.609297630137576
30
0
10
0.75166805182040608
20
89.588165627774373
30
0
10
0.80266593120824115
20
89.567358408276277
30
0
10
0.85391699892165907
20
89.546875044932492
30
0
10
0.90541742934518687
20
89.526714227984684
30
0
10
0.95716321448317121
20
89.50687445698199
30
0
10
1.0091503029068196
20
89.487354161399978
30
0
10
1.0613747553908772
20
89.468151837169529
30
0
10
1.1138329260831348
20
89.449266201691728
30
0
10
1.1665214864844318
20
89.430696222290095
30
0
10
1.2194373156560498
20
89.412441035547459
30
0
10
1.2725774239444303
20
89.394499894050256
30
0
10
1.3259388698037182
20
89.376872104580571
30
0
10
1.3795186575980427
20
89.359556955860853
30
0
10
1.4333137208621018
20
89.342553694621429
30
0
10
1.487320998115327
20
89.325861556276479
30
0
10
1.5415374855349919
20
89.309479778934033
30
0
10
1.5959602906280246
20
89.293407621600124
30
0
10
1.6505867008303099
20
89.277644379101574
30
0
10
1.7054141853415492
20
89.262189393276415
30
0
10
1.7604402953370533
20
89.247042056713681
30
0
10
1.8156625828987492
20
89.232201816888264
30
0
10
1.8710785203108977
20
89.217668176973177
30
0
10
1.9266853953689542
20
89.203440698208581
30
0
10
1.9824802871250988
20
89.189518991917794
30
0
10
2.0384602511240253
20
89.175902689009362
30
0
10
2.0946224654341123
20
89.162591410769281
30
0
10
2.150964386383535
20
89.149584739292592
30
0
10
2.2074839099900192
20
89.136882180174808
30
0
10
2.2641794978976906
20
89.124483142743983
30
0
10
2.3210500835844803
20
89.112387030797962
30
0
10
2.3666860203403219
20
89.102952060889208
30
0
10
2.400991272040697
20
89.096011743999242
30
0
10
2.4238962279247191
20
89.091445250677822
30
0
10
2.4353574028861367
20
89.089177100169437
30
0
0
ARC
5
189
100
AcDbEntity
8
0
100
AcDbCircle
10
-9.3782217350892729
20
102.00000000000009
30
0
40
17.499999999999989
210
3.6374440856816244e-32
220
3.3283109759583243e-32
230
1
100
AcDbArc
50
312.45893903063148
51
317.54106096936829
0
SPLINE
5
190
100
AcDbEntity
8
0
100
AcDbSpline
70
4
71
5
72
81
73
75
74
0
42
0.000000001
43
0.0000000001
44
0.0000000001
40
-1
40
-1
40
-1
40
-1
40
-1
40
-1
40
-0.9857142857142841
40
-0.97142857142856986
40
-0.95714285714285563
40
-0.94285714285714139
40
-0.92857142857142716
40
-0.91428571428571292
40
-0.89999999999999869
40
-0.88571428571428445
40
-0.87142857142857022
40
-0.85714285714285599
40
-0.84285714285714175
40
-0.82857142857142752
40
-0.81428571428571328
40
-0.79999999999999905
40
-0.78571428571428481
40
-0.77142857142857058
40
-0.75714285714285634
40
-0.74285714285714211
40
-0.72857142857142787
40
-0.71428571428571364
40
-0.6999999999999994
40
-0.68571428571428517
40
-0.67142857142857093
40
-0.6571428571428567
40
-0.64285714285714246
40
-0.62857142857142823
40
-0.61428571428571399
40
-0.59999999999999976
40
-0.58571428571428552
40
-0.57142857142857129
40
-0.55714285714285705
40
-0.54285714285714282
40
-0.52857142857142858
40
-0.51428571428571435
40
-0.50000000000000011
40
-0.48571428571428582
40
-0.47142857142857153
40
-0.45714285714285724
40
-0.44285714285714295
40
-0.42857142857142866
40
-0.41428571428571437
40
-0.40000000000000008
40
-0.38571428571428579
40
-0.3714285714285715
40
-0.35714285714285721
40
-0.34285714285714292
40
-0.32857142857142863
40
-0.31428571428571433
40
-0.30000000000000004
40
-0.28571428571428575
40
-0.27142857142857146
40
-0.25714285714285717
40
-0.24285714285714291
40
-0.22857142857142862
40
-0.21428571428571433
40
-0.20000000000000004
40
-0.18571428571428575
40
-0.17142857142857146
40
-0.15714285714285717
40
-0.14285714285714288
40
-0.12857142857142859
40
-0.1142857142857143
40
-0.10000000000000001
40
-0.085714285714285715
40
-0.071428571428571425
40
-0.057142857142857141
40
-0.042857142857142858
40
-0.028571428571428571
40
-0.014285714285714285
40
0
40
0
40
0
40
0
40
0
40
0
41
1
41
1
41
1
41
1
41
1
41
1
41
1
41
1
41
1
41
1
41
1
41
1
41
1
41
1
41
1
41
1
41
1
41
1
41
1
41
1
41
1
41
1
41
1
41
1
41
1
41
1
41
1
41
1
41
1
41
1
41
1
41
1
41
1
41
1
41
1
41
1
41
1
41
1
41
1
41
1
41
1
41
1
41
1
41
1
41
1
41
1
41
1
41
1
41
1
41
1
41
1
41
1
41
1
41
1
41
1
41
1
41
1
41
1
41
1
41
1
41
1
41
1
41
1
41
1
41
1
41
1
41
1
41
1
41
1
41
1
41
1
41
1
41
1
41
1
41
1
10
3.53260116474135
20
90.186420862024647
30
-2.2204460492503131e-15
10
3.5303330142329683
20
90.197882036986073
30
-2.2204460492503131e-15
10
3.5257665209115405
20
90.220786992870089
30
-2.2204460492503131e-15
10
3.518826204021571
20
90.255092244570463
30
-2.2204460492503131e-15
10
3.5093912341128251
20
90.300728181326306
30
-2.2204460492503131e-15
10
3.4972951221667978
20
90.357598767013087
30
-2.2204460492503131e-15
10
3.4848960847359898
20
90.41429435492077
30
-2.2204460492503131e-15
10
3.4721935256181977
20
90.470813878527267
30
-2.2204460492503131e-15
10
3.4591868541415014
20
90.527155799476674
30
0
10
3.445875575901419
20
90.583318013786766
30
0
10
3.4322592729929999
20
90.639297977785688
30
0
10
3.4183375667021973
20
90.695092869541838
30
0
10
3.4041100879376138
20
90.750699744599899
30
0
10
3.3895764480225212
20
90.806115682012049
30
0
10
3.3747362081971062
20
90.861337969573725
30
0
10
3.359588871634362
20
90.916364079569249
30
0
10
3.3441338858092102
20
90.971191564080485
30
0
10
3.3283706433106581
20
91.025817974282774
30
0
10
3.3122984859767608
20
91.080240779375799
30
0
10
3.295916708634314
20
91.134457266795451
30
0
10
3.2792245702893625
20
91.188464544048685
30
0
10
3.2622213090499481
20
91.242259607312747
30
0
10
3.2449061603302161
20
91.29583939510708
30
0
10
3.2272783708605264
20
91.349200840966361
30
0
10
3.2093372293633333
20
91.402340949254736
30
0
10
3.1910820426206872
20
91.45525677842636
30
0
10
3.1725120632190569
20
91.507945338827653
30
0
10
3.1536264277412558
20
91.560403509519915
30
0
10
3.1344241035108129
20
91.61262796200397
30
0
10
3.1149038079287945
20
91.664615050427614
30
0
10
3.0950640369261002
20
91.716360835565609
30
0
10
3.0749032199782955
20
91.767861265989126
30
0
10
3.0544198566345049
20
91.819112333702563
30
0
10
3.0336126371364025
20
91.870110213090385
30
0
10
3.0124806347732114
20
91.920851478707434
30
0
10
2.9910232493039923
20
91.971333044496248
30
0
10
2.9692398069625869
20
92.02155171812413
30
0
10
2.9471292190018339
20
92.071503820624486
30
0
10
2.9246896762643537
20
92.121184844923988
30
0
10
2.9019181908044822
20
92.170588944798894
30
0
10
2.8788106905628141
20
92.219709035185261
30
0
10
2.8553629184591212
20
92.268537782332544
30
2.2204460492503131e-15
10
2.8315712078590605
20
92.31706845630427
30
2.2204460492503131e-15
10
2.8074331696091637
20
92.365295685905139
30
2.2204460492503131e-15
10
2.782948761560589
20
92.413216634517923
30
2.2204460492503131e-15
10
2.7581199954029927
20
92.460830673724402
30
2.2204460492503131e-15
10
2.7329487578983063
20
92.508136978185178
30
2.2204460492503131e-15
10
2.7074349290348891
20
92.555132447546157
30
0
10
2.6815747281854234
20
92.601809878720488
30
0
10
2.6553581194395242
20
92.64815510202132
30
0
10
2.6287696990621106
20
92.694147950536291
30
0
10
2.6017936892991171
20
92.739767749665248
30
0
10
2.5744182934565423
20
92.784998103670588
30
0
10
2.5466394391615426
20
92.829831006861923
30
0
10
2.5184669392771801
20
92.874273619543985
30
0
10
2.4899211963831744
20
92.918344619795491
30
0
10
2.4610213003902168
20
92.96206106678305
30
0
10
2.4317745298280222
20
93.005426812509654
30
0
10
2.4021673645855444
20
93.048422575675858
30
0
10
2.3721506396648593
20
93.090989565808187
30
0
10
2.3416503438271565
20
93.133041334300714
30
0
10
2.3105945706736488
20
93.174493389081036
30
0
10
2.2789377457335904
20
93.215289838939782
30
0
10
2.2466813795320375
20
93.255426148799145
30
0
10
2.2139080936107161
20
93.294986665694651
30
0
10
2.1807438468120512
20
93.334102301132376
30
0
10
2.1472923734377272
20
93.372877343741209
30
0
10
2.1135758546672152
20
93.411323141462375
30
0
10
2.0794791033313982
20
93.449295824226596
30
0
10
2.0446758225679225
20
93.486413741954294
30
0
10
2.008715079497569
20
93.522155938157312
30
0
10
1.9786526053711693
20
93.549226084179068
30
0
10
1.9552143670130782
20
93.568484086412681
30
0
10
1.9391717578817589
20
93.580834510652963
30
0
10
1.931046172415025
20
93.586887659898025
30
0
0
LINE
5
191
100
AcDbEntity
8
0
100
AcDbLine
10
1.931046172415025
20
93.586887659897997
30
0
11
0.9802760014536761
21
94.295163237840626
31
-1.2325951644078309e-31
0
ARC
5
192
100
AcDbEntity
8
0
100
AcDbCircle
10
1.5776806248574582
20
95.097103208122547
30
2.2204460492503131e-15
40
0.99999999999999889
210
5.2565268625549813e-32
220
8.342873549312484e-32
230
1
100
AcDbArc
50
147.78653292889391
51
233.31575724492478
0
ARC
5
193
100
AcDbEntity
8
0
100
AcDbCircle
10
-9.3782217350892729
20
102.00000000000009
30
0
40
11.94919999999998
210
-1.5721957205454368e-16
220
9.9058064219636426e-17
230
1
100
AcDbArc
50
327.78653292889447
51
332.21346707110536
0
ARC
5
194
100
AcDbEntity
8
0
100
AcDbCircle
10
2.0778134263521304
20
95.963358630843075
30
2.2204460492503131e-15
40
1.0000000000000022
210
5.2294220940302184e-32
220
2.4590204019491937e-31
230
1
100
AcDbArc
50
66.684242755075417
51
152.21346707110686
0
LINE
5
195
100
AcDbEntity
8
0
100
AcDbLine
10
2.4736115012245259
20
96.881696196190006
30
2.2204460492503127e-15
11
3.5623812300836102
21
96.4124428639483
31
6.1629758220391547e-32
0
SPLINE
5
196
100
AcDbEntity
8
0
100
AcDbSpline
70
4
71
5
72
81
73
75
74
0
42
0.000000001
43
0.0000000001
44
0.0000000001
40
0
40
0
40
0
40
0
40
0
40
0
40
0.014285714285714285
40
0.028571428571428571
40
0.042857142857142858
40
0.057142857142857141
40
0.071428571428571425
40
0.085714285714285715
40
0.10000000000000001
40
0.1142857142857143
40
0.12857142857142859
40
0.14285714285714288
40
0.15714285714285717
40
0.17142857142857146
40
0.18571428571428575
40
0.20000000000000004
40
0.21428571428571433
40
0.22857142857142862
40
0.24285714285714291
40
0.25714285714285717
40
0.27142857142857146
40
0.28571428571428575
40
0.30000000000000004
40
0.31428571428571433
40
0.32857142857142863
40
0.34285714285714292
40
0.35714285714285721
40
0.3714285714285715
40
0.38571428571428579
40
0.40000000000000008
40
0.41428571428571437
40
0.42857142857142866
40
0.44285714285714295
40
0.45714285714285724
40
0.47142857142857153
40
0.48571428571428582
40
0.50000000000000011
40
0.51428571428571435
40
0.52857142857142858
40
0.54285714285714282
40
0.55714285714285705
40
0.57142857142857129
40
0.58571428571428552
40
0.59999999999999976
40
0.61428571428571399
40
0.62857142857142823
40
0.64285714285714246
40
0.6571428571428567
40
0.67142857142857093
40
0.68571428571428517
40
0.6999999999999994
40
0.71428571428571364
40
0.72857142857142787
40
0.74285714285714211
40
0.75714285714285634
40
0.77142857142857058
40
0.78571428571428481
40
0.79999999999999905
40
0.81428571428571328
40
0.82857142857142752
40
0.84285714285714175
40
0.85714285714285599
40
0.87142857142857022
40
0.88571428571428445
40
0.89999999999999869
40
0.91428571428571292
40
0.92857142857142716
40
0.94285714285714139
40
0.95714285714285563
40
0.97142857142856986
40
0.9857142857142841
40
1
40
1
40
1
40
1
40
1
40
1
41
1
41
1
41
1
41
1
41
1
41
1
41
1
41
1
41
1
41
1
41
1
41
1
41
1
41
1
41
1
41
1
41
1
41
1
41
1
41
1
41
1
41
1
41
1
41
1
41
1
41
1
41
1
41
1
41
1
41
1
41
1
41
1
41
1
41
1
41
1
41
1
41
1
41
1
41
1
41
1
41
1
41
1
41
1
41
1
41
1
41
1
41
1
41
1
41
1
41
1
41
1
41
1
41
1
41
1
41
1
41
1
41
1
41
1
41
1
41
1
41
1
41
1
41
1
41
1
41
1
41
1
41
1
41
1
41
1
41
1
41
1
41
1
41
1
41
1
41
1
10
3.5623812300836102
20
96.4124428639483
30
0
10
3.5716862038360917
20
96.408432475136024
30
0
10
3.5904032895413405
20
96.400714380205443
30
0
10
3.6188003278808365
20
96.390045271484183
30
0
10
3.6572749990830165
20
96.377545478201
30
0
10
3.7062090205170666
20
96.364273659264626
30
0
10
3.7557557205865679
20
96.352692092852251
30
0
10
3.8056894041781444
20
96.342149781391015
30
0
10
3.8558427010586973
20
96.332173318469188
30
0
10
3.9061486096779205
20
96.3225910140374
30
0
10
3.956605867051489
20
96.313427751531236
30
0
10
4.0072529226305074
20
96.304825511805646
30
0
10
4.0581401696836599
20
96.296958834171008
30
0
10
4.1092993441155832
20
96.289941444499135
30
0
10
4.1607257631711523
20
96.283772383404184
30
0
10
4.2123938108786039
20
96.278384236632064
30
0
10
4.2642662681561809
20
96.273672485378498
30
0
10
4.3163052739344465
20
96.269529809727572
30
0
10
4.3684844966688452
20
96.265884236305368
30
0
10
4.4207939983197431
20
96.262714415702519
30
0
10
4.473233475554748
20
96.260028577312156
30
0
10
4.5258081570901503
20
96.25785178306522
30
0
10
4.5785240173267452
20
96.256211041153392
30
0
10
4.6313823508388259
20
96.255118429917729
30
0
10
4.6843782606815401
20
96.254566419734729
30
0
10
4.7375034460766114
20
96.254536596498866
30
0
10
4.7907478911721348
20
96.255004958974254
30
0
10
4.8441018327772492
20
96.255948083678803
30
0
10
4.8975580175383406
20
96.257350194415778
30
0
10
4.9511120977128806
20
96.259204415522404
30
0
10
5.0047614483212746
20
96.261509092888545
30
0
10
5.058504411217676
20
96.264265447828251
30
0
10
5.1123394363311316
20
96.267474908306752
30
0
10
5.1662640881534552
20
96.271136019513492
30
0
10
5.2202749096698211
20
96.27524402678317
30
0
10
5.2743679059014301
20
96.279792389749133
30
0
10
5.3285388541741483
20
96.284773754796419
30
0
10
5.3827836546722772
20
96.290181052886211
30
0
10
5.437098738390417
20
96.296008773269776
30
0
10
5.491481106667214
20
96.302253095634157
30
0
10
5.5459281177977502
20
96.30891123761343
30
0
10
5.6004373440238879
20
96.315981019542605
30
0
10
5.6550064128619386
20
96.323460378569038
30
0
10
5.70963282114473
20
96.331346799415073
30
0
10
5.7643139106712411
20
96.339637234988999
30
0
10
5.8190469606408541
20
96.348328381864391
30
0
10
5.8738292476755287
20
96.357416854212801
30
0
10
5.9286581123406812
20
96.366899379859561
30
0
10
5.9835310385351352
20
96.376773025115313
30
0
10
6.0384456600323055
20
96.387035231406401
30
0
10
6.0933997057285687
20
96.397683690522229
30
0
10
6.1483909602147584
20
96.408716260356968
30
0
10
6.2034172226464133
20
96.420130869793311
30
0
10
6.2584762543655446
20
96.431925405028863
30
0
10
6.3135657763701172
20
96.444097680480368
30
0
10
6.3686835196331124
20
96.45664550325678
30
0
10
6.4238272637137275
20
96.469566711628914
30
0
10
6.4789948741364487
20
96.482859217630647
30
0
10
6.5341843543384561
20
96.496521054282042
30
0
10
6.5893938416633633
20
96.510550386197949
30
0
10
6.6446215190722793
20
96.524945462932692
30
0
10
6.699865542868503
20
96.539704582026488
30
0
10
6.755123972399498
20
96.55482604935662
30
0
10
6.8103946782071301
20
96.57030812884372
30
0
10
6.8656753250147613
20
96.586149023409931
30
0
10
6.920963547394976
20
96.602346941185075
30
0
10
6.976257090840341
20
96.618900143227364
30
0
10
7.0315539614189042
20
96.635806995784591
30
0
10
7.0868525842308099
20
96.653066018698738
30
0
10
7.1421519223567493
20
96.670675931255019
30
0
10
7.1974513502626269
20
96.688635683866138
30
0
10
7.241690715773057
20
96.703282728619143
30
0
10
7.2748700936737842
20
96.714424863732305
30
0
10
7.2969896140026229
20
96.721922642451744
30
0
10
7.3080493579306216
20
96.725688953972593
30
0
0
ARC
5
197
100
AcDbEntity
8
0
100
AcDbCircle
10
-9.3782217350892729
20
102.00000000000009
30
0
40
17.499999999999968
210
2.971926990133162e-32
220
9.402247799430646e-32
230
1
100
AcDbArc
50
342.45893903063165
51
347.54106096936835
0
SPLINE
5
198
100
AcDbEntity
8
0
100
AcDbSpline
70
4
71
5
72
81
73
75
74
0
42
0.000000001
43
0.0000000001
44
0.0000000001
40
-1
40
-1
40
-1
40
-1
40
-1
40
-1
40
-0.9857142857142841
40
-0.97142857142856986
40
-0.95714285714285563
40
-0.94285714285714139
40
-0.92857142857142716
40
-0.91428571428571292
40
-0.89999999999999869
40
-0.88571428571428445
40
-0.87142857142857022
40
-0.85714285714285599
40
-0.84285714285714175
40
-0.82857142857142752
40
-0.81428571428571328
40
-0.79999999999999905
40
-0.78571428571428481
40
-0.77142857142857058
40
-0.75714285714285634
40
-0.74285714285714211
40
-0.72857142857142787
40
-0.71428571428571364
40
-0.6999999999999994
40
-0.68571428571428517
40
-0.67142857142857093
40
-0.6571428571428567
40
-0.64285714285714246
40
-0.62857142857142823
40
-0.61428571428571399
40
-0.59999999999999976
40
-0.58571428571428552
40
-0.57142857142857129
40
-0.55714285714285705
40
-0.54285714285714282
40
-0.52857142857142858
40
-0.51428571428571435
40
-0.50000000000000011
40
-0.48571428571428582
40
-0.47142857142857153
40
-0.45714285714285724
40
-0.44285714285714295
40
-0.42857142857142866
40
-0.41428571428571437
40
-0.40000000000000008
40
-0.38571428571428579
40
-0.3714285714285715
40
-0.35714285714285721
40
-0.34285714285714292
40
-0.32857142857142863
40
-0.31428571428571433
40
-0.30000000000000004
40
-0.28571428571428575
40
-0.27142857142857146
40
-0.25714285714285717
40
-0.24285714285714291
40
-0.22857142857142862
40
-0.21428571428571433
40
-0.20000000000000004
40
-0.18571428571428575
40
-0.17142857142857146
40
-0.15714285714285717
40
-0.14285714285714288
40
-0.12857142857142859
40
-0.1142857142857143
40
-0.10000000000000001
40
-0.085714285714285715
40
-0.071428571428571425
40
-0.057142857142857141
40
-0.042857142857142858
40
-0.028571428571428571
40
-0.014285714285714285
40
0
40
0
40
0
40
0
40
0
40
0
41
1
41
1
41
1
41
1
41
1
41
1
41
1
41
1
41
1
41
1
41
1
41
1
41
1
41
1
41
1
41
1
41
1
41
1
41
1
41
1
41
1
41
1
41
1
41
1
41
1
41
1
41
1
41
1
41
1
41
1
41
1
41
1
41
1
41
1
41
1
41
1
41
1
41
1
41
1
41
1
41
1
41
1
41
1
41
1
41
1
41
1
41
1
41
1
41
1
41
1
41
1
41
1
41
1
41
1
41
1
41
1
41
1
41
1
41
1
41
1
41
1
41
1
41
1
41
1
41
1
41
1
41
1
41
1
41
1
41
1
41
1
41
1
41
1
41
1
41
1
10
7.709668448913634
20
98.224551806810808
30
0
10
7.7019735854730564
20
98.233343400230439
30
0
10
7.6865664083084777
20
98.250896427237834
30
0
10
7.6634032917212647
20
98.277135488248604
30
0
10
7.6324143997184297
20
98.311939883850272
30
0
10
7.5935035666427524
20
98.355143199810144
30
0
10
7.5544178912913651
20
98.398043500505267
30
0
10
7.5151573905990414
20
98.440639564199373
30
0
10
7.4757223222068294
20
98.482929763301257
30
0
10
7.4361133099390306
20
98.52491202850652
30
0
10
7.3963312637152558
20
98.566583947978316
30
0
10
7.3563772665253166
20
98.60794288849516
30
0
10
7.316252470954363
20
98.648986115538193
30
0
10
7.2759580008723601
20
98.689710905154101
30
0
10
7.2354948324044477
20
98.730114689124918
30
0
10
7.1948637991436897
20
98.770195029971077
30
0
10
7.1540656465483572
20
98.809949531470821
30
0
10
7.113101072997452
20
98.849375769174287
30
0
10
7.0719707739061626
20
98.888471222263107
30
0
10
7.030675494858631
20
98.927233189001271
30
0
10
6.9892160403818071
20
98.965658793919317
30
2.2204460492503131e-15
10
6.9475932525692574
20
99.003745054684487
30
2.2204460492503131e-15
10
6.9058080000105049
20
99.04148893768388
30
2.2204460492503131e-15
10
6.8638611635875453
20
99.078887410645848
30
2.2204460492503131e-15
10
6.821753625133895
20
99.115937523634855
30
2.2204460492503131e-15
10
6.7794862550781225
20
99.152636382588483
30
2.2204460492503131e-15
10
6.7370599009679131
20
99.188981024684011
30
2.2204460492503131e-15
10
6.6944753755313933
20
99.224968315400659
30
2.2204460492503131e-15
10
6.651733448694098
20
99.260594855835365
30
2.2204460492503131e-15
10
6.6088348326188653
20
99.295856847288036
30
2.2204460492503131e-15
10
6.5657801943562708
20
99.330750126254941
30
2.2204460492503131e-15
10
6.5225701995066574
20
99.365270398833644
30
2.2204460492503131e-15
10
6.4792055526392831
20
99.399413443772659
30
2.2204460492503131e-15
10
6.4356870322778894
20
99.433175293112598
30
2.2204460492503131e-15
10
6.3920155485900052
20
99.466552516975554
30
0
10
6.3481921247804598
20
99.499542142636855
30
0
10
6.3042177735169966
20
99.532141068572258
30
0
10
6.2600933914001908
20
99.564345564329642
30
0
10
6.215819665190482
20
99.59615082209028
30
0
10
6.1713969303628673
20
99.627550284903137
30
0
10
6.1268252029424453
20
99.658535780893075
30
0
10
6.0821044630648586
20
99.689098830305753
30
0
10
6.0372349002998549
20
99.719231771528015
30
0
10
5.9922171311774841
20
99.748928758391571
30
0
10
5.9470525375044048
20
99.778187313239386
30
0
10
5.9017431756640644
20
99.807007897690184
30
0
10
5.8562910923099238
20
99.83539074036004
30
0
10
5.810697733685906
20
99.863333096257719
30
0
10
5.7649634272161272
20
99.890826837013378
30
0
10
5.7190865663906916
20
99.917854673362996
30
0
10
5.6730638946398715
20
99.944391438380649
30
0
10
5.6268920853279063
20
99.97041133846038
30
0
10
5.5805691200869081
20
99.995894276129874
30
0
10
5.5340954749837499
20
100.02083128207148
30
0
10
5.4874760680547432
20
100.04523346372252
30
0
10
5.4407192294128794
20
100.06912719806351
30
0
10
5.3938329618224721
20
100.09253680372146
30
0
10
5.3468216426736506
20
100.11546925589366
30
0
10
5.2996832038565209
20
100.13790109642946
30
0
10
5.2524044624706354
20
100.15975682878634
30
0
10
5.2049645472059778
20
100.18092458065608
30
0
10
5.1573434313307134
20
100.20129522655816
30
0
10
5.1095295918000936
20
100.22079757605
30
0
10
5.0615266043060938
20
100.23942845690161
30
0
10
5.0133638476849782
20
100.25730222655932
30
0
10
4.9650849497411
20
100.27459523713421
30
0
10
4.9167276027005045
20
100.29144967237912
30
0
10
4.8683053420574787
20
100.30788645048916
30
0
10
4.8197903478320283
20
100.32372338274492
30
0
10
4.7710908636919704
20
100.33846680205095
30
0
10
4.7220768485525673
20
100.35144008041463
30
0
10
4.6825069092476204
20
100.3598522774904
30
0
10
4.6525797982927433
20
100.36481107747181
30
0
10
4.6325112791219043
20
100.36748555404574
30
0
10
4.6224477410645628
20
100.36866494233151
30
0
0
LINE
5
199
100
AcDbEntity
8
0
100
AcDbLine
10
4.6224477410645628
20
100.36866494233152
30
0
11
3.4449188308802583
21
100.50666450022923
31
-3.0814879110195774e-32
0
ARC
5
200
100
AcDbEntity
8
0
100
AcDbCircle
10
3.5613164259452432
20
101.49986719850543
30
0
40
0.999999999999997
210
-2.1314606977670185e-31
220
2.056009044811424e-31
230
1
100
AcDbArc
50
177.78653292889521
51
263.31575724492518
0
ENDSEC
0
SECTION
2
OBJECTS
0
DICTIONARY
5
C
100
AcDbDictionary
3
ACAD_GROUP
350
D
3
ACAD_MLINESTYLE
350
17
0
DICTIONARY
5
D
100
AcDbDictionary
0
DICTIONARY
5
1A
330
C
100
AcDbDictionary
0
DICTIONARY
5
17
100
AcDbDictionary
0
ENDSEC
0
EOF
