0
SECTION
2
HEADER
9
$INSUNITS
70
4
9
$ACADVER
1
AC1014
9
$HANDSEED
5
FFFF
0
ENDSEC
0
SECTION
2
TABLES
0
TABLE
2
VPORT
5
8
100
AcDbSymbolTable
0
ENDTAB
0
TABLE
2
LTYPE
5
5
100
AcDbSymbolTable
0
LTYPE
5
14
100
AcDbSymbolTableRecord
100
AcDbLinetypeTableRecord
2
BYBLOCK
70
0
0
LTYPE
5
15
100
AcDbSymbolTableRecord
100
AcDbLinetypeTableRecord
2
BYLAYER
70
0
0
ENDTAB
0
TABLE
2
LAYER
5
2
100
AcDbSymbolTable
70
2
0
LAYER
5
50
100
AcDbSymbolTableRecord
100
AcDbLayerTableRecord
2
0
70
0
6
CONTINUOUS
0
ENDTAB
0
TABLE
2
STYLE
5
3
100
AcDbSymbolTable
70
1
0
STYLE
5
11
100
AcDbSymbolTableRecord
100
AcDbTextStyleTableRecord
2
STANDARD
70
0
0
ENDTAB
0
TABLE
2
VIEW
5
6
100
AcDbSymbolTable
70
0
0
ENDTAB
0
TABLE
2
UCS
5
7
100
AcDbSymbolTable
70
0
0
ENDTAB
0
TABLE
2
APPID
5
9
100
AcDbSymbolTable
70
2
0
APPID
5
12
100
AcDbSymbolTableRecord
100
AcDbRegAppTableRecord
2
ACAD
70
0
0
ENDTAB
0
TABLE
2
DIMSTYLE
5
A
100
AcDbSymbolTable
70
1
0
ENDTAB
0
TABLE
2
BLOCK_RECORD
5
1
100
AcDbSymbolTable
70
1
0
BLOCK_RECORD
5
1F
100
AcDbSymbolTableRecord
100
AcDbBlockTableRecord
2
*MODEL_SPACE
0
BLOCK_RECORD
5
1B
100
AcDbSymbolTableRecord
100
AcDbBlockTableRecord
2
*PAPER_SPACE
0
ENDTAB
0
ENDSEC
0
SECTION
2
BLOCKS
0
BLOCK
5
20
100
AcDbEntity
100
AcDbBlockBegin
2
*MODEL_SPACE
0
ENDBLK
5
21
100
AcDbEntity
100
AcDbBlockEnd
0
BLOCK
5
1C
100
AcDbEntity
100
AcDbBlockBegin
2
*PAPER_SPACE
0
ENDBLK
5
1D
100
AcDbEntity
100
AcDbBlockEnd
0
ENDSEC
0
SECTION
2
ENTITIES
0
LWPOLYLINE
5
100
100
AcDbEntity
8
0
100
AcDbPolyline
90
4
70
1
43
0.0
10
61.700000000000202
20
132.99999999999989
10
61.700000000000202
20
126.99999999999989
10
52.300000000000182
20
126.99999999999989
10
52.300000000000182
20
132.99999999999989
0
ARC
5
101
100
AcDbEntity
8
0
100
AcDbCircle
10
52.300000000000225
20
150.99999999999989
30
8.8817841970012523e-15
40
4.0000000000000213
210
0
220
0
230
1
100
AcDbArc
50
90.000000000000398
51
180
0
LINE
5
102
100
AcDbEntity
8
0
100
AcDbLine
10
48.300000000000203
20
150.99999999999991
30
8.8817841970012523e-15
11
48.300000000000182
21
132.55794774910487
31
8.8817841970012523e-15
0
SPLINE
5
103
100
AcDbEntity
8
0
100
AcDbSpline
70
0
71
3
72
16
73
12
74
0
42
0.000000001
43
0.0000000001
44
0.0000000001
40
0
40
0
40
0
40
0
40
0.1953222366934646
40
0.1953222366934646
40
0.39064447338692754
40
0.39064447338692754
40
0.58596671008039203
40
0.58596671008039203
40
0.69450703064562824
40
0.69450703064562824
40
0.80304735121086368
40
0.80304735121086368
40
0.80304735121086368
40
0.80304735121086368
10
43.144048129349393
20
127.56038043949907
30
0
10
43.794805479308287
20
127.5400731940377
30
0
10
44.443307690916029
20
127.64706747804995
30
0
10
45.662797347607757
20
128.10361433018772
30
0
10
46.222125806900571
20
128.44880206156949
30
0
10
47.176984143806479
20
129.33414697030074
30
0
10
47.563385055280747
20
129.8658397677724
30
0
10
47.989060487046999
20
130.78492440971516
30
0
10
48.105030783911182
20
131.12875945539687
30
8.8817841970012523e-15
10
48.260729996038819
20
131.83541199247631
30
8.8817841970012523e-15
10
48.300000000000168
20
132.19614668055408
30
8.8817841970012523e-15
10
48.300000000000168
20
132.55794774910487
30
8.8817841970012523e-15
0
SPLINE
5
104
100
AcDbEntity
8
0
100
AcDbSpline
70
4
71
3
72
8
73
4
74
0
42
0.000000001
43
0.0000000001
44
0.0000000001
40
-0.80870235406619462
40
-0.80870235406619462
40
-0.80870235406619462
40
-0.80870235406619462
40
0
40
0
40
0
40
0
41
1
41
1
41
1
41
1
10
43.144048129349393
20
127.56038043949907
30
0
10
34.625994321702976
20
127.82619105160487
30
-8.8817841970012523e-15
10
27.814106774374288
20
128.28339875537748
30
0
10
22.708133740133981
20
128.9319242082793
30
0
0
SPLINE
5
105
100
AcDbEntity
8
0
100
AcDbSpline
70
4
71
3
72
8
73
4
74
0
42
0.000000001
43
0.0000000001
44
0.0000000001
40
-1
40
-1
40
-1
40
-1
40
0
40
0
40
0
40
0
41
1
41
1
41
1
41
1
10
22.708133740133981
20
128.9319242082793
30
0
10
11.834241924591819
20
130.31296713727738
30
0
10
3.86337562083876
20
132.73992557409096
30
0
10
-1.2051714291203637
20
136.21268803540647
30
8.8817841970012523e-15
0
SPLINE
5
106
100
AcDbEntity
8
0
100
AcDbSpline
70
4
71
3
72
8
73
4
74
0
42
0.000000001
43
0.0000000001
44
0.0000000001
40
-1
40
-1
40
-1
40
-1
40
-6.0359671178906699e-05
40
-6.0359671178906699e-05
40
-6.0359671178906699e-05
40
-6.0359671178906699e-05
41
1
41
1
41
1
41
1
10
-1.2051714291203637
20
136.21268803540647
30
8.8817841970012523e-15
10
-2.0919251478530176
20
136.82045190415789
30
0
10
-2.9740749550350492
20
138.21848535626361
30
0
10
-3.8514443924416888
20
140.4065295861522
30
0
0
SPLINE
5
107
100
AcDbEntity
8
0
100
AcDbSpline
70
0
71
2
72
6
73
3
74
0
42
0.000000001
43
0.0000000001
44
0.0000000001
40
-0.99998726920415459
40
-0.99998726920415459
40
-0.99998726920415459
40
0
40
0
40
0
10
-3.8514443924808162
20
140.4065295861767
30
0
10
-10.873577931083208
20
144.79965562058257
30
0
10
-18.671929972378056
20
146.25793725260533
30
0
0
SPLINE
5
108
100
AcDbEntity
8
0
100
AcDbSpline
70
4
71
3
72
8
73
4
74
0
42
0.000000001
43
0.0000000001
44
0.0000000001
40
-1
40
-1
40
-1
40
-1
40
0
40
0
40
0
40
0
41
1
41
1
41
1
41
1
10
-18.671929972378056
20
146.25793725260533
30
0
10
-26.470643637490923
20
147.71605062403233
30
8.8817841970012523e-15
10
-37.800418194830563
20
142.71847530153011
30
-8.8817841970012523e-15
10
-46.384392023032333
20
139.48268651755433
30
-8.8817841970012523e-15
0
SPLINE
5
109
100
AcDbEntity
8
0
100
AcDbSpline
70
0
71
2
72
6
73
3
74
0
42
0.000000001
43
0.0000000001
44
0.0000000001
40
-1
40
-1
40
-1
40
0
40
0
40
0
10
-46.384392023032333
20
139.48268651755433
30
-8.8817841970012523e-15
10
-54.968104591838049
20
136.24708650216002
30
-8.8817841970012523e-15
10
-71.349371741668662
20
116.65717528913062
30
0
0
SPLINE
5
110
100
AcDbEntity
8
0
100
AcDbSpline
70
4
71
3
72
8
73
4
74
0
42
0.000000001
43
0.0000000001
44
0.0000000001
40
-1
40
-1
40
-1
40
-1
40
0
40
0
40
0
40
0
41
1
41
1
41
1
41
1
10
-71.349371741668662
20
116.65717528913062
30
0
10
-72.356759372955736
20
110.35584123463018
30
0
10
-72.827252694105283
20
104.12857044189369
30
8.8817841970012523e-15
10
-72.761115023249658
20
97.975170259792023
30
0
0
SPLINE
5
111
100
AcDbEntity
8
0
100
AcDbSpline
70
4
71
3
72
8
73
4
74
0
42
0.000000001
43
0.0000000001
44
0.0000000001
40
-1
40
-1
40
-1
40
-1
40
0
40
0
40
0
40
0
41
1
41
1
41
1
41
1
10
-72.761115023249658
20
97.975170259792023
30
0
10
-72.711611190872972
20
93.392979623327705
30
0
10
-72.128784517222357
20
89.774000885963702
30
0
10
-71.013045352714329
20
87.11853943228185
30
0
0
SPLINE
5
112
100
AcDbEntity
8
0
100
AcDbSpline
70
4
71
3
72
8
73
4
74
0
42
0.000000001
43
0.0000000001
44
0.0000000001
40
-1
40
-1
40
-1
40
-1
40
0
40
0
40
0
40
0
41
1
41
1
41
1
41
1
10
-71.013045352714329
20
87.11853943228185
30
0
10
-70.300114130942688
20
85.422039921181749
30
0
10
-69.459903996810155
20
84.255754459117739
30
0
10
-68.491964927898067
20
83.619602102081444
30
0
0
LINE
5
113
100
AcDbEntity
8
0
100
AcDbLine
10
-68.491964927898067
20
83.619602102081416
30
0
11
-66.688350673708968
21
82.434302083000148
31
0
0
SPLINE
5
114
100
AcDbEntity
8
0
100
AcDbSpline
70
4
71
3
72
8
73
4
74
0
42
0.000000001
43
0.0000000001
44
0.0000000001
40
-1
40
-1
40
-1
40
-1
40
0
40
0
40
0
40
0
41
1
41
1
41
1
41
1
10
-66.688350673708953
20
82.434302083000134
30
0
10
-66.055294939788652
20
81.085445208033661
30
0
10
-65.325263804925683
20
79.7794601794117
30
0
10
-64.498704097089416
20
78.516421770492371
30
0
0
LINE
5
115
100
AcDbEntity
8
0
100
AcDbLine
10
-64.498704097089416
20
78.516421770492386
30
0
11
-60.056024275323821
21
71.728521453960553
31
4.9303806576313238e-31
0
LINE
5
116
100
AcDbEntity
8
0
100
AcDbLine
10
-60.056024275323821
20
71.728521453960553
30
4.9303806576313238e-31
11
-59.868243407535388
21
73.471443626016992
31
0
0
SPLINE
5
117
100
AcDbEntity
8
0
100
AcDbSpline
70
4
71
3
72
8
73
4
74
0
42
0.000000001
43
0.0000000001
44
0.0000000001
40
-1
40
-1
40
-1
40
-1
40
0
40
0
40
0
40
0
41
1
41
1
41
1
41
1
10
-59.868243407535367
20
73.471443626016992
30
-8.8817841970012523e-15
10
-59.787734964349994
20
73.288990102248277
30
-8.8817841970012523e-15
10
-59.715564750697936
20
73.120162218974698
30
-8.8817841970012523e-15
10
-59.651397869281013
20
72.964216331521953
30
-8.8817841970012523e-15
0
SPLINE
5
118
100
AcDbEntity
8
0
100
AcDbSpline
70
4
71
3
72
8
73
4
74
0
42
0.000000001
43
0.0000000001
44
0.0000000001
40
-1
40
-1
40
-1
40
-1
40
0
40
0
40
0
40
0
41
1
41
1
41
1
41
1
10
-59.651397869281013
20
72.964216331521953
30
-8.8817841970012523e-15
10
-58.988195765246772
20
71.352683709060926
30
0
10
-58.654071299250894
20
70.057779122031093
30
0
10
-58.648575819512644
20
69.079421855790201
30
0
0
SPLINE
5
119
100
AcDbEntity
8
0
100
AcDbSpline
70
4
71
3
72
8
73
4
74
0
42
0.000000001
43
0.0000000001
44
0.0000000001
40
-1
40
-1
40
-1
40
-1
40
0
40
0
40
0
40
0
41
1
41
1
41
1
41
1
10
-58.648575819512644
20
69.079421855790201
30
0
10
-58.635347932411094
20
66.540125649430763
30
0
10
-59.095123411411677
20
64.087828487546062
30
0
10
-60.028016016812714
20
61.723248281333206
30
0
0
LINE
5
120
100
AcDbEntity
8
0
100
AcDbLine
10
-60.028016016812707
20
61.723248281333206
30
0
11
-60.07921756780415
21
61.731816482465113
31
1.9259299443872359e-33
0
LINE
5
121
100
AcDbEntity
8
0
100
AcDbLine
10
-60.07921756780415
20
61.731816482465113
30
1.9259299443872359e-33
11
-60.75553402649814
21
60.363836151696859
31
0
0
SPLINE
5
122
100
AcDbEntity
8
0
100
AcDbSpline
70
4
71
3
72
8
73
4
74
0
42
0.000000001
43
0.0000000001
44
0.0000000001
40
-1
40
-1
40
-1
40
-1
40
0
40
0
40
0
40
0
41
1
41
1
41
1
41
1
10
-60.75553402649814
20
60.363836151696859
30
0
10
-62.184797637369371
20
59.608954407266282
30
0
10
-63.41347313153905
20
59.183638530939263
30
0
10
-64.44182062157256
20
59.087706607324037
30
0
0
LINE
5
123
100
AcDbEntity
8
0
100
AcDbLine
10
-64.441820621572546
20
59.087706607324037
30
0
11
-71.061195264233447
21
58.470464382773727
31
0
0
LINE
5
124
100
AcDbEntity
8
0
100
AcDbLine
10
-71.061195264233447
20
58.470464382773727
30
0
11
-67.949347124896732
21
55.68620115984703
31
0
0
SPLINE
5
125
100
AcDbEntity
8
0
100
AcDbSpline
70
4
71
3
72
8
73
4
74
0
42
0.000000001
43
0.0000000001
44
0.0000000001
40
-1
40
-1
40
-1
40
-1
40
0
40
0
40
0
40
0
41
1
41
1
41
1
41
1
10
-67.949347124896732
20
55.686201159847037
30
0
10
-68.542259406117438
20
55.524323481830976
30
0
10
-69.030503718166443
20
55.431962781470446
30
0
10
-69.413856647059021
20
55.40908167208633
30
0
0
LINE
5
126
100
AcDbEntity
8
0
100
AcDbLine
10
-69.413856647059021
20
55.40908167208633
30
0
11
-69.519303478559422
21
53.810524351425656
31
0
0
SPLINE
5
127
100
AcDbEntity
8
0
100
AcDbSpline
70
4
71
3
72
8
73
4
74
0
42
0.000000001
43
0.0000000001
44
0.0000000001
40
-1
40
-1
40
-1
40
-1
40
0
40
0
40
0
40
0
41
1
41
1
41
1
41
1
10
-69.519303478559436
20
53.810524351425656
30
0
10
-70.007692428489165
20
53.557277694706457
30
0
10
-70.468885887777788
20
53.276169235674544
30
0
10
-70.902959088515743
20
52.966749405084613
30
0
0
SPLINE
5
128
100
AcDbEntity
8
0
100
AcDbSpline
70
4
71
3
72
8
73
4
74
0
42
0.000000001
43
0.0000000001
44
0.0000000001
40
-1
40
-1
40
-1
40
-1
40
0
40
0
40
0
40
0
41
1
41
1
41
1
41
1
10
-70.902959088515743
20
52.966749405084613
30
0
10
-72.669998131606079
20
51.768820786408241
30
0
10
-73.89103594570696
20
50.205507829902629
30
0
10
-74.566486551092993
20
48.277093989942472
30
0
0
SPLINE
5
129
100
AcDbEntity
8
0
100
AcDbSpline
70
4
71
3
72
8
73
4
74
0
42
0.000000001
43
0.0000000001
44
0.0000000001
40
-1
40
-1
40
-1
40
-1
40
0
40
0
40
0
40
0
41
1
41
1
41
1
41
1
10
-74.566486551092993
20
48.277093989942472
30
0
10
-75.509739478881514
20
45.867152400256749
30
0
10
-74.974621008816925
20
43.695770604271303
30
0
10
-72.9613949233227
20
41.76274475638742
30
0
0
SPLINE
5
130
100
AcDbEntity
8
0
100
AcDbSpline
70
4
71
3
72
8
73
4
74
0
42
0.000000001
43
0.0000000001
44
0.0000000001
40
-1
40
-1
40
-1
40
-1
40
-0.041305471681109103
40
-0.041305471681109103
40
-0.041305471681109103
40
-0.041305471681109103
41
1
41
1
41
1
41
1
10
-72.9613949233227
20
41.76274475638742
30
0
10
-71.811022748334679
20
40.658175343650754
30
0
10
-70.125694194705432
20
39.684549842992674
30
0
10
-67.905445436195663
20
38.841655798096021
30
0
0
LINE
5
131
100
AcDbEntity
8
0
100
AcDbLine
10
-67.905445436195677
20
38.841655798096021
30
0
11
-95.462866703629302
21
5.999999999999952
31
0
0
LINE
5
132
100
AcDbEntity
8
0
100
AcDbLine
10
-95.462866703629302
20
5.999999999999952
30
0
11
-95.462866703629302
21
-3.6637359812630166e-14
31
8.8817841970012523e-15
0
LINE
5
133
100
AcDbEntity
8
0
100
AcDbLine
10
-95.462866703629302
20
-3.6637359812630166e-14
30
8.8817841970012523e-15
11
-85.462866703629288
21
-3.7842883762490968e-14
31
-2.0278135214618515e-33
0
LINE
5
134
100
AcDbEntity
8
0
100
AcDbLine
10
-85.462866703629288
20
-3.7842883762490968e-14
30
-2.0278135214618515e-33
11
-84.964181321531527
21
-5.700000000000033
31
4.9303806576313238e-31
0
LINE
5
135
100
AcDbEntity
8
0
100
AcDbLine
10
-84.964181321531527
20
-5.700000000000033
30
4.9303806576313238e-31
11
-64.964181321531512
21
-5.7000000000000384
31
-4.055627042923703e-33
0
LINE
5
136
100
AcDbEntity
8
0
100
AcDbLine
10
-64.964181321531512
20
-5.7000000000000384
30
-4.055627042923703e-33
11
-64.465495939433751
21
-4.3298697960381105e-14
31
0
0
LINE
5
137
100
AcDbEntity
8
0
100
AcDbLine
10
-64.465495939433751
20
-4.3298697960381105e-14
30
0
11
-49.46549593943373
21
-4.5835905732166629e-14
31
-3.7282026960454228e-31
0
LINE
5
138
100
AcDbEntity
8
0
100
AcDbLine
10
-49.46549593943373
20
-4.5835905732166629e-14
30
-3.7282026960454228e-31
11
-48.966810557335947
21
-5.7000000000000401
31
0
0
LINE
5
139
100
AcDbEntity
8
0
100
AcDbLine
10
-48.966810557335947
20
-5.7000000000000401
30
0
11
-23.966810557335918
21
-5.7000000000000473
31
-8.8817841970012523e-15
0
LINE
5
140
100
AcDbEntity
8
0
100
AcDbLine
10
-23.966810557335918
20
-5.7000000000000473
30
-8.8817841970012523e-15
11
-23.468125175238143
21
-5.2180482157382357e-14
31
0
0
LINE
5
141
100
AcDbEntity
8
0
100
AcDbLine
10
-23.468125175238143
20
-5.2180482157382357e-14
30
0
11
-13.468125175238132
21
-5.3828927701842277e-14
31
4.9101025224167053e-31
0
LINE
5
142
100
AcDbEntity
8
0
100
AcDbLine
10
-13.468125175238132
20
-5.3828927701842277e-14
30
4.9101025224167053e-31
11
-13.468125175238118
21
5.9999999999999352
31
-4.9303806576313238e-31
0
LINE
5
143
100
AcDbEntity
8
0
100
AcDbLine
10
-13.468125175238118
20
5.9999999999999352
30
-4.9303806576313238e-31
11
-43.085600309373518
21
35.617475134135319
31
8.8817841970012523e-15
0
SPLINE
5
144
100
AcDbEntity
8
0
100
AcDbSpline
70
4
71
3
72
8
73
4
74
0
42
0.000000001
43
0.0000000001
44
0.0000000001
40
-0.8275334679652262
40
-0.8275334679652262
40
-0.8275334679652262
40
-0.8275334679652262
40
0
40
0
40
0
40
0
41
1
41
1
41
1
41
1
10
-43.085600309373532
20
35.617475134135319
30
0
10
-41.014936774180192
20
35.851420504984631
30
0
10
-39.030093690003383
20
36.555478278820331
30
0
10
-37.130712288045522
20
37.729454270600023
30
0
0
SPLINE
5
145
100
AcDbEntity
8
0
100
AcDbSpline
70
4
71
3
72
8
73
4
74
0
42
0.000000001
43
0.0000000001
44
0.0000000001
40
-1
40
-1
40
-1
40
-1
40
0
40
0
40
0
40
0
41
1
41
1
41
1
41
1
10
-37.130712288045522
20
37.729454270600023
30
0
10
-34.141317936987733
20
39.080417664365157
30
8.8817841970012523e-15
10
-31.651543533691292
20
41.587084410627611
30
0
10
-29.66087891178212
20
45.249808751264098
30
0
0
SPLINE
5
146
100
AcDbEntity
8
0
100
AcDbSpline
70
4
71
3
72
8
73
4
74
0
42
0.000000001
43
0.0000000001
44
0.0000000001
40
-1
40
-1
40
-1
40
-1
40
0
40
0
40
0
40
0
41
1
41
1
41
1
41
1
10
-29.66087891178212
20
45.249808751264098
30
0
10
-29.337041368903432
20
45.845468536786669
30
0
10
-28.982005219309546
20
46.579266865043451
30
0
10
-28.596262213378189
20
47.451060583518597
30
0
0
SPLINE
5
147
100
AcDbEntity
8
0
100
AcDbSpline
70
4
71
3
72
8
73
4
74
0
42
0.000000001
43
0.0000000001
44
0.0000000001
40
-1
40
-1
40
-1
40
-1
40
0
40
0
40
0
40
0
41
1
41
1
41
1
41
1
10
-28.596262213378189
20
47.451060583518597
30
0
10
-28.510033471450615
20
47.607685950124875
30
0
10
-28.424057983596811
20
47.76552600212554
30
0
10
-28.338796306400877
20
47.924623993764882
30
0
0
SPLINE
5
148
100
AcDbEntity
8
0
100
AcDbSpline
70
4
71
3
72
8
73
4
74
0
42
0.000000001
43
0.0000000001
44
0.0000000001
40
-1
40
-1
40
-1
40
-1
40
0
40
0
40
0
40
0
41
1
41
1
41
1
41
1
10
-28.338796306400877
20
47.924623993764882
30
0
10
-25.72286451411847
20
46.366526627857212
30
0
10
-22.948205836454317
20
44.992645710786761
30
0
10
-20.015057858063614
20
43.803009728424271
30
0
0
SPLINE
5
149
100
AcDbEntity
8
0
100
AcDbSpline
70
4
71
3
72
8
73
4
74
0
42
0.000000001
43
0.0000000001
44
0.0000000001
40
-1
40
-1
40
-1
40
-1
40
0
40
0
40
0
40
0
41
1
41
1
41
1
41
1
10
-20.015057858063614
20
43.803009728424271
30
0
10
-14.774557280558762
20
41.677827458334235
30
0
10
-9.2323707841168545
20
40.282205394159838
30
0
10
-3.3883396637958847
20
39.615677363353221
30
8.8817841970012523e-15
0
SPLINE
5
150
100
AcDbEntity
8
0
100
AcDbSpline
70
4
71
3
72
8
73
4
74
0
42
0.000000001
43
0.0000000001
44
0.0000000001
40
-1
40
-1
40
-1
40
-1
40
0
40
0
40
0
40
0
41
1
41
1
41
1
41
1
10
-3.3883396637958847
20
39.615677363353221
30
8.8817841970012523e-15
10
-0.44160594696694322
20
39.279776145113502
30
0
10
2.0057867165056313
20
39.159015947749843
30
0
10
3.9543172992022901
20
39.253564606378745
30
0
0
LINE
5
151
100
AcDbEntity
8
0
100
AcDbLine
10
3.9543172992022901
20
39.253564606378745
30
-1.4185445027603135e-46
11
13.126044017303059
21
39.698541961835993
31
1.2325951644078309e-31
0
LINE
5
152
100
AcDbEntity
8
0
100
AcDbLine
10
13.126044017303059
20
39.698541961835993
30
1.2325951644078309e-31
11
12.409941779560514
21
40.151040522618104
31
0
0
SPLINE
5
153
100
AcDbEntity
8
0
100
AcDbSpline
70
4
71
3
72
8
73
4
74
0
42
0.000000001
43
0.0000000001
44
0.0000000001
40
-1
40
-1
40
-1
40
-1
40
0
40
0
40
0
40
0
41
1
41
1
41
1
41
1
10
12.409941779560512
20
40.151040522618118
30
-8.8817841970012523e-15
10
12.512024553692001
20
40.158192880365391
30
-8.8817841970012523e-15
10
12.61305498917811
20
40.165994770152111
30
-8.8817841970012523e-15
10
12.71259081201906
20
40.174497658932623
30
-8.8817841970012523e-15
0
LINE
5
154
100
AcDbEntity
8
0
100
AcDbLine
10
12.71259081201906
20
40.174497658932623
30
-8.8817841970012523e-15
11
20.182882402351915
21
40.81786409340134
31
-8.8817841970012523e-15
0
LINE
5
155
100
AcDbEntity
8
0
100
AcDbLine
10
20.182882402351915
20
40.81786409340134
30
-8.8817841970012523e-15
11
19.440087056409997
21
41.385409490684097
31
-8.8817841970012523e-15
0
SPLINE
5
156
100
AcDbEntity
8
0
100
AcDbSpline
70
4
71
3
72
8
73
4
74
0
42
0.000000001
43
0.0000000001
44
0.0000000001
40
-1
40
-1
40
-1
40
-1
40
0
40
0
40
0
40
0
41
1
41
1
41
1
41
1
10
19.44008705641
20
41.385409490684083
30
-8.8817841970012523e-15
10
22.783886361558867
20
41.192904911162401
30
-8.8817841970012523e-15
10
26.093460011975939
20
41.109098972516648
30
-8.8817841970012523e-15
10
29.368901500100687
20
41.134415643926907
30
-8.8817841970012523e-15
0
SPLINE
5
157
100
AcDbEntity
8
0
100
AcDbSpline
70
4
71
3
72
8
73
4
74
0
42
0.000000001
43
0.0000000001
44
0.0000000001
40
-1
40
-1
40
-1
40
-1
40
0
40
0
40
0
40
0
41
1
41
1
41
1
41
1
10
29.368901500100687
20
41.134415643926907
30
-8.8817841970012523e-15
10
40.253821792275076
20
41.218137343015513
30
0
10
52.895695199477224
20
42.297404184715191
30
0
10
67.294289619603745
20
44.372243737432129
30
0
0
SPLINE
5
158
100
AcDbEntity
8
0
100
AcDbSpline
70
4
71
3
72
8
73
4
74
0
42
0.000000001
43
0.0000000001
44
0.0000000001
40
-1
40
-1
40
-1
40
-1
40
0
40
0
40
0
40
0
41
1
41
1
41
1
41
1
10
67.294289619603745
20
44.372243737432129
30
0
10
67.795458892575667
20
42.142821537914045
30
0
10
67.742464687806788
20
40.609353157412571
30
0
10
67.135403411593273
20
39.771134860959911
30
8.8817841970012523e-15
0
LINE
5
159
100
AcDbEntity
8
0
100
AcDbLine
10
67.135403411593273
20
39.771134860959918
30
8.8817841970012507e-15
11
62.555371462877631
21
33.448042406555594
31
8.8817841970012523e-15
0
LINE
5
160
100
AcDbEntity
8
0
100
AcDbLine
10
62.555371462877631
20
33.448042406555594
30
8.8817841970012523e-15
11
70.152933680392479
21
35.246541851625551
31
0
0
SPLINE
5
161
100
AcDbEntity
8
0
100
AcDbSpline
70
4
71
3
72
8
73
4
74
0
42
0.000000001
43
0.0000000001
44
0.0000000001
40
-1
40
-1
40
-1
40
-1
40
0
40
0
40
0
40
0
41
1
41
1
41
1
41
1
10
70.152933680392479
20
35.246541851625558
30
0
10
70.191641682918558
20
35.255766479829667
30
0
10
70.230167081954505
20
35.26524710868533
30
0
10
70.268692480990438
20
35.274727737541028
30
0
0
SPLINE
5
162
100
AcDbEntity
8
0
100
AcDbSpline
70
4
71
3
72
8
73
4
74
0
42
0.000000001
43
0.0000000001
44
0.0000000001
40
-1
40
-1
40
-1
40
-1
40
0
40
0
40
0
40
0
41
1
41
1
41
1
41
1
10
70.268692480990438
20
35.274727737541028
30
0
10
70.156333796467976
20
34.886075171883995
30
0
10
69.998014878719033
20
34.574595338815726
30
0
10
69.793673295685721
20
34.339847799265499
30
0
0
LINE
5
163
100
AcDbEntity
8
0
100
AcDbLine
10
69.793673295685721
20
34.339847799265499
30
0
11
64.648814313975294
21
28.431009944529563
31
0
0
LINE
5
164
100
AcDbEntity
8
0
100
AcDbLine
10
64.648814313975294
20
28.431009944529563
30
0
11
67.293316490690515
21
28.817697622712998
31
0
0
SPLINE
5
165
100
AcDbEntity
8
0
100
AcDbSpline
70
4
71
3
72
8
73
4
74
0
42
0.000000001
43
0.0000000001
44
0.0000000001
40
-1
40
-1
40
-1
40
-1
40
0
40
0
40
0
40
0
41
1
41
1
41
1
41
1
10
67.293316490690515
20
28.817697622713002
30
0
10
65.715941878521278
20
27.674374849933709
30
0
10
64.540674274106152
20
26.152797215705554
30
0
10
63.767504547270661
20
24.252977520061151
30
0
0
LINE
5
166
100
AcDbEntity
8
0
100
AcDbLine
10
63.767504547270661
20
24.252977520061147
30
0
11
62.401552658389591
21
20.89662763659522
31
0
0
LINE
5
167
100
AcDbEntity
8
0
100
AcDbLine
10
62.401552658389591
20
20.89662763659522
30
0
11
63.431636415373653
21
20.724250733129111
31
0
0
SPLINE
5
168
100
AcDbEntity
8
0
100
AcDbSpline
70
4
71
3
72
8
73
4
74
0
42
0.000000001
43
0.0000000001
44
0.0000000001
40
-1
40
-1
40
-1
40
-1
40
0
40
0
40
0
40
0
41
1
41
1
41
1
41
1
10
63.431636415373653
20
20.724250733129111
30
0
10
63.68538459538496
20
19.699508817293172
30
0
10
64.267587038873756
20
18.72552414690513
30
0
10
65.178219847291913
20
17.802086550068694
30
0
0
SPLINE
5
169
100
AcDbEntity
8
0
100
AcDbSpline
70
4
71
3
72
8
73
4
74
0
42
0.000000001
43
0.0000000001
44
0.0000000001
40
-1
40
-1
40
-1
40
-1
40
-0.47669424054631343
40
-0.47669424054631343
40
-0.47669424054631343
40
-0.47669424054631343
41
1
41
1
41
1
41
1
10
65.178219847291913
20
17.802086550068694
30
0
10
65.773933459940707
20
17.197910245009208
30
0
10
66.524024111115637
20
16.632634840277415
30
0
10
67.428488113036565
20
16.106228645456099
30
0
0
LINE
5
170
100
AcDbEntity
8
0
100
AcDbLine
10
67.428488113036565
20
16.106228645456099
30
0
11
57.322259467580558
21
5.9999999999999254
31
0
0
LINE
5
171
100
AcDbEntity
8
0
100
AcDbLine
10
57.322259467580558
20
5.9999999999999254
30
0
11
57.322259467580558
21
-6.9944050551384862e-14
31
8.8817841970012523e-15
0
LINE
5
172
100
AcDbEntity
8
0
100
AcDbLine
10
57.322259467580558
20
-6.9944050551384862e-14
30
8.8817841970012523e-15
11
72.322259467580579
21
-7.2878219766223386e-14
31
-3.7282026960454228e-31
0
LINE
5
173
100
AcDbEntity
8
0
100
AcDbLine
10
72.322259467580579
20
-7.2878219766223386e-14
30
-3.7282026960454228e-31
11
72.820944849678327
21
-5.7000000000000686
31
0
0
LINE
5
174
100
AcDbEntity
8
0
100
AcDbLine
10
72.820944849678327
20
-5.7000000000000686
30
0
11
92.820944849678355
21
-5.700000000000073
31
-4.0556270429228272e-33
0
LINE
5
175
100
AcDbEntity
8
0
100
AcDbLine
10
92.820944849678355
20
-5.700000000000073
30
-4.0556270429228272e-33
11
93.319630231776159
21
-7.7715611723760958e-14
31
-8.8817841970012523e-15
0
LINE
5
176
100
AcDbEntity
8
0
100
AcDbLine
10
93.319630231776159
20
-7.7715611723760958e-14
30
-8.8817841970012523e-15
11
113.31963023177619
21
-8.1981464760524185e-14
31
-4.055627042923703e-33
0
LINE
5
177
100
AcDbEntity
8
0
100
AcDbLine
10
113.31963023177619
20
-8.1981464760524185e-14
30
-4.055627042923703e-33
11
113.81831561387393
21
-5.7000000000000686
31
0
0
LINE
5
178
100
AcDbEntity
8
0
100
AcDbLine
10
113.81831561387393
20
-5.7000000000000686
30
0
11
128.81831561387395
21
-5.7000000000000721
31
-3.7282026960454228e-31
0
LINE
5
179
100
AcDbEntity
8
0
100
AcDbLine
10
128.81831561387395
20
-5.7000000000000721
30
-3.7282026960454228e-31
11
129.31700099597174
21
-8.5487172896137054e-14
31
-4.9303806576313238e-31
0
LINE
5
180
100
AcDbEntity
8
0
100
AcDbLine
10
129.31700099597174
20
-8.5487172896137054e-14
30
-4.9303806576313238e-31
11
144.31700099597177
21
-8.8864263705574696e-14
31
-3.7282026960454228e-31
0
LINE
5
181
100
AcDbEntity
8
0
100
AcDbLine
10
144.31700099597177
20
-8.8864263705574696e-14
30
-3.7282026960454228e-31
11
144.31700099597177
21
13.649999999999896
31
9.8607613152626476e-31
0
LINE
5
182
100
AcDbEntity
8
0
100
AcDbLine
10
144.31700099597177
20
13.649999999999896
30
9.8607613152626476e-31
11
137.31700099597177
21
13.649999999999897
31
-1.218400469757589e-31
0
LINE
5
183
100
AcDbEntity
8
0
100
AcDbLine
10
137.31700099597177
20
13.649999999999897
30
-1.218400469757589e-31
11
137.31700099597174
21
12.249999999999909
31
0
0
LINE
5
184
100
AcDbEntity
8
0
100
AcDbLine
10
137.31700099597174
20
12.249999999999909
30
0
11
134.86700099597175
21
12.249999999999901
31
-1.4514639510424759e-33
0
LINE
5
185
100
AcDbEntity
8
0
100
AcDbLine
10
134.86700099597175
20
12.249999999999901
30
-1.4514639510424759e-33
11
134.86700099597175
21
13.649999999999897
31
0
0
LINE
5
186
100
AcDbEntity
8
0
100
AcDbLine
10
134.86700099597175
20
13.649999999999897
30
0
11
131.86700099597172
21
13.649999999999897
31
6.0834405643765774e-34
0
LINE
5
187
100
AcDbEntity
8
0
100
AcDbLine
10
131.86700099597172
20
13.649999999999897
30
6.0834405643765774e-34
11
131.86700099597172
21
16.349999999999891
31
0
0
LINE
5
188
100
AcDbEntity
8
0
100
AcDbLine
10
131.86700099597172
20
16.349999999999891
30
0
11
134.86700099597175
21
16.349999999999888
31
-6.0834405643765774e-34
0
LINE
5
189
100
AcDbEntity
8
0
100
AcDbLine
10
134.86700099597175
20
16.349999999999888
30
-6.0834405643765774e-34
11
134.86700099597175
21
17.749999999999883
31
0
0
LINE
5
190
100
AcDbEntity
8
0
100
AcDbLine
10
134.86700099597175
20
17.749999999999883
30
0
11
137.31700099597177
21
17.749999999999883
31
-6.6597901347961172e-33
0
LINE
5
191
100
AcDbEntity
8
0
100
AcDbLine
10
137.31700099597177
20
17.749999999999883
30
-6.6597901347961172e-33
11
137.3170009959718
21
16.349999999999888
31
0
0
LINE
5
192
100
AcDbEntity
8
0
100
AcDbLine
10
137.3170009959718
20
16.349999999999888
30
0
11
144.31700099597177
21
16.349999999999884
31
1.218400469757589e-31
0
LINE
5
193
100
AcDbEntity
8
0
100
AcDbLine
10
144.31700099597177
20
16.349999999999884
30
1.218400469757589e-31
11
144.31700099597177
21
29.999999999999872
31
0
0
LINE
5
194
100
AcDbEntity
8
0
100
AcDbLine
10
144.31700099597177
20
29.999999999999872
30
0
11
147.49200099597178
21
29.999999999999872
31
2.0926584584071685e-32
0
LINE
5
195
100
AcDbEntity
8
0
100
AcDbLine
10
147.49200099597178
20
29.999999999999872
30
2.0926584584071685e-32
11
147.49200099597178
21
49.999999999999844
31
0
0
LINE
5
196
100
AcDbEntity
8
0
100
AcDbLine
10
147.49200099597178
20
49.999999999999844
30
0
11
144.3170009959718
21
49.999999999999851
31
-2.0926584584071685e-32
0
LINE
5
197
100
AcDbEntity
8
0
100
AcDbLine
10
144.3170009959718
20
49.999999999999851
30
-2.0926584584071685e-32
11
144.3170009959718
21
64.999999999999829
31
0
0
LINE
5
198
100
AcDbEntity
8
0
100
AcDbLine
10
144.3170009959718
20
64.999999999999829
30
0
11
135.49200099597178
21
64.999999999999829
31
-9.9899555630956345e-32
0
LINE
5
199
100
AcDbEntity
8
0
100
AcDbLine
10
135.49200099597178
20
64.999999999999829
30
-9.9899555630956345e-32
11
127.5572868640908
21
19.999999999999886
31
0
0
LINE
5
200
100
AcDbEntity
8
0
100
AcDbLine
10
127.5572868640908
20
19.999999999999886
30
0
11
104.68528713997244
21
19.99999999999989
31
1.5178603766643113e-31
0
SPLINE
5
201
100
AcDbEntity
8
0
100
AcDbSpline
70
4
71
3
72
8
73
4
74
0
42
0.000000001
43
0.0000000001
44
0.0000000001
40
-0.76913263207301974
40
-0.76913263207301974
40
-0.76913263207301974
40
-0.76913263207301974
40
0
40
0
40
0
40
0
41
1
41
1
41
1
41
1
10
104.68528713998701
20
20.000000000019845
30
0
10
108.21857490045916
20
24.776876265156567
30
-8.8817841970012523e-15
10
110.96678764994878
20
31.287967429762553
30
0
10
112.93001636244674
20
39.533142873261681
30
8.8817841970012523e-15
0
SPLINE
5
202
100
AcDbEntity
8
0
100
AcDbSpline
70
4
71
3
72
8
73
4
74
0
42
0.000000001
43
0.0000000001
44
0.0000000001
40
-1
40
-1
40
-1
40
-1
40
0
40
0
40
0
40
0
41
1
41
1
41
1
41
1
10
112.93001636244674
20
39.533142873261681
30
8.8817841970012523e-15
10
113.8088815070943
20
43.224711385078535
30
0
10
114.43531471613257
20
46.897804996932365
30
0
10
114.80941406932362
20
50.55287509076215
30
8.8817841970012523e-15
0
LINE
5
203
100
AcDbEntity
8
0
100
AcDbLine
10
114.80941406932362
20
50.552875090762143
30
8.8817841970012507e-15
11
116.77474643195993
21
47.670056741061877
31
8.8817841970012523e-15
0
LINE
5
204
100
AcDbEntity
8
0
100
AcDbLine
10
116.77474643195993
20
47.670056741061877
30
8.8817841970012523e-15
11
117.03052791260141
21
56.61486102262208
31
0
0
SPLINE
5
205
100
AcDbEntity
8
0
100
AcDbSpline
70
4
71
3
72
8
73
4
74
0
42
0.000000001
43
0.0000000001
44
0.0000000001
40
-1
40
-1
40
-1
40
-1
40
0
40
0
40
0
40
0
41
1
41
1
41
1
41
1
10
117.03052791260141
20
56.614861022622065
30
0
10
117.05531431171103
20
57.485884120067716
30
0
10
117.05427881628611
20
58.354295939023046
30
0
10
117.02700034295222
20
59.220409296233697
30
0
0
LINE
5
206
100
AcDbEntity
8
0
100
AcDbLine
10
117.02700034295221
20
59.220409296233697
30
0
11
119.69440633343552
21
55.736460587171557
31
-2.4651903288156619e-31
0
LINE
5
207
100
AcDbEntity
8
0
100
AcDbLine
10
119.69440633343552
20
55.736460587171557
30
-2.4651903288156619e-31
11
118.18678968792494
21
66.628348705575959
31
8.8817841970012523e-15
0
SPLINE
5
208
100
AcDbEntity
8
0
100
AcDbSpline
70
4
71
3
72
8
73
4
74
0
42
0.000000001
43
0.0000000001
44
0.0000000001
40
-1
40
-1
40
-1
40
-1
40
0
40
0
40
0
40
0
41
1
41
1
41
1
41
1
10
118.18678968792494
20
66.628348705575974
30
8.8817841970012523e-15
10
117.83266138127971
20
69.188683145353053
30
8.8817841970012523e-15
10
117.2362727936729
20
72.223102440414578
30
0
10
116.39804592594352
20
75.731299256566658
30
0
0
SPLINE
5
209
100
AcDbEntity
8
0
100
AcDbSpline
70
4
71
3
72
8
73
4
74
0
42
0.000000001
43
0.0000000001
44
0.0000000001
40
-1
40
-1
40
-1
40
-1
40
0
40
0
40
0
40
0
41
1
41
1
41
1
41
1
10
116.39804592594352
20
75.731299256566658
30
0
10
114.71342677712188
20
82.781616142033002
30
8.8817841970012523e-15
10
112.63377909537566
20
88.780473388971075
30
0
10
110.15950386880127
20
93.72757281559683
30
0
0
SPLINE
5
210
100
AcDbEntity
8
0
100
AcDbSpline
70
4
71
3
72
8
73
4
74
0
42
0.000000001
43
0.0000000001
44
0.0000000001
40
-1
40
-1
40
-1
40
-1
40
0
40
0
40
0
40
0
41
1
41
1
41
1
41
1
10
110.15950386880127
20
93.72757281559683
30
0
10
108.34854130074733
20
97.34938057651047
30
0
10
106.28232651052562
20
100.7287960319379
30
0
10
103.96086041560056
20
103.86582466443096
30
0
0
SPLINE
5
211
100
AcDbEntity
8
0
100
AcDbSpline
70
4
71
3
72
8
73
4
74
0
42
0.000000001
43
0.0000000001
44
0.0000000001
40
-1
40
-1
40
-1
40
-1
40
0
40
0
40
0
40
0
41
1
41
1
41
1
41
1
10
103.96086041560056
20
103.86582466443096
30
0
10
103.21743550101547
20
105.13041930905024
30
-8.8817841970012523e-15
10
102.41024151087001
20
106.29672144173017
30
-8.8817841970012523e-15
10
101.53901079131072
20
107.36454618199586
30
-8.8817841970012523e-15
0
SPLINE
5
212
100
AcDbEntity
8
0
100
AcDbSpline
70
4
71
3
72
8
73
4
74
0
42
0.000000001
43
0.0000000001
44
0.0000000001
40
-1
40
-1
40
-1
40
-1
40
-0.10269424523642505
40
-0.10269424523642505
40
-0.10269424523642505
40
-0.10269424523642505
41
1
41
1
41
1
41
1
10
101.53901079131072
20
107.36454618199586
30
-8.8817841970012523e-15
10
97.748603690916013
20
112.01002937106368
30
0
10
94.468936150661889
20
115.61335209587055
30
0
10
91.699999999995867
20
118.17451419672997
30
0
0
LINE
5
213
100
AcDbEntity
8
0
100
AcDbLine
10
91.699999999995882
20
118.17451419672997
30
-1.291318295293745e-31
11
91.700000000000273
21
150.99999999999989
31
0
0
ARC
5
214
100
AcDbEntity
8
0
100
AcDbCircle
10
87.700000000000273
20
150.99999999999991
30
-4.5501146424609539e-46
40
3.9999999999999858
210
-1.1375286606152171e-46
220
1.9176093995175412e-46
230
1
100
AcDbArc
50
0
51
90.000000000000398
0
LINE
5
215
100
AcDbEntity
8
0
100
AcDbLine
10
87.700000000000244
20
154.99999999999989
30
1.8506536281780269e-47
11
52.300000000000196
21
154.99999999999989
31
8.8817841970012523e-15
0
LWPOLYLINE
5
216
100
AcDbEntity
8
0
100
AcDbPolyline
90
4
70
1
43
0.0
10
61.700000000000216
20
144.99999999999989
10
52.300000000000189
20
144.99999999999989
10
52.300000000000225
20
150.99999999999989
10
61.700000000000223
20
150.99999999999989
0
LWPOLYLINE
5
217
100
AcDbEntity
8
0
100
AcDbPolyline
90
4
70
1
43
0.0
10
87.70000000000023
20
132.99999999999989
10
87.70000000000023
20
126.99999999999989
10
78.30000000000021
20
126.99999999999989
10
78.30000000000021
20
132.99999999999989
0
LWPOLYLINE
5
218
100
AcDbEntity
8
0
100
AcDbPolyline
90
4
70
1
43
0.0
10
87.700000000000244
20
141.99999999999986
10
87.700000000000244
20
135.99999999999989
10
78.30000000000021
20
135.99999999999991
10
78.30000000000021
20
141.99999999999989
0
LWPOLYLINE
5
219
100
AcDbEntity
8
0
100
AcDbPolyline
90
4
70
1
43
0.0
10
87.700000000000273
20
150.99999999999991
10
87.700000000000244
20
144.99999999999989
10
78.300000000000225
20
144.99999999999989
10
78.30000000000021
20
150.99999999999989
0
LWPOLYLINE
5
220
100
AcDbEntity
8
0
100
AcDbPolyline
90
4
70
1
43
0.0
10
74.70000000000023
20
150.99999999999989
10
74.70000000000023
20
144.99999999999989
10
65.300000000000196
20
144.99999999999989
10
65.300000000000196
20
150.99999999999989
0
LWPOLYLINE
5
221
100
AcDbEntity
8
0
100
AcDbPolyline
90
4
70
1
43
0.0
10
74.700000000000216
20
141.99999999999986
10
74.700000000000216
20
135.99999999999989
10
65.300000000000196
20
135.99999999999991
10
65.300000000000196
20
141.99999999999989
0
LWPOLYLINE
5
222
100
AcDbEntity
8
0
100
AcDbPolyline
90
4
70
1
43
0.0
10
61.700000000000216
20
141.99999999999986
10
61.700000000000216
20
135.99999999999989
10
52.300000000000189
20
135.99999999999991
10
52.300000000000189
20
141.99999999999989
0
CIRCLE
5
223
100
AcDbEntity
8
0
100
AcDbCircle
10
-39.770900922250249
20
67.585413818937582
30
0
40
4.7000000000000073
210
2.0278135214633842e-34
220
-1.1459971273839271e-49
230
1
0
CIRCLE
5
224
100
AcDbEntity
8
0
100
AcDbCircle
10
70.000000000000156
20
67
30
0
40
3.1750000000000025
210
-2.4449121936010302e-32
220
1.381715981729294e-47
230
1
0
CIRCLE
5
225
100
AcDbEntity
8
0
100
AcDbCircle
10
-19.583296165675947
20
140.22640248426376
30
0
40
3.1000000000000041
210
2.0278135214633842e-34
220
-1.1459971273839273e-49
230
1
0
LWPOLYLINE
5
226
100
AcDbEntity
8
0
100
AcDbPolyline
90
4
70
1
43
0.0
10
74.700000000000216
20
126.99999999999989
10
65.300000000000182
20
126.99999999999989
10
65.300000000000182
20
132.99999999999989
10
74.700000000000216
20
132.99999999999989
0
ENDSEC
0
SECTION
2
OBJECTS
0
DICTIONARY
5
C
100
AcDbDictionary
3
ACAD_GROUP
350
D
3
ACAD_MLINESTYLE
350
17
0
DICTIONARY
5
D
100
AcDbDictionary
0
DICTIONARY
5
1A
330
C
100
AcDbDictionary
0
DICTIONARY
5
17
100
AcDbDictionary
0
ENDSEC
0
EOF
