0
SECTION
2
HEADER
9
$INSUNITS
70
4
9
$ACADVER
1
AC1014
9
$HANDSEED
5
FFFF
0
ENDSEC
0
SECTION
2
TABLES
0
TABLE
2
VPORT
5
8
100
AcDbSymbolTable
0
ENDTAB
0
TABLE
2
LTYPE
5
5
100
AcDbSymbolTable
0
LTYPE
5
14
100
AcDbSymbolTableRecord
100
AcDbLinetypeTableRecord
2
BYBLOCK
70
0
0
LTYPE
5
15
100
AcDbSymbolTableRecord
100
AcDbLinetypeTableRecord
2
BYLAYER
70
0
0
ENDTAB
0
TABLE
2
LAYER
5
2
100
AcDbSymbolTable
70
2
0
LAYER
5
50
100
AcDbSymbolTableRecord
100
AcDbLayerTableRecord
2
0
70
0
6
CONTINUOUS
0
ENDTAB
0
TABLE
2
STYLE
5
3
100
AcDbSymbolTable
70
1
0
STYLE
5
11
100
AcDbSymbolTableRecord
100
AcDbTextStyleTableRecord
2
STANDARD
70
0
0
ENDTAB
0
TABLE
2
VIEW
5
6
100
AcDbSymbolTable
70
0
0
ENDTAB
0
TABLE
2
UCS
5
7
100
AcDbSymbolTable
70
0
0
ENDTAB
0
TABLE
2
APPID
5
9
100
AcDbSymbolTable
70
2
0
APPID
5
12
100
AcDbSymbolTableRecord
100
AcDbRegAppTableRecord
2
ACAD
70
0
0
ENDTAB
0
TABLE
2
DIMSTYLE
5
A
100
AcDbSymbolTable
70
1
0
ENDTAB
0
TABLE
2
BLOCK_RECORD
5
1
100
AcDbSymbolTable
70
1
0
BLOCK_RECORD
5
1F
100
AcDbSymbolTableRecord
100
AcDbBlockTableRecord
2
*MODEL_SPACE
0
BLOCK_RECORD
5
1B
100
AcDbSymbolTableRecord
100
AcDbBlockTableRecord
2
*PAPER_SPACE
0
ENDTAB
0
ENDSEC
0
SECTION
2
BLOCKS
0
BLOCK
5
20
100
AcDbEntity
100
AcDbBlockBegin
2
*MODEL_SPACE
0
ENDBLK
5
21
100
AcDbEntity
100
AcDbBlockEnd
0
BLOCK
5
1C
100
AcDbEntity
100
AcDbBlockBegin
2
*PAPER_SPACE
0
ENDBLK
5
1D
100
AcDbEntity
100
AcDbBlockEnd
0
ENDSEC
0
SECTION
2
ENTITIES
0
LINE
5
100
100
AcDbEntity
8
0
100
AcDbLine
10
-73.503403950850611
20
112.32138454768615
30
1.0658141036401503e-13
11
-73.503414357272291
21
112.32137761007169
31
1.0658141072633453e-13
0
SPLINE
5
101
100
AcDbEntity
8
0
100
AcDbSpline
70
4
71
3
72
8
73
4
74
0
42
0.000000001
43
0.0000000001
44
0.0000000001
40
0
40
0
40
0
40
0
40
1
40
1
40
1
40
1
41
1
41
1
41
1
41
1
10
-73.503414357272291
20
112.32137761007169
30
1.0658141036401503e-13
10
-72.60090703031014
20
106.70116757599257
30
1.0658141036401503e-13
10
-62.044757751172696
20
97.662461893965116
30
1.0658141036401503e-13
10
-55.697086809277117
20
97.731796412838037
30
1.0658141036401503e-13
0
SPLINE
5
102
100
AcDbEntity
8
0
100
AcDbSpline
70
4
71
3
72
8
73
4
74
0
42
0.000000001
43
0.0000000001
44
0.0000000001
40
0
40
0
40
0
40
0
40
1
40
1
40
1
40
1
41
1
41
1
41
1
41
1
10
-55.697086809277117
20
97.731796412838037
30
1.0658141036401503e-13
10
-49.349415867381538
20
97.80056204732557
30
1.0658141036401503e-13
10
-29.340808517677335
20
104.49320933685128
30
1.0658141036401503e-13
10
-24.648684795059495
20
111.46206387071238
30
1.0658141036401503e-13
0
SPLINE
5
103
100
AcDbEntity
8
0
100
AcDbSpline
70
4
71
3
72
8
73
4
74
0
42
0.000000001
43
0.0000000001
44
0.0000000001
40
0
40
0
40
0
40
0
40
1
40
1
40
1
40
1
41
1
41
1
41
1
41
1
10
-24.648684795059495
20
111.46206387071238
30
1.0658141036401503e-13
10
-19.957123019212567
20
118.43091840457349
30
9.7699626167013776e-14
10
0.70960725062790886
20
131.1239847508231
30
1.0658141036401503e-13
10
-13.383830448787318
20
144.57918967074733
30
8.8817841970012523e-14
0
SPLINE
5
104
100
AcDbEntity
8
0
100
AcDbSpline
70
4
71
3
72
8
73
4
74
0
42
0.000000001
43
0.0000000001
44
0.0000000001
40
0
40
0
40
0
40
0
40
1
40
1
40
1
40
1
41
1
41
1
41
1
41
1
10
-13.383830448787318
20
144.57918967074733
30
8.8817841970012523e-14
10
-14.674504242175207
20
146.69792325037039
30
1.0658141036401503e-13
10
-17.407036323175401
20
148.68309387648722
30
1.0658141036401503e-13
10
-18.269187546847185
20
151.6389755172828
30
9.7699626167013776e-14
0
SPLINE
5
105
100
AcDbEntity
8
0
100
AcDbSpline
70
4
71
3
72
8
73
4
74
0
42
0.000000001
43
0.0000000001
44
0.0000000001
40
0
40
0
40
0
40
0
40
1
40
1
40
1
40
1
41
1
41
1
41
1
41
1
10
-18.269187546847185
20
151.6389755172828
30
9.7699626167013776e-14
10
-19.210906270714446
20
154.86765803371583
30
9.7699626167013776e-14
10
-19.74399950312532
20
158.11111073132562
30
9.7699626167013776e-14
10
-19.868467244079802
20
161.37047831649735
30
9.7699626167013776e-14
0
SPLINE
5
106
100
AcDbEntity
8
0
100
AcDbSpline
70
4
71
3
72
8
73
4
74
0
42
0.000000001
43
0.0000000001
44
0.0000000001
40
0
40
0
40
0
40
0
40
1
40
1
40
1
40
1
41
1
41
1
41
1
41
1
10
-19.868467244079802
20
161.37047831649735
30
9.7699626167013776e-14
10
-20.006005450669324
20
164.97084352740885
30
9.7699626167013776e-14
10
-19.623513952868553
20
168.27454246895422
30
8.8817841970012523e-14
10
-18.719875794750088
20
171.2815751411336
30
1.0658141036401503e-13
0
LINE
5
107
100
AcDbEntity
8
0
100
AcDbLine
10
-18.719875794750088
20
171.2815751411336
30
1.0658141036401503e-13
11
-18.388542265947617
21
172.38356663416261
31
1.0610521973221515e-13
0
SPLINE
5
108
100
AcDbEntity
8
0
100
AcDbSpline
70
4
71
3
72
8
73
4
74
0
42
0.000000001
43
0.0000000001
44
0.0000000001
40
0
40
0
40
0
40
0
40
1
40
1
40
1
40
1
41
1
41
1
41
1
41
1
10
-18.388542265947617
20
172.38356663416261
30
1.0658141036401503e-13
10
-17.680974967583673
20
174.00387424081123
30
1.0658141036401503e-13
10
-16.795513359339832
20
175.28204645294949
30
1.0658141036401503e-13
10
-15.731602432059637
20
176.21808327057735
30
1.0658141036401503e-13
0
LINE
5
109
100
AcDbEntity
8
0
100
AcDbLine
10
-15.731602432059635
20
176.21808327057735
30
1.0658141036401503e-13
11
-9.8965622287370643
21
181.35180349735356
31
8.7958814758955261e-14
0
LINE
5
110
100
AcDbEntity
8
0
100
AcDbLine
10
-9.8965622287370643
20
181.35180349735356
30
8.7958814758955261e-14
11
-16.679003062166341
21
180.91418918389294
31
1.0466382557862009e-13
0
SPLINE
5
111
100
AcDbEntity
8
0
100
AcDbSpline
70
4
71
3
72
8
73
4
74
0
42
0.000000001
43
0.0000000001
44
0.0000000001
40
0
40
0
40
0
40
0
40
1
40
1
40
1
40
1
41
1
41
1
41
1
41
1
10
-16.679003062166345
20
180.91418918389294
30
1.0658141036401503e-13
10
-15.856063235399674
20
182.13098085213198
30
1.0658141036401503e-13
10
-15.147358168264933
20
182.9834749164811
30
1.0658141036401503e-13
10
-14.552880923147677
20
183.47167137694015
30
1.0658141036401503e-13
0
LINE
5
112
100
AcDbEntity
8
0
100
AcDbLine
10
-14.552880923147676
20
183.47167137694015
30
1.0658141036401503e-13
11
-16.555673089982641
21
186.57304519929903
31
1.0431149061922755e-13
0
ELLIPSE
5
113
100
AcDbEntity
8
0
100
AcDbEllipse
10
-510.52694675667442
20
513.56891902919847
30
1.1546319456101628e-13
11
491.45895805414199
21
-332.32488250332563
31
0.0
40
0.17783491151094355
41
0.05520835910568498
42
0.083739935894283718
0
SPLINE
5
114
100
AcDbEntity
8
0
100
AcDbSpline
70
4
71
3
72
8
73
4
74
0
42
0.000000001
43
0.0000000001
44
0.0000000001
40
0
40
0
40
0
40
0
40
1
40
1
40
1
40
1
41
1
41
1
41
1
41
1
10
-15.846968022847898
20
189.71874864362789
30
9.7699626167013776e-14
10
-15.574736031595799
20
191.47602383807705
30
9.7699626167013776e-14
10
-15.471872022057191
20
193.70273791790001
30
9.7699626167013776e-14
10
-15.537800172232243
20
196.39889261750039
30
9.7699626167013776e-14
0
SPLINE
5
115
100
AcDbEntity
8
0
100
AcDbSpline
70
4
71
3
72
8
73
4
74
0
42
0.000000001
43
0.0000000001
44
0.0000000001
40
0
40
0
40
0
40
0
40
1
40
1
40
1
40
1
41
1
41
1
41
1
41
1
10
-15.537800172232243
20
196.39889261750039
30
9.7699626167013776e-14
10
-15.550870637867282
20
196.92459729051561
30
9.7699626167013776e-14
10
-15.557121428492104
20
197.2888966288092
30
9.7699626167013776e-14
10
-15.557121428492104
20
197.49349555113372
30
9.7699626167013776e-14
0
ELLIPSE
5
116
100
AcDbEntity
8
0
100
AcDbEllipse
10
2625.5034130676231
20
-1612.5673916387377
30
3.5527136788005009e-14
11
2636.1866895148587
21
-1827.4816492333466
31
0.0
40
0.087757966488980363
41
3.1760138436264507
42
3.2023541539120224
0
SPLINE
5
117
100
AcDbEntity
8
0
100
AcDbSpline
70
4
71
3
72
8
73
4
74
0
42
0.000000001
43
0.0000000001
44
0.0000000001
40
0
40
0
40
0
40
0
40
1
40
1
40
1
40
1
41
1
41
1
41
1
41
1
10
-14.640974751509537
20
205.87010219273981
30
1.0658141036401503e-13
10
-14.348852619612183
20
207.10451366729342
30
1.0658141036401503e-13
10
-14.070369837735262
20
208.02293414741396
30
1.0658141036401503e-13
10
-13.805533343493222
20
208.62536276589952
30
8.8817841970012523e-14
0
LINE
5
118
100
AcDbEntity
8
0
100
AcDbLine
10
-13.805533343493222
20
208.62536276589952
30
8.8817841970012523e-14
11
-12.085768096003846
21
212.53603706500459
31
8.7300266683028317e-14
0
LINE
5
119
100
AcDbEntity
8
0
100
AcDbLine
10
-12.085768096003846
20
212.53603706500459
30
8.7300266683028317e-14
11
-16.353351439603308
21
212.33882670207575
31
1.0533363756617545e-13
0
SPLINE
5
120
100
AcDbEntity
8
0
100
AcDbSpline
70
4
71
3
72
8
73
4
74
0
42
0.000000001
43
0.0000000001
44
0.0000000001
40
0
40
0
40
0
40
0
40
1
40
1
40
1
40
1
41
1
41
1
41
1
41
1
10
-16.353351439603308
20
212.33882670207575
30
1.0658141036401503e-13
10
-21.012514555940875
20
212.12342981645139
30
1.0658141036401503e-13
10
-25.290330880862896
20
209.82510611381488
30
1.0658141036401503e-13
10
-29.186793476754929
20
205.44328627617986
30
1.0658141036401503e-13
0
SPLINE
5
121
100
AcDbEntity
8
0
100
AcDbSpline
70
4
71
3
72
8
73
4
74
0
42
0.000000001
43
0.0000000001
44
0.0000000001
40
0
40
0
40
0
40
0
40
1
40
1
40
1
40
1
41
1
41
1
41
1
41
1
10
-29.186793476754929
20
205.44328627617986
30
1.0658141036401503e-13
10
-29.726706384176023
20
207.33582327247524
30
1.0658141036401503e-13
10
-30.098964900654231
20
209.18402977959872
30
1.0658141036401503e-13
10
-30.302993204189733
20
210.98790753195408
30
1.0658141036401503e-13
0
ELLIPSE
5
122
100
AcDbEntity
8
0
100
AcDbEllipse
10
16.053907833494865
20
63.686732581720392
30
8.8817841970012523e-14
11
-46.109330880442876
21
151.23125639029328
31
0.0
40
0.040741292773118186
41
0.10644104179920592
42
0.21638610912366849
0
LINE
5
123
100
AcDbEntity
8
0
100
AcDbLine
10
-30.449050801331179
20
213.86251762100335
30
9.2848909889024535e-14
11
-30.154653131892275
21
218.12328302399629
31
1.0442772198765545e-13
0
LINE
5
124
100
AcDbEntity
8
0
100
AcDbLine
10
-30.154653131892275
20
218.12328302399629
30
1.0442772198765545e-13
11
-34.102835643553533
21
216.4938826980011
31
1.0619008284392198e-13
0
SPLINE
5
125
100
AcDbEntity
8
0
100
AcDbSpline
70
4
71
3
72
8
73
4
74
0
42
0.000000001
43
0.0000000001
44
0.0000000001
40
0
40
0
40
0
40
0
40
1
40
1
40
1
40
1
41
1
41
1
41
1
41
1
10
-34.102835643553533
20
216.49388269800107
30
1.0658141036401503e-13
10
-38.089667605348978
20
214.8491374528314
30
9.7699626167013776e-14
10
-41.18138079957788
20
211.59317840436205
30
9.7699626167013776e-14
10
-43.379106057396577
20
206.72714212896113
30
9.7699626167013776e-14
0
ELLIPSE
5
126
100
AcDbEntity
8
0
100
AcDbEllipse
10
2033.7712238244319
20
-2587.7208532628001
30
2.6645352591003757e-14
11
2070.2458590323608
21
-2803.3110020830331
31
0.0
40
0.074492708116171716
41
3.1832815768140237
42
3.2073110142762435
0
ELLIPSE
5
127
100
AcDbEntity
8
0
100
AcDbEllipse
10
-59.990860413362356
20
169.95473033274763
30
9.7699626167013776e-14
11
-9.7238100548475686
21
-32.156570830792738
31
0.0
40
0.56150823338682432
41
2.8659253569603762
42
2.9111413615484616
0
SPLINE
5
128
100
AcDbEntity
8
0
100
AcDbSpline
70
4
71
3
72
8
73
4
74
0
42
0.000000001
43
0.0000000001
44
0.0000000001
40
0
40
0
40
0
40
0
40
1
40
1
40
1
40
1
41
1
41
1
41
1
41
1
10
-46.399778079596388
20
200.01403494720296
30
1.0658141036401503e-13
10
-46.962994433975062
20
200.47779192633729
30
1.0658141036401503e-13
10
-47.914377254779481
20
201.14160022152024
30
1.0658141036401503e-13
10
-49.255633195165814
20
202.0065976015226
30
9.7699626167013776e-14
0
SPLINE
5
129
100
AcDbEntity
8
0
100
AcDbSpline
70
4
71
3
72
8
73
4
74
0
42
0.000000001
43
0.0000000001
44
0.0000000001
40
0
40
0
40
0
40
0
40
1
40
1
40
1
40
1
41
1
41
1
41
1
41
1
10
-49.255633195165814
20
202.0065976015226
30
9.7699626167013776e-14
10
-49.882502162177985
20
202.41067895551038
30
9.7699626167013776e-14
10
-50.374670406913111
20
202.73121755621932
30
9.7699626167013776e-14
10
-50.732151804600115
20
202.96877881922779
30
9.7699626167013776e-14
0
LINE
5
130
100
AcDbEntity
8
0
100
AcDbLine
10
-50.732151804600115
20
202.96877881922782
30
9.7699626167013776e-14
11
-53.399890035388808
21
200.18112392256771
31
9.832469654638843e-14
0
SPLINE
5
131
100
AcDbEntity
8
0
100
AcDbSpline
70
4
71
3
72
8
73
4
74
0
42
0.000000001
43
0.0000000001
44
0.0000000001
40
0
40
0
40
0
40
0
40
1
40
1
40
1
40
1
41
1
41
1
41
1
41
1
10
-53.399890035388815
20
200.18112392256771
30
1.0658141036401503e-13
10
-55.690825612230633
20
201.62013431944584
30
1.0658141036401503e-13
10
-57.959595510885642
20
202.63346483413119
30
9.7699626167013776e-14
10
-60.207337500124616
20
203.22168608541278
30
9.7699626167013776e-14
0
LINE
5
132
100
AcDbEntity
8
0
100
AcDbLine
10
-60.207337500124623
20
203.22168608541284
30
9.7699626167013776e-14
11
-61.328081365028083
21
201.01372611186792
31
9.8509007190753531e-14
0
SPLINE
5
133
100
AcDbEntity
8
0
100
AcDbSpline
70
4
71
3
72
8
73
4
74
0
42
0.000000001
43
0.0000000001
44
0.0000000001
40
0
40
0
40
0
40
0
40
1
40
1
40
1
40
1
41
1
41
1
41
1
41
1
10
-61.328081365028083
20
201.01372611186792
30
1.0658141036401503e-13
10
-62.647740511613002
20
201.27629400618287
30
1.0658141036401503e-13
10
-64.008321177066421
20
201.5087405129336
30
1.0658141036401503e-13
10
-65.410392245773764
20
201.71220340089096
30
1.0658141036401503e-13
0
ELLIPSE
5
134
100
AcDbEntity
8
0
100
AcDbEllipse
10
8673.8060469213488
20
-4544.9849846798643
30
-3.5527136788005009e-14
11
8750.0520159564512
21
-4745.1910229762398
31
0.0
40
0.015501718963515118
41
3.0995232695859305
42
3.1336737577326277
0
LINE
5
135
100
AcDbEntity
8
0
100
AcDbLine
10
-75.389120404934957
20
201.13137070900453
30
9.18696827132333e-14
11
-79.378224435463707
21
198.39259130618717
31
9.7880374246241799e-14
0
ELLIPSE
5
136
100
AcDbEntity
8
0
100
AcDbEllipse
10
1045.749646417157
20
133.37778592421091
30
9.7699626167013776e-14
11
1133.5982778189161
21
-70.148935700632308
31
0.0
40
0.032659954862871751
41
3.2424028106355989
42
3.265953376676876
0
ELLIPSE
5
137
100
AcDbEntity
8
0
100
AcDbEllipse
10
1072.1242292147101
20
-152.42649005828727
30
9.7699626167013776e-14
11
1158.0623330990297
21
-354.20410841600068
31
0.0
40
0.01173532568134799
41
3.1568419943403887
42
3.2242892577991036
0
LINE
5
138
100
AcDbEntity
8
0
100
AcDbLine
10
-85.866841687050183
20
201.529201272368
30
1.0720062149526534e-13
11
-89.044940322081288
21
206.00820494770562
31
1.1209449085141322e-13
0
LINE
5
139
100
AcDbEntity
8
0
100
AcDbLine
10
-89.044940322081288
20
206.00820494770562
30
1.1209449085141322e-13
11
-90.208310624605815
21
201.99011729838244
31
1.0833187088152847e-13
0
LINE
5
140
100
AcDbEntity
8
0
100
AcDbLine
10
-90.208310624605815
20
201.99011729838244
30
1.0833187088152847e-13
11
-90.648197006800785
21
200.60737268914582
31
1.0717127329943421e-13
0
ELLIPSE
5
141
100
AcDbEntity
8
0
100
AcDbEllipse
10
-80.143242153448014
20
185.9197599219624
30
9.7699626167013776e-14
11
9.2487957264222498
21
-16.406647032893332
31
0.0
40
0.3405700036460767
41
3.4485980989604377
42
3.5413237873872903
0
SPLINE
5
142
100
AcDbEntity
8
0
100
AcDbSpline
70
4
71
3
72
8
73
4
74
0
42
0.000000001
43
0.0000000001
44
0.0000000001
40
0
40
0
40
0
40
0
40
1
40
1
40
1
40
1
41
1
41
1
41
1
41
1
10
-90.837449925948732
20
199.80716569054775
30
9.7699626167013776e-14
10
-90.925540285503359
20
199.81625916869592
30
9.7699626167013776e-14
10
-91.01306349507621
20
199.82535264684404
30
9.7699626167013776e-14
10
-91.100017820263659
20
199.83387724060688
30
9.7699626167013776e-14
0
ELLIPSE
5
143
100
AcDbEntity
8
0
100
AcDbEllipse
10
1939.8215201697758
20
-848.56884490446748
30
7.9936057773011271e-14
11
2042.1460756983688
21
-1046.6194605897692
31
0.0
40
0.032713550471939239
41
3.0521356993290398
42
3.1033931667232282
0
LINE
5
144
100
AcDbEntity
8
0
100
AcDbLine
10
-99.527205741666208
20
199.8384231124794
30
1.0807775120951751e-13
11
-101.68685737135071
21
199.32294795197916
31
1.0616917158579e-13
0
LINE
5
145
100
AcDbEntity
8
0
100
AcDbLine
10
-101.68685737135071
20
199.32294795197916
30
1.0616917158579e-13
11
-101.62149983996464
21
198.20333838703928
31
1.0719254535536102e-13
0
SPLINE
5
146
100
AcDbEntity
8
0
100
AcDbSpline
70
4
71
3
72
8
73
4
74
0
42
0.000000001
43
0.0000000001
44
0.0000000001
40
0
40
0
40
0
40
0
40
1
40
1
40
1
40
1
41
1
41
1
41
1
41
1
10
-101.62149983996464
20
198.20333838703928
30
1.0658141036401503e-13
10
-101.86019800454204
20
197.77425040174495
30
1.0658141036401503e-13
10
-102.09264451129279
20
197.25820635685966
30
1.0658141036401503e-13
10
-102.3194082446023
20
196.65577687117224
30
1.0658141036401503e-13
0
ELLIPSE
5
147
100
AcDbEntity
8
0
100
AcDbEllipse
10
423.62856749969058
20
108.41597631553637
30
1.0658141036401503e-13
11
526.67797078343358
21
-85.512674220100777
31
0.0
40
0.16151015730533191
41
3.1089929946945203
42
3.1440783211141086
0
ELLIPSE
5
148
100
AcDbEntity
8
0
100
AcDbEllipse
10
-109.4526160029539
20
161.66745115417012
30
1.0658141036401503e-13
11
-10.094054901182528
21
-33.302242245400883
31
0.0
40
0.25835862666829962
41
3.5055118502021396
42
3.5900777319257116
0
SPLINE
5
149
100
AcDbEntity
8
0
100
AcDbSpline
70
4
71
3
72
8
73
4
74
0
42
0.000000001
43
0.0000000001
44
0.0000000001
40
0
40
0
40
0
40
0
40
1
40
1
40
1
40
1
41
1
41
1
41
1
41
1
10
-104.08748096875036
20
192.80705026594805
30
1.0658141036401503e-13
10
-105.60094194156177
20
191.29984138456419
30
1.0658141036401503e-13
10
-106.84160507394202
20
189.39423305543201
30
1.0658141036401503e-13
10
-107.80946993229021
20
187.0902270129551
30
1.0658141036401503e-13
0
SPLINE
5
150
100
AcDbEntity
8
0
100
AcDbSpline
70
4
71
3
72
8
73
4
74
0
42
0.000000001
43
0.0000000001
44
0.0000000001
40
0
40
0
40
0
40
0
40
1
40
1
40
1
40
1
41
1
41
1
41
1
41
1
10
-107.80946993229021
20
187.0902270129551
30
1.0658141036401503e-13
10
-110.69828825574535
20
180.21344156053914
30
9.7699626167013776e-14
10
-110.73863958942579
20
170.90534137157215
30
9.7699626167013776e-14
10
-107.93222906888444
20
159.16650226805388
30
1.0658141036401503e-13
0
LINE
5
151
100
AcDbEntity
8
0
100
AcDbLine
10
-107.93222906888445
20
159.1665022680539
30
1.0658141036401503e-13
11
-106.24429077811315
21
152.10671642151846
31
9.3075522662535349e-14
0
SPLINE
5
152
100
AcDbEntity
8
0
100
AcDbSpline
70
4
71
3
72
8
73
4
74
0
42
0.000000001
43
0.0000000001
44
0.0000000001
40
0
40
0
40
0
40
0
40
1
40
1
40
1
40
1
41
1
41
1
41
1
41
1
10
-106.24429077811315
20
152.10671642151846
30
8.8817841970012523e-14
10
-105.89874641329943
20
149.67824610689433
30
9.7699626167013776e-14
10
-105.24062089155774
20
147.07359507316096
30
9.7699626167013776e-14
10
-104.26991421288803
20
144.29275638270386
30
9.7699626167013776e-14
0
ELLIPSE
5
153
100
AcDbEntity
8
0
100
AcDbEllipse
10
1246.2757576999663
20
4790.6384785501386
30
2.2204460492503131e-13
11
-1336.2713486056405
21
-4664.1312245754007
31
0.0
40
0.05213091497955543
41
6.2094978901655455
42
6.2325109004275179
0
LINE
5
154
100
AcDbEntity
8
0
100
AcDbLine
10
-100.59623315960778
20
136.02299507413289
30
9.7103881985785641e-14
11
-97.808009378562332
21
131.15639034794694
31
8.3385670891715665e-14
0
LINE
5
155
100
AcDbEntity
8
0
100
AcDbLine
10
-97.808009378562332
20
131.15639034794694
30
8.3385670891715665e-14
11
-95.819993463316735
21
136.40093549684997
31
1.0444537975961649e-13
0
SPLINE
5
156
100
AcDbEntity
8
0
100
AcDbSpline
70
4
71
3
72
8
73
4
74
0
42
0.000000001
43
0.0000000001
44
0.0000000001
40
0
40
0
40
0
40
0
40
1
40
1
40
1
40
1
41
1
41
1
41
1
41
1
10
-95.819993463316763
20
136.40093549684997
30
9.7699626167013776e-14
10
-95.081164407012423
20
138.34917026360324
30
9.7699626167013776e-14
10
-94.416220077462299
20
139.90241195130605
30
9.7699626167013776e-14
10
-93.825157873060988
20
141.05952972880215
30
1.0658141036401503e-13
0
LINE
5
157
100
AcDbEntity
8
0
100
AcDbLine
10
-93.825157873061016
20
141.05952972880215
30
1.0658141036401504e-13
11
-91.553545286882638
21
141.25787612609821
31
1.0719635292647074e-13
0
SPLINE
5
158
100
AcDbEntity
8
0
100
AcDbSpline
70
4
71
3
72
8
73
4
74
0
42
0.000000001
43
0.0000000001
44
0.0000000001
40
0
40
0
40
0
40
0
40
1
40
1
40
1
40
1
41
1
41
1
41
1
41
1
10
-91.553545286882638
20
141.25787612609821
30
1.0658141036401503e-13
10
-89.53654488564186
20
141.43405684520749
30
1.0658141036401503e-13
10
-87.18422876490088
20
141.96828784638913
30
1.0658141036401503e-13
10
-84.496598659063324
20
142.86056219202871
30
1.0658141036401503e-13
0
SPLINE
5
159
100
AcDbEntity
8
0
100
AcDbSpline
70
4
71
3
72
8
73
4
74
0
42
0.000000001
43
0.0000000001
44
0.0000000001
40
0
40
0
40
0
40
0
40
1
40
1
40
1
40
1
41
1
41
1
41
1
41
1
10
-84.496598659063324
20
142.86056219202871
30
1.0658141036401503e-13
10
-80.344953259444736
20
144.23876092939307
30
1.0658141036401503e-13
10
-76.694571317113017
20
146.1688052710428
30
1.0658141036401503e-13
10
-73.544322000911905
20
148.65070215459232
30
1.0658141036401503e-13
0
SPLINE
5
160
100
AcDbEntity
8
0
100
AcDbSpline
70
4
71
3
72
8
73
4
74
0
42
0.000000001
43
0.0000000001
44
0.0000000001
40
0
40
0
40
0
40
0
40
1
40
1
40
1
40
1
41
1
41
1
41
1
41
1
10
-73.544322000911905
20
148.65070215459232
30
1.0658141036401503e-13
10
-72.415051807842048
20
146.06082823965016
30
1.0658141036401503e-13
10
-71.710890878175988
20
143.21292363024725
30
1.0658141036401503e-13
10
-71.431273796335503
20
140.10757802361238
30
1.0658141036401503e-13
0
ELLIPSE
5
161
100
AcDbEntity
8
0
100
AcDbEllipse
10
-440.83589744465394
20
-1820.204009662931
30
5.3290705182007514e-14
11
368.31804897618247
21
1963.4958312498052
31
0.0
40
0.01530358492343056
41
6.154775076433209
42
6.2290248383751736
0
SPLINE
5
162
100
AcDbEntity
8
0
100
AcDbSpline
70
4
71
3
72
8
73
4
74
0
42
0.000000001
43
0.0000000001
44
0.0000000001
40
0
40
0
40
0
40
0
40
1
40
1
40
1
40
1
41
1
41
1
41
1
41
1
10
-71.702368018816827
20
126.40402038139348
30
9.7699626167013776e-14
10
-72.099629697794327
20
120.51556054675996
30
9.7699626167013776e-14
10
-73.527841697771748
20
115.72909220515541
30
1.0658141036401503e-13
10
-73.503403950850611
20
112.32138454768616
30
1.0658141036401503e-13
0
CIRCLE
5
163
100
AcDbEntity
8
0
100
AcDbCircle
10
15.448839283342572
20
131.49148317504753
30
-9.41700884368691e-14
40
3.099999999999997
210
1.8488927466117242e-32
220
2.6842329593666424e-17
230
-1
0
CIRCLE
5
164
100
AcDbEntity
8
0
100
AcDbCircle
10
57.029511202572465
20
191.10608724730992
30
-1.0145167778276677e-13
40
3.1249999999999964
210
1.1416189988965993e-32
220
2.6842329593666424e-17
230
-1
0
ENDSEC
0
SECTION
2
OBJECTS
0
DICTIONARY
5
C
100
AcDbDictionary
3
ACAD_GROUP
350
D
3
ACAD_MLINESTYLE
350
17
0
DICTIONARY
5
D
100
AcDbDictionary
0
DICTIONARY
5
1A
330
C
100
AcDbDictionary
0
DICTIONARY
5
17
100
AcDbDictionary
0
ENDSEC
0
EOF
